<svg width="155" height="85" viewBox="0 0 155 85" fill="none" xmlns="http://www.w3.org/2000/svg">
<g clip-path="url(#clip0_50_894)">
<path d="M58.3012 0.531721C58.1804 1.59115 58.0898 2.62043 58.0294 3.61938C57.9992 4.61833 57.9841 5.37517 57.9841 5.88972C57.9841 6.4346 57.9992 6.96441 58.0294 7.47896C58.0597 7.96336 58.0898 8.37202 58.12 8.70494H57.0782C56.897 6.919 56.6403 5.51139 56.3082 4.48211C55.976 3.42268 55.4022 2.68092 54.5869 2.25718C53.8018 1.80311 52.6089 1.57608 51.0084 1.57608H47.2488C46.222 1.57608 45.4369 1.66689 44.8934 1.84852C44.3801 1.99982 44.0327 2.34799 43.8515 2.89287C43.6704 3.40743 43.5798 4.22475 43.5798 5.34484V27.8666C43.5798 28.9564 43.6704 29.7737 43.8515 30.3186C44.0327 30.8635 44.3801 31.2267 44.8934 31.4083C45.4369 31.5596 46.222 31.6354 47.2488 31.6354H50.5555C52.4579 31.6354 53.8924 31.378 54.8587 30.8635C55.8552 30.3489 56.5649 29.5163 56.9876 28.3661C57.4406 27.1855 57.7727 25.5963 57.9841 23.5984H59.026C58.9354 24.4157 58.8901 25.5055 58.8901 26.8677C58.8901 27.4429 58.9051 28.2753 58.9354 29.365C58.9957 30.4245 59.0863 31.5295 59.2072 32.6797C57.6671 32.6192 55.9308 32.5889 53.998 32.5889C52.0653 32.5586 50.344 32.5435 48.8342 32.5435C48.1698 32.5435 47.3091 32.5435 46.2523 32.5435C45.2255 32.5435 44.1083 32.5586 42.9003 32.5889C41.6923 32.5889 40.4693 32.604 39.2313 32.6343C37.9932 32.6343 36.8155 32.6494 35.6981 32.6797V31.7716C36.7249 31.7111 37.495 31.59 38.0083 31.4083C38.5518 31.2267 38.9142 30.8635 39.0954 30.3186C39.2766 29.7737 39.3672 28.9564 39.3672 27.8666V5.34484C39.3672 4.22475 39.2766 3.40743 39.0954 2.89287C38.9142 2.34799 38.5518 1.98474 38.0083 1.80311C37.495 1.59115 36.7249 1.47019 35.6981 1.43986V0.531721C36.8155 0.561998 37.9932 0.592258 39.2313 0.622535C40.4693 0.622535 41.6923 0.637664 42.9003 0.667941C44.1083 0.667941 45.2255 0.667941 46.2523 0.667941C47.3091 0.667941 48.1698 0.667941 48.8342 0.667941C50.2234 0.667941 51.7935 0.667941 53.5451 0.667941C55.3267 0.637664 56.9121 0.592258 58.3012 0.531721ZM50.5102 16.0608C50.5102 16.0608 50.5102 16.2121 50.5102 16.5149C50.5102 16.8177 50.5102 16.969 50.5102 16.969H42.2209C42.2209 16.969 42.2209 16.8177 42.2209 16.5149C42.2209 16.2121 42.2209 16.0608 42.2209 16.0608H50.5102ZM51.8238 10.0671C51.7029 11.7926 51.6426 13.1094 51.6426 14.0175C51.6729 14.9257 51.6879 15.7581 51.6879 16.5149C51.6879 17.2717 51.7029 18.1041 51.7332 19.0123C51.7634 19.9204 51.8388 21.2372 51.9597 22.9627H50.9178C50.797 21.9941 50.6461 21.0556 50.4649 20.1475C50.314 19.209 49.9516 18.4523 49.3778 17.8771C48.8342 17.2717 47.898 16.969 46.5694 16.969V16.0608C47.5659 16.0608 48.3209 15.8641 48.8342 15.4706C49.3778 15.0468 49.7704 14.517 50.0119 13.8813C50.2534 13.2456 50.4196 12.5948 50.5102 11.9288C50.6008 11.2326 50.6914 10.612 50.782 10.0671H51.8238ZM77.6147 0.304688L88.6671 28.8656C89.12 30.0158 89.6334 30.7877 90.2072 31.1813C90.781 31.5446 91.3093 31.7413 91.7925 31.7716V32.6797C91.1887 32.6192 90.4487 32.5889 89.573 32.5889C88.6973 32.5586 87.8215 32.5435 86.9458 32.5435C85.7681 32.5435 84.6659 32.5586 83.6391 32.5889C82.6123 32.5889 81.782 32.6192 81.1478 32.6797V31.7716C82.6879 31.7111 83.6694 31.4537 84.0921 30.9997C84.5148 30.5153 84.4242 29.5013 83.8203 27.9574L75.3951 5.39025L76.1199 4.79996L68.2382 25.3238C67.755 26.5347 67.4682 27.5638 67.3776 28.4115C67.287 29.2288 67.3625 29.8796 67.6041 30.364C67.8758 30.8484 68.3138 31.1964 68.9177 31.4083C69.5518 31.6203 70.3369 31.7413 71.2731 31.7716V32.6797C70.4275 32.6192 69.5368 32.5889 68.6006 32.5889C67.6947 32.5586 66.8491 32.5435 66.064 32.5435C65.309 32.5435 64.6598 32.5586 64.1162 32.5889C63.6029 32.5889 63.1197 32.6192 62.6667 32.6797V31.7716C63.2706 31.6203 63.8897 31.2721 64.5239 30.7272C65.158 30.152 65.7318 29.1834 66.2452 27.8212L76.8899 0.304688C77.0108 0.304688 77.1314 0.304688 77.2523 0.304688C77.3731 0.304688 77.4938 0.304688 77.6147 0.304688ZM83.1409 19.6026V20.5107H69.6424L70.0954 19.6026H83.1409ZM120.098 0.531721C119.977 1.68197 119.886 2.80206 119.826 3.89182C119.796 4.95126 119.781 5.76858 119.781 6.34379C119.781 7.0703 119.796 7.7514 119.826 8.38709C119.856 9.02279 119.886 9.58275 119.917 10.0671H118.875C118.663 7.9481 118.376 6.28331 118.014 5.0724C117.652 3.83134 117.018 2.93828 116.112 2.3934C115.206 1.84852 113.801 1.57608 111.899 1.57608H109.045C108.019 1.57608 107.233 1.66689 106.69 1.84852C106.177 1.99982 105.829 2.34799 105.648 2.89287C105.467 3.40743 105.376 4.22475 105.376 5.34484V27.8666C105.376 28.9564 105.482 29.7737 105.693 30.3186C105.935 30.8635 106.388 31.2267 107.052 31.4083C107.717 31.59 108.683 31.7111 109.951 31.7716V32.6797C109.166 32.6192 108.17 32.5889 106.962 32.5889C105.754 32.5586 104.531 32.5435 103.293 32.5435C102.115 32.5435 101.013 32.5586 99.986 32.5889C98.9592 32.5889 98.1288 32.6192 97.4946 32.6797V31.7716C98.5214 31.7111 99.2915 31.59 99.8048 31.4083C100.348 31.2267 100.711 30.8635 100.892 30.3186C101.073 29.7737 101.164 28.9564 101.164 27.8666V5.34484C101.164 4.22475 101.073 3.40743 100.892 2.89287C100.711 2.34799 100.348 1.98474 99.8048 1.80311C99.2915 1.59115 98.5214 1.47019 97.4946 1.43986V0.531721C98.612 0.561998 99.7897 0.592258 101.028 0.622535C102.266 0.622535 103.489 0.637664 104.697 0.667941C105.905 0.667941 107.022 0.667941 108.049 0.667941C109.106 0.667941 109.966 0.667941 110.631 0.667941C112.02 0.667941 113.59 0.667941 115.342 0.667941C117.123 0.637664 118.709 0.592258 120.098 0.531721ZM113.077 16.5149C113.077 16.5149 113.077 16.6662 113.077 16.969C113.077 17.2717 113.077 17.423 113.077 17.423H104.017C104.017 17.423 104.017 17.2717 104.017 16.969C104.017 16.6662 104.017 16.5149 104.017 16.5149H113.077ZM113.937 10.5212C113.817 12.2467 113.756 13.5635 113.756 14.4716C113.786 15.3797 113.801 16.2121 113.801 16.969C113.801 17.7258 113.817 18.5582 113.847 19.4664C113.877 20.3745 113.952 21.6913 114.073 23.4167H113.031C112.911 22.4481 112.76 21.5097 112.578 20.6015C112.428 19.6631 112.065 18.9064 111.491 18.3312C110.948 17.7258 110.012 17.423 108.683 17.423V16.5149C109.679 16.5149 110.434 16.3182 110.948 15.9246C111.491 15.5009 111.884 14.9711 112.126 14.3354C112.367 13.6997 112.533 13.0489 112.624 12.3829C112.714 11.6867 112.805 11.0661 112.896 10.5212H113.937Z" fill="white"/>
<path d="M12.2511 3.94602L12.4094 3.6287L11.8582 3.35254L11.898 3.9689L12.2511 3.94602ZM24.5201 11.7767L24.869 11.8365L24.1798 11.6792L24.5201 11.7767ZM0.353881 21.4718L0.373892 21.1176L0 21.0965V21.4718H0.353881ZM2.81521 23.3684C2.61998 23.3771 2.46878 23.543 2.47752 23.7386C2.48626 23.9344 2.65163 24.0859 2.84689 24.0772L2.81521 23.3684ZM27.1227 24.8278L27.3628 24.5673L26.6945 23.9486L26.7701 24.8573L27.1227 24.8278ZM27.4734 29.1801C27.4996 28.9859 27.3637 28.8073 27.1701 28.7811C26.9764 28.7548 26.7982 28.8908 26.772 29.0851L27.4734 29.1801ZM4.44356 42.3538L4.41055 42.0005L3.36341 42.0989L4.25686 42.6551L4.44356 42.3538ZM9.29448 43.1181C9.0993 43.1083 8.93313 43.2589 8.92336 43.4547C8.9136 43.6504 9.06393 43.8169 9.25913 43.8267L9.29448 43.1181ZM43.262 60.2331L43.5129 60.4832L43.9609 60.0317L43.3421 59.8875L43.262 60.2331ZM24.3293 63.0103H23.9755V63.301L24.26 63.3581L24.3293 63.0103ZM46.27 60.8657L45.9297 60.9631L46.6237 60.8569L46.27 60.8657ZM37.1609 51.303L37.3201 50.9862L36.9346 51.5758L37.1609 51.303ZM55.7505 68.8289L56.0074 69.0728L55.6006 68.5074L55.7505 68.8289ZM34.1867 77.4053L33.8599 77.2689L33.7596 77.5105L33.9602 77.678L34.1867 77.4053ZM54.635 83.7446L54.2941 83.6493L54.8969 83.9831L54.635 83.7446ZM50.1735 56.8964L50.1342 56.5439L49.6303 56.6003L49.8569 57.0549L50.1735 56.8964ZM107.801 62.3319L107.546 62.0857L107.526 62.1061L107.51 62.1293L107.801 62.3319ZM99.6215 84.1174L99.3872 84.3833L100.047 84.9673L99.9741 84.0879L99.6215 84.1174ZM120.07 78.524L119.86 78.8101L120.751 79.465L120.406 78.4133L120.07 78.524ZM104.827 57.6422L105.051 57.9166L105.596 57.4694L104.912 57.2981L104.827 57.6422ZM135.685 58.6647L135.921 58.9287L136.307 58.5816L135.844 58.348L135.685 58.6647ZM150.928 42.3538L151.064 42.6812L152.042 42.2727L151.016 42.01L150.928 42.3538ZM129.364 25.9465L129.684 25.7948L129.484 25.3702L129.131 25.6796L129.364 25.9465ZM136.8 36.0394L136.451 35.9805L136.8 36.0394ZM154.646 21.4718L155 21.4704L154.999 21.119L154.648 21.1171L154.646 21.4718ZM140.146 34.5231L139.793 34.5326L140.47 34.6673L140.146 34.5231ZM130.48 11.7767L130.817 11.6701L130.126 11.7814L130.48 11.7767ZM143.492 4.31885L143.778 4.52868L144.214 3.93236L143.477 3.96447L143.492 4.31885ZM130.48 41.2351L130.139 41.3296L130.48 41.2351ZM130.502 41.4307L130.148 41.4105L130.502 41.4307ZM128.837 41.2566L128.483 41.2372L128.837 41.2566ZM137.916 56.1507L137.575 56.2452L137.916 56.1507ZM137.937 56.3463L137.584 56.3261L137.937 56.3463ZM136.273 56.1722L135.919 56.1528L136.273 56.1722ZM126.368 70.8705L126.027 70.9652L126.368 70.8705ZM126.39 71.0663L126.037 71.0459L126.39 71.0663ZM124.725 70.8921L124.372 70.8726L124.725 70.8921ZM91.2262 63.5868L90.8852 63.6815L91.2262 63.5868ZM91.2479 63.7826L90.8948 63.7624L91.2479 63.7826ZM89.5831 63.6084L89.2297 63.5891L89.5831 63.6084ZM65.9445 64.3326L65.6036 64.4273L65.9445 64.3326ZM65.9663 64.5284L65.6131 64.5082L65.9663 64.5284ZM64.3015 64.3543L63.9481 64.3347L64.3015 64.3543ZM32.3278 68.8289L31.9866 68.9235L32.3278 68.8289ZM32.3495 69.0248L31.9962 69.0044L32.3495 69.0248ZM30.6847 68.8504L30.3313 68.8311L30.6847 68.8504ZM20.5863 56.1291L20.2454 56.2238L20.5863 56.1291ZM20.6081 56.3249L20.2549 56.3045L20.6081 56.3249ZM18.9433 56.1507L18.5899 56.1312L18.9433 56.1507ZM28.7658 40.4676L28.4246 40.5623L28.7658 40.4676ZM28.7875 40.6634L28.4342 40.6432L28.7875 40.6634ZM27.1227 40.4893L26.7693 40.4698L27.1227 40.4893ZM7.04608 15.1328L6.70502 15.2275L7.04608 15.1328ZM7.06791 15.3286L6.7146 15.3082L7.06791 15.3286ZM5.40304 15.1544L5.04969 15.1349L5.40304 15.1544ZM18.7368 8.29159L18.4786 8.53423L18.7368 8.29159ZM20.7491 12.5485L20.3968 12.5822L20.7491 12.5485ZM16.786 6.60409L16.9934 6.31675L16.786 6.60409ZM13.182 10.7748L13.5263 10.6932L13.182 10.7748ZM12.5899 7.49343L12.9407 7.44678L12.5899 7.49343ZM117.48 51.3961L117.389 51.0534L117.48 51.3961ZM117.547 51.5226L117.331 51.2418L117.547 51.5226ZM146.84 15.2129L147.187 15.14L146.84 15.2129ZM148.466 15.3369L148.127 15.2353L148.466 15.3369ZM78.1092 72.6451L77.7566 72.616L78.1092 72.6451ZM78.1113 72.6155L77.7583 72.5922L78.1113 72.6155ZM8.78148 30.4673L8.53013 30.7169L8.78148 30.4673ZM11.1004 32.8102L10.9182 33.1144L11.1004 32.8102ZM47.2235 61.0486L47.1584 61.3971L47.2235 61.0486ZM145.717 30.6381L145.466 30.3871L145.717 30.6381ZM151.085 27.178L151.238 27.498L151.085 27.178ZM57.2946 58.1438L57.097 58.4379L57.2946 58.1438ZM54.9263 57.1819L54.8169 57.5193L54.9263 57.1819ZM148.422 14.8804L148.102 15.0317L148.422 14.8804ZM77.2986 67.4304L77.1643 67.1023L77.2986 67.4304ZM78.082 67.4086L78.1991 67.0739L78.082 67.4086ZM17.8468 21.4457C17.7617 22.6034 17.6992 23.726 17.6591 24.8147L18.3664 24.8409C18.4062 23.7613 18.4682 22.6474 18.5526 21.4979L17.8468 21.4457ZM18.0467 25.181C18.9976 25.0891 19.8181 24.7966 20.5318 24.2427C21.2414 23.6918 21.823 22.8998 22.3276 21.8446C23.3309 19.7469 24.0685 16.523 24.869 11.8365L24.1713 11.7168C23.3691 16.4137 22.6438 19.5424 21.6894 21.5378C21.2152 22.5293 20.6943 23.2191 20.0983 23.6817C19.5066 24.141 18.8187 24.3936 17.9788 24.4747L18.0467 25.181ZM17.6591 24.8147C17.4905 29.38 17.7121 33.3524 18.282 36.8181L18.9804 36.7026C18.4195 33.293 18.1992 29.3692 18.3664 24.8409L17.6591 24.8147ZM18.8757 36.5038C18.0798 35.7423 17.4344 35.0107 16.9063 34.3093L16.3414 34.7368C16.8941 35.4707 17.5653 36.231 18.387 37.0169L18.8757 36.5038ZM16.9063 34.3093C15.5147 32.4611 14.9254 30.8082 14.5465 29.3392C14.3502 28.5778 14.2242 27.9291 14.0564 27.2454C13.8951 26.5882 13.7077 25.9593 13.4136 25.3766C12.8126 24.1854 11.7953 23.2439 9.80483 22.5412C7.83304 21.845 4.88195 21.3735 0.373892 21.1176L0.333871 21.826C4.82641 22.0811 7.69552 22.5486 9.56969 23.2104C11.4252 23.8654 12.2796 24.7008 12.782 25.6968C13.0397 26.2074 13.212 26.7746 13.3692 27.4149C13.5198 28.0286 13.671 28.7789 13.8613 29.5168C14.2557 31.0461 14.8776 32.7928 16.3414 34.7368L16.9063 34.3093ZM0 21.4718C0 24.1577 1.63293 25.9032 3.47603 27.2482C4.39588 27.9194 5.39345 28.5088 6.28378 29.0647C7.18641 29.6282 7.97404 30.1544 8.53013 30.7169L9.03282 30.2176C8.41109 29.5886 7.55636 29.0233 6.65796 28.4625C5.74728 27.8938 4.78518 27.3259 3.89259 26.6746C2.1108 25.3745 0.707763 23.8134 0.707763 21.4718H0ZM10.9182 33.1144C13.0919 34.4234 14.7722 35.2054 16.6844 34.8725L16.5633 34.1735C14.9332 34.4573 13.4582 33.8164 11.2826 32.5062L10.9182 33.1144ZM16.7997 34.2151C13.0241 32.0471 11.0984 29.3382 9.34314 27.1455C8.47013 26.0549 7.62283 25.0714 6.60337 24.383C5.56993 23.6852 4.37256 23.2985 2.81521 23.3684L2.84689 24.0772C4.2533 24.014 5.30086 24.359 6.20796 24.9715C7.12906 25.5933 7.91792 26.4986 8.79112 27.5897C10.5284 29.7598 12.5353 32.584 16.4479 34.8308L16.7997 34.2151ZM18.282 36.8181C18.5004 38.145 18.7699 39.3979 19.0882 40.5815L19.7715 40.3969C19.4598 39.2376 19.1952 38.0079 18.9804 36.7026L18.282 36.8181ZM19.7834 40.4772C19.6475 36.4929 21.5868 33.7845 23.5777 31.4757C24.5622 30.3339 25.5881 29.2598 26.3274 28.2071C27.0728 27.1452 27.5783 26.0382 27.4753 24.7984L26.7701 24.8573C26.8529 25.8548 26.4546 26.7933 25.7486 27.7986C25.0362 28.8132 24.0629 29.8281 23.0423 31.0117C21.0236 33.3526 18.9305 36.2377 19.0761 40.5013L19.7834 40.4772ZM26.8826 25.0884C28.0331 26.1537 28.6408 27.3828 28.7946 28.6801C28.9491 29.9826 28.649 31.3801 27.9372 32.7768C26.511 35.5754 23.4524 38.3236 19.2871 40.1647L19.5726 40.8139C23.8435 38.9261 27.0482 36.0809 28.5674 33.0997C29.3284 31.6064 29.6719 30.0675 29.4974 28.5964C29.3224 27.1205 28.6288 25.7395 27.3628 24.5673L26.8826 25.0884ZM19.7407 40.6585C21.5884 37.2475 23.3105 35.6813 24.6793 34.3303C25.3659 33.6525 25.983 33.0106 26.4675 32.2133C26.9557 31.4097 27.3002 30.4639 27.4734 29.1801L26.772 29.0851C26.6101 30.2844 26.2941 31.1346 25.8631 31.8442C25.428 32.5603 24.8669 33.1491 24.1827 33.8246C22.8099 35.1797 21.0205 36.8087 19.1188 40.3201L19.7407 40.6585ZM19.0882 40.5815C20.0148 44.0276 21.3553 46.8851 23.0518 49.2716L23.6283 48.8599C21.9858 46.5495 20.6787 43.7708 19.7715 40.3969L19.0882 40.5815ZM23.0518 49.2716C28.3526 56.728 37.0646 59.5 47.1584 61.3971L47.2888 60.6999C37.2067 58.8049 28.7534 56.0693 23.6283 48.8599L23.0518 49.2716ZM23.189 48.745C21.8416 49.383 20.6959 49.6909 19.573 49.7074C18.4503 49.7239 17.3221 49.4495 16.0085 48.8799C14.6905 48.3085 13.2011 47.4466 11.3561 46.2997C10.4349 45.727 9.42911 45.0858 8.31464 44.3767C7.20076 43.6681 5.97957 42.8923 4.63025 42.0524L4.25686 42.6551C5.603 43.493 6.82168 44.2673 7.93536 44.9758C9.04848 45.6839 10.058 46.3276 10.9831 46.9026C12.8307 48.0513 14.358 48.9374 15.7275 49.5311C17.1013 50.1269 18.3311 50.4351 19.5834 50.4167C20.8358 50.3982 22.0825 50.0536 23.4912 49.3865L23.189 48.745ZM4.47656 42.7069C10.3137 42.1587 14.0939 42.3527 16.839 43.3916C19.559 44.4208 21.3067 46.2974 23.035 49.2455L23.6451 48.886C21.8743 45.8654 20.0194 43.8368 17.089 42.7277C14.1836 41.6282 10.2651 41.4506 4.41055 42.0005L4.47656 42.7069ZM23.3162 48.7118C20.7068 48.8883 19.1498 47.6708 17.2394 46.2628C15.3271 44.8535 13.1192 43.3098 9.29448 43.1181L9.25913 43.8267C12.8702 44.0078 14.9379 45.4473 16.8202 46.8345C18.7044 48.2233 20.4612 49.616 23.364 49.4197L23.3162 48.7118ZM43.0111 59.9828C40.0006 63.0162 37.6685 64.1194 34.9734 64.272C33.6097 64.3491 32.137 64.1836 30.4124 63.878C28.6826 63.5715 26.7352 63.1311 24.3987 62.6625L24.26 63.3581C26.5708 63.8218 28.551 64.2688 30.2892 64.5767C32.0324 64.8857 33.5683 65.062 35.0132 64.9802C37.9354 64.8149 40.4224 63.5972 43.5129 60.4832L43.0111 59.9828ZM24.6832 63.0103C24.6832 61.4761 24.7759 60.3592 25.1445 59.5739C25.4915 58.8345 26.1033 58.3526 27.2869 58.1475C28.4979 57.9379 30.2682 58.0276 32.8588 58.4354C35.4414 58.8419 38.8036 59.5582 43.1818 60.5786L43.3421 59.8875C38.9618 58.8666 35.5782 58.1452 32.9686 57.7344C30.3671 57.3251 28.4991 57.2178 27.1666 57.4485C25.8066 57.6839 24.9697 58.2797 24.504 59.2719C24.0597 60.2187 23.9755 61.4876 23.9755 63.0103H24.6832ZM43.0969 59.9191C39.0492 62.0587 35.4156 61.5545 32.2209 61.0898C30.6366 60.8593 29.1248 60.6325 27.7586 60.7841C26.367 60.9386 25.1167 61.4855 24.0554 62.7858L24.6032 63.2349C25.5325 62.0963 26.6046 61.6261 27.8367 61.4894C29.0942 61.3498 30.5076 61.5575 32.1191 61.792C35.3165 62.257 39.1586 62.803 43.4271 60.5468L43.0969 59.9191ZM46.6102 60.7682C45.7814 57.8613 44.743 56.4693 43.2422 55.2706C42.5093 54.6854 41.663 54.1441 40.7073 53.4997C39.7456 52.8514 38.6506 52.0845 37.3874 51.0304L36.9346 51.5758C38.2238 52.6514 39.341 53.4336 40.3124 54.0884C41.2898 54.7475 42.0975 55.2639 42.8011 55.8256C44.1731 56.9212 45.1365 58.1805 45.9297 60.9631L46.6102 60.7682ZM37.0018 51.62C38.6651 52.4598 40.0654 53.0655 41.2077 53.5946C42.3598 54.1282 43.2404 54.5797 43.9177 55.1205C44.5834 55.6521 45.0556 56.2727 45.3764 57.1557C45.7015 58.0503 45.8754 59.2265 45.9163 60.8744L46.6237 60.8569C46.5823 59.1773 46.4046 57.9125 46.0415 56.9129C45.674 55.9017 45.1216 55.1748 44.3587 54.5657C43.6076 53.9659 42.6558 53.4838 41.5046 52.9506C40.3435 52.4128 38.9694 51.819 37.3201 50.9862L37.0018 51.62ZM55.4934 68.5851C52.9843 71.2412 51.0881 72.8852 49.2767 73.8242L49.6018 74.4544C51.5242 73.458 53.4879 71.74 56.0074 69.0728L55.4934 68.5851ZM38.2416 78.1276C37.5728 78.3303 36.9595 78.3592 36.3512 78.2074C35.7388 78.0543 35.107 77.7116 34.413 77.1327L33.9602 77.678C34.709 78.303 35.435 78.7095 36.1801 78.8958C36.9295 79.0829 37.6735 79.0409 38.4465 78.8067L38.2416 78.1276ZM34.5133 77.5417C35.8878 74.2331 37.5452 72.2458 39.3201 71.0647C41.0952 69.8834 43.0226 69.485 44.9808 69.4164C46.9558 69.3474 48.9096 69.6119 50.7892 69.7364C52.6388 69.8589 54.4167 69.8446 55.9001 69.1503L55.6006 68.5074C54.2957 69.1182 52.6809 69.1507 50.8359 69.0285C49.0209 68.9082 46.9779 68.6367 44.9562 68.7075C42.9177 68.7788 40.8483 69.1961 38.9287 70.4735C37.0089 71.7511 35.2738 73.8656 33.8599 77.2689L34.5133 77.5417ZM34.4119 77.679C37.9053 74.7888 41.2495 73.5938 44.7345 72.6561C48.2133 71.7197 51.8795 71.0321 55.9001 69.1503L55.6006 68.5074C51.6543 70.3545 48.0877 71.0191 44.551 71.9709C41.0201 72.9209 37.5659 74.1497 33.9615 77.1318L34.4119 77.679ZM69.2197 70.1771C71.6928 69.5638 74.6743 68.8944 77.4331 67.7585L77.1643 67.1023C74.4658 68.2133 71.547 68.869 69.0497 69.4884L69.2197 70.1771ZM68.7965 69.9368C69.2176 71.3148 68.8311 72.57 67.8965 73.7778C66.9531 74.9972 65.4732 76.135 63.7837 77.2333C62.0911 78.3333 60.2444 79.3596 58.5468 80.3923C56.8701 81.4125 55.3412 82.4379 54.3731 83.506L54.8969 83.9831C55.7878 83.0001 57.2332 82.0214 58.9142 80.9987C60.5744 79.9886 62.4687 78.9334 64.1688 77.8285C65.8718 76.7216 67.436 75.5307 68.4558 74.2125C69.4849 72.8826 69.9813 71.3914 69.4731 69.7289L68.7965 69.9368ZM54.976 83.8396C56.1155 79.7386 57.3068 76.8677 59.373 74.7517C61.4352 72.6394 64.4108 71.238 69.2109 70.1793L69.0587 69.4865C64.2006 70.558 61.0689 72.0003 58.8671 74.2554C56.6693 76.5064 55.4397 79.5262 54.2941 83.6493L54.976 83.8396ZM68.8563 69.614C66.6567 72.4281 64.19 74.296 61.6765 76.2742C59.167 78.2493 56.6224 80.3266 54.3464 83.5392L54.9236 83.95C57.1361 80.8266 59.6106 78.8021 62.1136 76.8323C64.6124 74.8657 67.1515 72.9455 69.4133 70.0516L68.8563 69.614ZM51.2972 64.4076C54.2624 69.0709 58.2947 70.942 63.001 70.9916L63.0086 70.2821C58.5252 70.2348 54.7223 68.474 51.894 64.0263L51.2972 64.4076ZM63.001 70.9916C64.9705 71.0124 67.0531 70.7146 69.2197 70.1771L69.0497 69.4884C66.9244 70.0157 64.9032 70.3022 63.0086 70.2821L63.001 70.9916ZM63.2044 70.344C62.2689 69.7032 61.6479 68.7804 61.1954 67.6918C60.7412 66.5989 60.4661 65.3621 60.209 64.1098C59.9547 62.8713 59.7166 61.608 59.3331 60.5206C58.949 59.4305 58.4016 58.4633 57.4923 57.8496L57.097 58.4379C57.8242 58.9289 58.3039 59.7299 58.6659 60.757C59.029 61.7868 59.2565 62.9901 59.5158 64.2528C59.7721 65.5018 60.0584 66.8011 60.5422 67.9648C61.0277 69.133 61.721 70.1871 62.8051 70.9297L63.2044 70.344ZM55.0354 56.8446C53.4731 56.3362 52.1688 56.316 50.1342 56.5439L50.2127 57.249C52.2007 57.0264 53.3908 57.0553 54.8169 57.5193L55.0354 56.8446ZM49.8569 57.0549C51.7022 60.7563 52.9557 63.6183 54.7408 65.8472C56.5479 68.1033 58.8913 69.7078 62.8983 70.9751L63.1112 70.2986C59.2072 69.0638 56.994 67.5271 55.2927 65.403C53.5695 63.2514 52.3628 60.4943 50.49 56.7378L49.8569 57.0549ZM63.2044 70.344C60.1469 68.2495 58.8368 65.6391 57.3304 63.0935C55.8221 60.545 54.1314 58.1021 50.3051 56.567L50.042 57.2257C53.6514 58.6738 55.2409 60.9534 56.7217 63.4555C58.2041 65.9603 59.5918 68.7287 62.8051 70.9297L63.2044 70.344ZM77.7583 72.5922C77.7578 72.6002 77.7571 72.6082 77.7566 72.616L78.4618 72.6742C78.4629 72.6623 78.4638 72.6506 78.4645 72.6387L77.7583 72.5922ZM77.9648 67.7434C81.0445 68.8266 83.7034 69.38 86.5484 69.8744L86.6692 69.1754C83.841 68.684 81.2257 68.1385 78.1991 67.0739L77.9648 67.7434ZM86.2646 69.443C85.8203 71.3198 86.0307 72.8705 86.7182 74.2208C87.3997 75.5591 88.5356 76.6721 89.8904 77.709C91.2433 78.7441 92.8519 79.7298 94.49 80.7894C96.1364 81.8545 97.8278 83.0033 99.3872 84.3833L99.8556 83.8515C98.2548 82.4347 96.5262 81.2622 94.8738 80.1932C93.2129 79.1189 91.6434 78.1577 90.3199 77.145C88.9985 76.1338 87.9597 75.0981 87.3487 73.8984C86.7441 72.7109 86.5443 71.3343 86.9532 69.6067L86.2646 69.443ZM99.9741 84.0879C99.6852 80.6143 98.9135 77.9896 96.9118 75.6751C94.9244 73.3769 91.7531 71.4198 86.752 69.2005L86.4656 69.8492C91.4473 72.0599 94.4967 73.9658 96.3771 76.1398C98.2431 78.2975 98.9866 80.7541 99.2688 84.1468L99.9741 84.0879ZM99.9412 83.9655C98.2348 80.3523 95.8702 78.1675 93.4946 76.149C91.1136 74.1258 88.7472 72.2868 86.909 69.3369L86.3086 69.7128C88.2182 72.777 90.6851 74.6917 93.037 76.6902C95.3942 78.693 97.662 80.7975 99.3016 84.2692L99.9412 83.9655ZM99.7287 69.0645C100.368 69.7859 101.055 70.4166 101.778 70.9744L102.21 70.4122C101.52 69.8799 100.866 69.2791 100.258 68.5932L99.7287 69.0645ZM101.778 70.9744C104.577 73.1336 107.921 74.1981 111.132 75.1714C114.368 76.1522 117.45 77.0369 119.86 78.8101L120.279 78.2381C117.75 76.3777 114.534 75.4614 111.337 74.4922C108.115 73.5156 104.891 72.4814 102.21 70.4122L101.778 70.9744ZM120.406 78.4133C118.881 73.7614 117.319 70.503 114.535 69.0576C111.744 67.6088 107.854 68.0434 101.866 70.3625L102.121 71.0243C108.1 68.7087 111.719 68.3944 114.21 69.6876C116.707 70.9842 118.2 73.9583 119.734 78.6349L120.406 78.4133ZM120.339 78.294C117.702 75.193 115.437 73.031 112.652 71.7352C109.862 70.4373 106.59 70.0262 101.97 70.3394L102.018 71.0473C106.578 70.7382 109.715 71.1513 112.354 72.3787C114.996 73.608 117.179 75.6726 119.8 78.7542L120.339 78.294ZM86.5484 69.8744C88.9028 70.2834 91.1664 70.4647 93.3151 70.3785L93.2868 69.6697C91.1968 69.7534 88.984 69.5775 86.6692 69.1754L86.5484 69.8744ZM93.3151 70.3785C99.3323 70.1371 104.437 67.7959 108.091 62.5346L107.51 62.1293C104 67.184 99.1138 69.4357 93.2868 69.6697L93.3151 70.3785ZM93.4876 70.3254C94.0303 69.9877 94.4116 69.4654 94.6963 68.8557C94.9803 68.2472 95.1787 67.5288 95.343 66.769C95.5074 66.0104 95.6433 65.1831 95.7926 64.367C95.9432 63.5444 96.109 62.723 96.336 61.9465C96.7917 60.3881 97.4784 59.066 98.7162 58.2942C99.9502 57.525 101.814 57.2525 104.741 57.9863L104.912 57.2981C101.89 56.5402 99.8039 56.7805 98.3424 57.6917C96.8847 58.6004 96.1308 60.1263 95.6569 61.7469C95.4191 62.5602 95.248 63.411 95.0966 64.239C94.9439 65.0733 94.8126 65.8747 94.6514 66.6186C94.4907 67.361 94.3056 68.0185 94.0551 68.5551C93.8054 69.0902 93.5011 69.482 93.1143 69.7227L93.4876 70.3254ZM104.602 57.3676C103.523 58.2531 102.822 59.3769 102.238 60.5626C101.946 61.1545 101.679 61.77 101.411 62.3799C101.142 62.9929 100.87 63.6034 100.562 64.2008C99.9469 65.3935 99.1945 66.5217 98.064 67.4705C96.9346 68.4182 95.409 69.2025 93.226 69.6773L93.376 70.3707C95.6545 69.8751 97.289 69.0461 98.5182 68.0145C99.7462 66.9841 100.551 65.7674 101.191 64.5267C101.51 63.9075 101.79 63.279 102.059 62.6659C102.33 62.0497 102.589 61.4514 102.872 60.8769C103.438 59.7297 104.085 58.7093 105.051 57.9166L104.602 57.3676ZM93.537 70.2884C96.7382 67.4165 98.2369 64.812 99.6179 62.7017C100.992 60.6023 102.241 59.0009 104.952 57.9741L104.701 57.3104C101.78 58.4171 100.427 60.1717 99.0261 62.3125C97.6325 64.4422 96.184 66.9616 93.0649 69.7598L93.537 70.2884ZM108.056 62.5782C111.031 59.4863 111.734 57.1543 112.541 55.4368C112.94 54.5877 113.356 53.9032 114.075 53.3135C114.798 52.7195 115.856 52.1994 117.572 51.7388L117.389 51.0534C115.62 51.5281 114.457 52.0827 113.626 52.7645C112.791 53.4506 112.319 54.2433 111.901 55.1345C111.073 56.8974 110.421 59.0981 107.546 62.0857L108.056 62.5782ZM107.889 62.6756C108.9 62.4156 109.896 62.1405 110.876 61.8487L110.674 61.1687C109.704 61.4578 108.716 61.7304 107.713 61.9883L107.889 62.6756ZM110.692 61.8535C114.666 62.8149 119.552 63.3498 124.145 63.0183C128.728 62.6875 133.078 61.4895 135.921 58.9287L135.448 58.4008C132.778 60.8063 128.616 61.9842 124.094 62.3106C119.582 62.6364 114.77 62.1102 110.858 61.1639L110.692 61.8535ZM110.824 61.8601C118.529 60.7847 121.923 58.5807 124.754 57.4196C126.155 56.8449 127.412 56.526 129.018 56.6926C130.639 56.8605 132.643 57.5259 135.526 58.9815L135.844 58.348C132.932 56.877 130.837 56.1677 129.091 55.9868C127.33 55.8043 125.951 56.1619 124.486 56.763C121.583 57.9537 118.316 60.0983 110.726 61.1573L110.824 61.8601ZM135.578 58.3267C126.728 61.1522 123.691 60.704 110.763 61.1541L110.787 61.8633C123.672 61.4145 126.828 61.865 135.792 59.0028L135.578 58.3267ZM110.876 61.8487C119.753 59.205 127.306 55.1777 132.116 48.5282L131.543 48.1117C126.864 54.5808 119.481 58.5457 110.674 61.1687L110.876 61.8487ZM131.615 48.6022C133.257 49.8562 134.766 50.3613 136.256 50.3186C137.733 50.276 139.145 49.6948 140.596 48.8673C142.039 48.0442 143.577 46.9416 145.268 45.8405C146.971 44.7316 148.862 43.6016 151.064 42.6812L150.792 42.0264C148.533 42.9703 146.602 44.1262 144.883 45.2454C143.151 46.3726 141.666 47.4404 140.246 48.2506C138.833 49.0566 137.541 49.5719 136.235 49.6093C134.941 49.6465 133.586 49.2155 132.044 48.0378L131.615 48.6022ZM132.06 48.5894C138.098 43.4095 144.246 41.0088 150.841 42.6973L151.016 42.01C144.112 40.2422 137.733 42.7894 131.6 48.0504L132.06 48.5894ZM131.847 48.6742C135.714 48.4839 138.682 47.0518 141.574 45.6546C144.474 44.2532 147.295 42.888 150.946 42.708L150.911 41.9994C147.098 42.1874 144.157 43.619 141.266 45.0154C138.368 46.4161 135.519 47.7831 131.812 47.9656L131.847 48.6742ZM132.116 48.5282C133.759 46.2572 135.079 43.6842 136.022 40.7629L135.348 40.5444C134.428 43.396 133.142 45.9019 131.543 48.1117L132.116 48.5282ZM135.845 40.3376C131.507 38.1231 128.531 35.7948 127.349 33.4342C126.766 32.2692 126.621 31.1018 126.96 29.9207C127.301 28.7305 128.142 27.4907 129.598 26.2134L129.131 25.6796C127.613 27.0125 126.67 28.3616 126.279 29.7248C125.886 31.0972 126.063 32.448 126.717 33.7524C128.008 36.3306 131.167 38.7457 135.524 40.9698L135.845 40.3376ZM129.045 26.0983C129.675 27.4337 130.487 28.6384 131.315 29.7818C132.15 30.9343 132.988 32.0079 133.71 33.1218C135.142 35.3289 136.053 37.5985 135.341 40.5709L136.029 40.7365C136.805 37.4974 135.788 35.0238 134.304 32.7352C133.568 31.6012 132.702 30.4889 131.888 29.365C131.067 28.2319 130.286 27.0696 129.684 25.7948L129.045 26.0983ZM136.011 40.5148C134.691 37.4075 132.687 35.2419 131.283 33.1784C130.573 32.1344 130.005 31.1069 129.701 29.965C129.397 28.8282 129.35 27.5593 129.709 26.0277L129.02 25.8653C128.636 27.5033 128.681 28.8914 129.017 30.1484C129.351 31.4005 129.968 32.5041 130.699 33.5782C132.177 35.7508 134.076 37.7693 135.359 40.7926L136.011 40.5148ZM136.022 40.7629C136.495 39.297 136.873 37.7441 137.149 36.0983L136.451 35.9805C136.18 37.5939 135.81 39.113 135.348 40.5444L136.022 40.7629ZM136.91 36.3768C141.197 34.9805 143.771 33.0892 145.967 30.8889L145.466 30.3871C143.339 32.5186 140.859 34.3446 136.691 35.702L136.91 36.3768ZM151.238 27.498C152.678 26.8073 153.632 25.9327 154.218 24.8966C154.803 23.8642 155.005 22.7033 155 21.4704L154.292 21.4734C154.297 22.6295 154.107 23.6561 153.603 24.5465C153.101 25.4334 152.268 26.2173 150.932 26.858L151.238 27.498ZM154.648 21.1171C152.029 21.1034 149.771 21.1921 147.865 21.5186C145.959 21.8452 144.381 22.4136 143.14 23.3769C140.64 25.3175 139.635 28.7521 139.793 34.5326L140.5 34.5133C140.343 28.775 141.359 25.6567 143.574 23.9378C144.69 23.0713 146.143 22.5334 147.984 22.2178C149.827 21.9021 152.035 21.8129 154.644 21.8265L154.648 21.1171ZM154.503 21.1472C150.411 22.9536 147.489 24.5596 145.215 26.5716C142.934 28.5897 141.325 30.9984 139.823 34.3787L140.47 34.6673C141.943 31.3503 143.5 29.0356 145.683 27.1035C147.874 25.1654 150.714 23.5947 154.789 21.7966L154.503 21.1472ZM137.149 36.0983C137.522 33.8812 137.71 31.4957 137.697 28.9279L136.99 28.9313C137.002 31.4624 136.816 33.807 136.451 35.9805L137.149 36.0983ZM137.697 28.9279C137.686 26.5758 137.402 23.9195 137.046 21.2687L136.345 21.3634C136.7 24.0073 136.979 26.6267 136.99 28.9313L137.697 28.9279ZM137.58 28.6661C134.943 26.2847 133.296 24.1751 132.286 21.6235C131.273 19.0644 130.889 16.0294 130.834 11.7721L130.126 11.7814C130.181 16.0663 130.568 19.2048 131.628 21.8851C132.692 24.5731 134.422 26.7688 137.107 29.1933L137.58 28.6661ZM130.142 11.8833C132.263 18.628 133.602 22.4147 137.029 29.092L137.658 28.7674C134.256 22.1382 132.931 18.3923 130.817 11.6701L130.142 11.8833ZM136.988 21.1167C136.986 21.1133 136.984 21.1105 136.983 21.1082C136.981 21.1061 136.98 21.1039 136.979 21.1023C136.978 21.1016 136.977 21.1006 136.977 21.0997C136.976 21.0991 136.976 21.0984 136.975 21.0977C136.975 21.0974 136.975 21.0968 136.974 21.0963C136.974 21.0958 136.973 21.0951 136.973 21.094C136.972 21.0936 136.972 21.0931 136.972 21.0924C136.971 21.0917 136.97 21.091 136.97 21.0899C136.969 21.089 136.968 21.0876 136.967 21.086C136.966 21.0855 136.965 21.0839 136.965 21.0832C136.964 21.0821 136.962 21.0802 136.961 21.0789C136.96 21.0775 136.958 21.0743 136.956 21.0725C136.954 21.0701 136.949 21.0646 136.946 21.0614C136.942 21.0566 136.93 21.0445 136.922 21.0374C136.907 21.0243 136.848 20.986 136.802 20.9659C136.639 20.9494 136.377 21.1279 136.332 21.2843C136.333 21.3345 136.347 21.4037 136.353 21.4227C136.357 21.4326 136.363 21.4482 136.366 21.4539C136.368 21.4578 136.371 21.4645 136.373 21.4674C136.374 21.4693 136.376 21.473 136.377 21.4746C136.378 21.4759 136.379 21.4782 136.379 21.4792C136.38 21.4801 136.381 21.4817 136.381 21.4824C136.382 21.4832 136.382 21.4842 136.383 21.4847C136.383 21.4862 136.384 21.4872 136.385 21.4879C136.385 21.4888 136.385 21.4895 136.386 21.4901C136.387 21.4911 136.387 21.492 136.388 21.4927C136.388 21.4934 136.388 21.494 136.389 21.4943C136.389 21.4952 136.39 21.4959 136.39 21.4963C136.39 21.4968 136.391 21.4973 136.391 21.4977C136.391 21.4986 136.392 21.4993 136.392 21.5C136.393 21.5012 136.394 21.5028 136.395 21.5043C136.397 21.5073 136.399 21.5108 136.402 21.5142C136.404 21.5176 136.407 21.5211 136.408 21.5241C136.41 21.5255 136.41 21.5271 136.411 21.5284C136.412 21.5291 136.412 21.5298 136.413 21.5307C136.413 21.531 136.413 21.5314 136.414 21.5319C136.414 21.5325 136.415 21.5332 136.415 21.5339C136.415 21.5342 136.416 21.5348 136.416 21.5353C136.417 21.5358 136.417 21.5367 136.418 21.5378C136.418 21.5381 136.419 21.5388 136.419 21.5396C136.42 21.5403 136.42 21.5411 136.421 21.5422C136.422 21.5431 136.423 21.5447 136.424 21.5465C136.425 21.5472 136.426 21.549 136.427 21.5498C136.428 21.5509 136.43 21.5534 136.431 21.5548C136.432 21.5566 136.436 21.5605 136.438 21.5628C136.44 21.5658 136.447 21.5733 136.451 21.5775C136.458 21.5843 136.477 21.6023 136.491 21.6132C136.524 21.6359 136.688 21.6854 136.818 21.6673C136.975 21.5612 137.059 21.3258 137.053 21.2621C137.047 21.2391 137.036 21.2052 137.032 21.1942C137.029 21.1877 137.024 21.177 137.022 21.1728C137.021 21.1697 137.018 21.1646 137.017 21.1625C137.016 21.1607 137.014 21.1577 137.013 21.1564C137.013 21.1552 137.012 21.1532 137.011 21.1524C137.01 21.1502 137.009 21.1486 137.008 21.1474C137.008 21.1463 137.007 21.1453 137.007 21.1446C137.006 21.1437 137.006 21.1431 137.005 21.1426C137.005 21.1415 137.004 21.1406 137.004 21.1399C137.003 21.1394 137.003 21.1389 137.003 21.1385C137.002 21.1376 137.002 21.1369 137.001 21.1364C137.001 21.1353 137 21.1344 136.999 21.1336C136.998 21.132 136.997 21.13 136.996 21.1277C136.994 21.1254 136.992 21.1226 136.99 21.1192L136.401 21.5129C136.403 21.5161 136.405 21.5186 136.406 21.5204C136.408 21.5223 136.408 21.5236 136.409 21.5241C136.409 21.5245 136.409 21.5243 136.409 21.5239C136.408 21.5238 136.408 21.5234 136.408 21.5229C136.408 21.5225 136.407 21.522 136.407 21.5216C136.407 21.5211 136.406 21.5202 136.406 21.5193C136.405 21.5188 136.405 21.5181 136.404 21.5174C136.404 21.5167 136.403 21.5158 136.403 21.5145C136.402 21.5135 136.401 21.5117 136.4 21.5098C136.399 21.5089 136.398 21.5067 136.398 21.5057C136.397 21.5044 136.395 21.5014 136.394 21.4996C136.393 21.4975 136.39 21.4924 136.389 21.4894C136.387 21.4851 136.382 21.4745 136.379 21.4679C136.375 21.4569 136.364 21.423 136.358 21.4C136.352 21.3363 136.436 21.1009 136.593 20.9948C136.723 20.9768 136.887 21.0262 136.92 21.0489C136.934 21.0599 136.953 21.0779 136.96 21.0846C136.964 21.089 136.971 21.0963 136.973 21.0993C136.975 21.1016 136.979 21.1055 136.98 21.1073C136.981 21.1087 136.983 21.1112 136.984 21.1123C136.985 21.1132 136.986 21.1148 136.987 21.1156C136.988 21.1174 136.989 21.1188 136.99 21.1199C136.991 21.121 136.991 21.1218 136.992 21.1224C136.992 21.1231 136.993 21.1236 136.993 21.1242C136.994 21.125 136.994 21.1257 136.995 21.1263C136.995 21.1268 136.995 21.1272 136.995 21.1275C136.996 21.1281 136.996 21.1284 136.996 21.1288C136.996 21.1289 136.996 21.1291 136.996 21.1291C136.996 21.1291 136.996 21.1291 136.996 21.1288C136.996 21.1282 136.995 21.1275 136.995 21.1263C136.993 21.124 136.991 21.121 136.989 21.1179C136.987 21.1149 136.985 21.1119 136.983 21.1096C136.982 21.1084 136.982 21.1077 136.982 21.1071C136.981 21.1068 136.981 21.1068 136.982 21.1068C136.982 21.1069 136.982 21.1071 136.982 21.1073C136.982 21.1075 136.982 21.108 136.983 21.1085C136.983 21.1089 136.983 21.1094 136.984 21.11C136.984 21.1105 136.984 21.1114 136.985 21.1124C136.985 21.113 136.986 21.1135 136.986 21.1144C136.987 21.1151 136.987 21.1162 136.988 21.1176C136.988 21.1181 136.989 21.1192 136.99 21.1199C136.99 21.1206 136.991 21.1222 136.992 21.1231C136.992 21.124 136.993 21.1263 136.994 21.1277C136.995 21.1291 136.997 21.1328 136.998 21.135C136.999 21.1376 137.003 21.1444 137.005 21.1483C137.007 21.1541 137.014 21.1697 137.018 21.1795C137.024 21.1985 137.038 21.2676 137.039 21.3178C136.994 21.4745 136.732 21.6527 136.569 21.6362C136.523 21.6164 136.464 21.5779 136.449 21.5647C136.441 21.5576 136.429 21.5456 136.425 21.5408C136.422 21.5376 136.417 21.5321 136.415 21.5296C136.413 21.5278 136.411 21.5247 136.41 21.5232C136.409 21.5222 136.407 21.52 136.406 21.5192C136.406 21.5183 136.404 21.5169 136.404 21.5161C136.403 21.5145 136.402 21.5133 136.401 21.5124C136.401 21.5114 136.4 21.5106 136.399 21.5099C136.399 21.5094 136.399 21.5089 136.398 21.5085C136.398 21.5076 136.397 21.5069 136.397 21.5064C136.396 21.506 136.396 21.5057 136.396 21.5053C136.396 21.5048 136.395 21.5044 136.395 21.5043C136.395 21.5039 136.395 21.5039 136.395 21.5043C136.396 21.5048 136.396 21.506 136.398 21.508C136.399 21.5099 136.401 21.5124 136.403 21.5154L136.988 21.1167ZM136.99 21.1192C134.128 16.8171 133.746 12.7892 135.048 9.81981C136.349 6.8556 139.367 4.85398 143.508 4.67324L143.477 3.96447C139.117 4.15461 135.828 6.27897 134.401 9.53425C132.975 12.7847 133.445 17.07 136.401 21.5129L136.99 21.1192ZM143.207 4.1092C141.092 7.00211 141.066 10.4222 140.721 13.4392C140.547 14.9669 140.295 16.399 139.689 17.68C139.088 18.9505 138.132 20.0871 136.52 21.008L136.871 21.6243C138.609 20.6311 139.666 19.3852 140.329 17.9838C140.987 16.5929 141.248 15.0638 141.424 13.5198C141.781 10.3936 141.803 7.22914 143.778 4.52868L143.207 4.1092ZM137.049 21.2992C136.835 16.8153 136.991 13.6177 137.943 11.0577C138.887 8.51809 140.629 6.56738 143.683 4.61808L143.302 4.01963C140.163 6.02356 138.293 8.08318 137.28 10.8099C136.274 13.516 136.128 16.8405 136.342 21.3331L137.049 21.2992ZM147.187 15.14C147.176 15.09 147.176 15.0464 147.183 15.0047L146.487 14.8804C146.463 15.0157 146.466 15.151 146.494 15.2858L147.187 15.14ZM148.102 15.0317C148.144 15.1196 148.144 15.1791 148.127 15.2353L148.805 15.4387C148.877 15.1961 148.85 14.9566 148.742 14.7291L148.102 15.0317ZM130.139 41.3296C130.147 41.3607 130.15 41.3869 130.148 41.4105L130.855 41.4511C130.861 41.3456 130.849 41.2417 130.821 41.1404L130.139 41.3296ZM129.19 41.2761C129.195 41.1929 129.229 41.14 129.287 41.0984C129.355 41.0501 129.463 41.0145 129.597 41.0137C129.885 41.0123 130.091 41.1578 130.139 41.3296L130.821 41.1404C130.656 40.5437 130.063 40.3018 129.593 40.3043C129.348 40.3055 129.088 40.3695 128.877 40.5201C128.657 40.6773 128.501 40.9222 128.483 41.2372L129.19 41.2761ZM128.483 41.2372C128.465 41.5813 128.628 41.8524 128.85 42.0304C129.064 42.2023 129.337 42.2956 129.598 42.3229C129.857 42.3501 130.144 42.3158 130.384 42.1851C130.638 42.0471 130.835 41.7995 130.855 41.4511L130.148 41.4105C130.144 41.4797 130.116 41.5235 130.046 41.5616C129.963 41.6071 129.828 41.6337 129.671 41.6173C129.515 41.601 129.379 41.5464 129.292 41.4769C129.214 41.4135 129.186 41.3495 129.19 41.2761L128.483 41.2372ZM137.575 56.2452C137.583 56.2763 137.586 56.3025 137.584 56.3261L138.291 56.3667C138.297 56.2612 138.285 56.1573 138.257 56.056L137.575 56.2452ZM136.626 56.1917C136.631 56.1085 136.665 56.0556 136.723 56.0139C136.791 55.9657 136.899 55.9301 137.033 55.9293C137.321 55.9279 137.527 56.0734 137.575 56.2452L138.257 56.056C138.092 55.4593 137.498 55.2174 137.029 55.2199C136.784 55.2211 136.524 55.2851 136.313 55.4357C136.092 55.5929 135.936 55.8378 135.919 56.1528L136.626 56.1917ZM135.919 56.1528C135.9 56.4969 136.064 56.768 136.285 56.946C136.499 57.1179 136.773 57.2112 137.033 57.2385C137.293 57.2657 137.579 57.2314 137.82 57.1007C138.073 56.9627 138.271 56.7151 138.291 56.3667L137.584 56.3261C137.58 56.3953 137.552 56.4391 137.482 56.4772C137.398 56.5226 137.263 56.5493 137.107 56.5329C136.951 56.5166 136.815 56.462 136.728 56.3925C136.649 56.3291 136.622 56.2651 136.626 56.1917L135.919 56.1528ZM126.027 70.9652C126.036 70.9962 126.038 71.0223 126.037 71.0459L126.743 71.0865C126.749 70.981 126.737 70.877 126.709 70.7758L126.027 70.9652ZM125.079 70.9115C125.083 70.8283 125.117 70.7754 125.176 70.7337C125.243 70.6857 125.352 70.6498 125.485 70.6491C125.774 70.6477 125.98 70.7932 126.027 70.9652L126.709 70.7758C126.545 70.1791 125.951 69.9373 125.482 69.9396C125.236 69.9409 124.977 70.0049 124.766 70.1555C124.545 70.3127 124.389 70.5576 124.372 70.8726L125.079 70.9115ZM124.372 70.8726C124.353 71.2167 124.516 71.4877 124.738 71.6658C124.952 71.8377 125.225 71.931 125.486 71.9583C125.745 71.9854 126.032 71.9512 126.272 71.8205C126.526 71.6825 126.724 71.4349 126.743 71.0865L126.037 71.0459C126.033 71.1151 126.005 71.1589 125.935 71.197C125.851 71.2424 125.716 71.269 125.56 71.2527C125.404 71.2364 125.267 71.1818 125.181 71.1122C125.102 71.0489 125.075 70.9849 125.079 70.9115L124.372 70.8726ZM90.8852 63.6815C90.8937 63.7125 90.896 63.7388 90.8948 63.7624L91.6013 63.8028C91.6073 63.6974 91.5953 63.5935 91.5671 63.4922L90.8852 63.6815ZM89.9364 63.6279C89.941 63.5446 89.975 63.4917 90.0334 63.4502C90.101 63.402 90.2096 63.3661 90.3432 63.3656C90.6315 63.364 90.8376 63.5096 90.8852 63.6815L91.5671 63.4922C91.4024 62.8956 90.8088 62.6536 90.3395 62.6561C90.0943 62.6574 89.8347 62.7212 89.6233 62.872C89.4028 63.0291 89.2471 63.2741 89.2297 63.5891L89.9364 63.6279ZM89.2297 63.5891C89.211 63.9332 89.3743 64.2042 89.596 64.3823C89.8098 64.5541 90.0833 64.6474 90.3438 64.6748C90.6032 64.7019 90.89 64.6675 91.1301 64.5369C91.3838 64.399 91.5815 64.1513 91.6013 63.8028L90.8948 63.7624C90.8907 63.8315 90.8626 63.8754 90.7925 63.9133C90.7088 63.9589 90.5738 63.9855 90.4174 63.969C90.2618 63.9529 90.1252 63.8982 90.0387 63.8287C89.9598 63.7652 89.9324 63.7014 89.9364 63.6279L89.2297 63.5891ZM65.6036 64.4273C65.6121 64.4584 65.6144 64.4844 65.6131 64.5082L66.3196 64.5487C66.3257 64.4431 66.3136 64.3394 66.2857 64.2379L65.6036 64.4273ZM64.6548 64.3736C64.6594 64.2904 64.6934 64.2375 64.7518 64.1959C64.8194 64.1478 64.928 64.112 65.0616 64.1113C65.3498 64.1098 65.556 64.2553 65.6036 64.4273L66.2857 64.2379C66.1208 63.6414 65.5271 63.3995 65.0579 63.4018C64.8126 63.403 64.5531 63.467 64.3416 63.6176C64.1212 63.7748 63.9655 64.0199 63.9481 64.3347L64.6548 64.3736ZM63.9481 64.3347C63.9294 64.6788 64.0927 64.9499 64.3144 65.1279C64.5281 65.2998 64.8017 65.3933 65.0621 65.4204C65.3215 65.4476 65.6085 65.4133 65.8485 65.2828C66.1024 65.1446 66.2998 64.897 66.3196 64.5487L65.6131 64.5082C65.6091 64.5772 65.5809 64.621 65.5109 64.6592C65.4272 64.7047 65.2923 64.7312 65.1357 64.7148C64.9802 64.6985 64.8436 64.6439 64.7571 64.5744C64.6782 64.511 64.6509 64.4472 64.6548 64.3736L63.9481 64.3347ZM31.9866 68.9235C31.9953 68.9545 31.9976 68.9808 31.9962 69.0044L32.7029 69.045C32.7089 68.9395 32.6967 68.8355 32.6687 68.7342L31.9866 68.9235ZM31.038 68.8699C31.0426 68.7867 31.0764 68.7339 31.135 68.6922C31.2026 68.6441 31.3112 68.6083 31.4447 68.6076C31.7331 68.6062 31.9392 68.7516 31.9866 68.9235L32.6687 68.7342C32.504 68.1376 31.9104 67.8958 31.4411 67.8981C31.1959 67.8994 30.9363 67.9634 30.7249 68.114C30.5044 68.2711 30.3485 68.5161 30.3313 68.8311L31.038 68.8699ZM30.3313 68.8311C30.3124 69.1752 30.4759 69.4462 30.6974 69.6243C30.9114 69.7962 31.1849 69.8894 31.4454 69.9168C31.7048 69.9439 31.9916 69.9097 32.2317 69.7789C32.4854 69.641 32.6829 69.3933 32.7029 69.045L31.9962 69.0044C31.9923 69.0735 31.9641 69.1174 31.8941 69.1555C31.8104 69.2009 31.6754 69.2275 31.5188 69.2112C31.3633 69.1949 31.2267 69.1402 31.1401 69.0707C31.0612 69.0074 31.034 68.9434 31.038 68.8699L30.3313 68.8311ZM20.2454 56.2238C20.2539 56.2546 20.2562 56.2809 20.2549 56.3045L20.9615 56.3451C20.9675 56.2396 20.9554 56.1358 20.9275 56.0344L20.2454 56.2238ZM19.2966 56.17C19.3012 56.0868 19.3352 56.034 19.3936 55.9923C19.4612 55.9442 19.5698 55.9084 19.7034 55.9077C19.9916 55.9063 20.1978 56.0517 20.2454 56.2238L20.9275 56.0344C20.7626 55.4377 20.1689 55.1959 19.6997 55.1982C19.4544 55.1995 19.1949 55.2635 18.9834 55.4141C18.763 55.5712 18.6073 55.8162 18.5899 56.1312L19.2966 56.17ZM18.5899 56.1312C18.5712 56.4753 18.7345 56.7463 18.9562 56.9244C19.1699 57.0963 19.4435 57.1896 19.7039 57.2169C19.9633 57.244 20.2503 57.2098 20.4903 57.0791C20.7442 56.9411 20.9416 56.6935 20.9615 56.3451L20.2549 56.3045C20.2509 56.3737 20.2227 56.4175 20.1527 56.4556C20.069 56.501 19.9341 56.5276 19.7775 56.5113C19.622 56.495 19.4854 56.4403 19.3989 56.3708C19.32 56.3075 19.2927 56.2435 19.2966 56.17L18.5899 56.1312ZM28.4246 40.5623C28.4333 40.5934 28.4356 40.6196 28.4342 40.6432L29.1409 40.6837C29.1469 40.5781 29.1347 40.4744 29.1067 40.3729L28.4246 40.5623ZM27.476 40.5086C27.4805 40.4254 27.5144 40.3726 27.573 40.331C27.6406 40.2828 27.7492 40.247 27.8827 40.2463C28.1711 40.2448 28.3772 40.3903 28.4246 40.5623L29.1067 40.3729C28.942 39.7764 28.3484 39.5345 27.8791 39.5368C27.6339 39.5382 27.3743 39.6021 27.1629 39.7526C26.9422 39.9098 26.7865 40.1549 26.7693 40.4698L27.476 40.5086ZM26.7693 40.4698C26.7504 40.8139 26.9139 41.0851 27.1354 41.263C27.3494 41.4348 27.6229 41.5283 27.8834 41.5554C28.1428 41.5828 28.4296 41.5483 28.6697 41.4178C28.9234 41.2796 29.1209 41.032 29.1409 40.6837L28.4342 40.6432C28.4303 40.7122 28.402 40.756 28.3321 40.7942C28.2484 40.8397 28.1134 40.8662 27.9568 40.8499C27.8013 40.8335 27.6647 40.7791 27.5781 40.7096C27.4992 40.6461 27.472 40.5822 27.476 40.5086L26.7693 40.4698ZM6.70502 15.2275C6.71359 15.2583 6.71594 15.2846 6.7146 15.3082L7.42121 15.3488C7.42722 15.2433 7.41512 15.1395 7.38711 15.038L6.70502 15.2275ZM5.75639 15.1737C5.76094 15.0905 5.79489 15.0377 5.85332 14.996C5.92093 14.9479 6.02955 14.9121 6.16307 14.9114C6.45136 14.91 6.65752 15.0554 6.70502 15.2275L7.38711 15.038C7.22231 14.4414 6.62871 14.1996 6.15946 14.2019C5.91421 14.2032 5.65462 14.2672 5.44324 14.4178C5.22269 14.5749 5.06691 14.8199 5.04969 15.1349L5.75639 15.1737ZM5.04969 15.1349C5.03086 15.479 5.19427 15.75 5.41585 15.9281C5.62974 16.1 5.90325 16.1933 6.16373 16.2206C6.42314 16.2477 6.70998 16.2135 6.95003 16.0828C7.2038 15.9448 7.40132 15.6972 7.42121 15.3488L6.7146 15.3082C6.71065 15.3774 6.68245 15.4212 6.61245 15.4593C6.52876 15.5047 6.39379 15.5313 6.23721 15.515C6.08172 15.4987 5.9451 15.444 5.85856 15.3745C5.77969 15.3112 5.75238 15.2472 5.75639 15.1737L5.04969 15.1349ZM24.1798 11.6792C22.4938 17.5879 21.3097 20.6043 17.7491 24.5912L18.2764 25.0644C21.9408 20.9613 23.1621 17.826 24.8603 11.8743L24.1798 11.6792ZM117.331 51.2418C115.169 52.916 113.986 54.8933 112.731 56.7809C111.473 58.6718 110.124 60.5059 107.617 62.0286L107.984 62.6354C110.626 61.0305 112.045 59.0908 113.32 57.1745C114.596 55.2548 115.713 53.3912 117.764 51.8034L117.331 51.2418ZM18.5149 21.6334C20.4342 17.8694 21.3343 14.957 21.1014 12.5148L20.3968 12.5822C20.6095 14.8126 19.7915 17.5711 17.8846 21.3104L18.5149 21.6334ZM21.1014 12.5148C20.9393 10.8159 20.2321 9.37124 18.9949 8.04895L18.4786 8.53423C19.6234 9.75773 20.2516 11.06 20.3968 12.5822L21.1014 12.5148ZM18.9949 8.04895C18.4344 7.44997 17.7664 6.87706 16.9934 6.31675L16.5787 6.89161C17.3238 7.4317 17.9556 7.97534 18.4786 8.53423L18.9949 8.04895ZM16.9934 6.31675C15.7459 5.41234 14.2168 4.53453 12.4094 3.6287L12.0928 4.26334C13.8828 5.16047 15.3745 6.01859 16.5787 6.89161L16.9934 6.31675ZM18.497 21.2795C16.0102 17.4162 14.4476 14.5967 13.5263 10.6932L12.8376 10.8564C13.787 14.8798 15.4027 17.7811 17.9023 21.6642L18.497 21.2795ZM13.5263 10.6932C13.2909 9.69565 13.097 8.62523 12.9407 7.44678L12.2392 7.54007C12.3981 8.73927 12.5961 9.83312 12.8376 10.8564L13.5263 10.6932ZM12.9407 7.44678C12.7982 6.3712 12.687 5.2057 12.6043 3.92314L11.898 3.9689C11.9815 5.26459 12.0941 6.44623 12.2392 7.54007L12.9407 7.44678ZM18.5347 21.3576C17.9827 19.7302 17.9138 18.5138 17.9766 17.434C18.0085 16.8861 18.0736 16.377 18.1311 15.8472C18.1881 15.3225 18.2362 14.7856 18.227 14.2124C18.1891 11.8832 17.2026 9.09774 12.5178 3.71278L11.9844 4.17926C16.6353 9.5252 17.4856 12.1496 17.5193 14.2239C17.5279 14.7516 17.4837 15.2528 17.4275 15.7706C17.3719 16.2834 17.3032 16.8213 17.27 17.3926C17.2027 18.5509 17.2793 19.8604 17.8646 21.586L18.5347 21.3576ZM117.572 51.7388C117.424 51.7785 117.302 51.6923 117.253 51.6012C117.203 51.5068 117.2 51.3434 117.331 51.2418L117.764 51.8034C117.956 51.654 117.957 51.4174 117.877 51.2666C117.799 51.1191 117.612 50.9935 117.389 51.0534L117.572 51.7388ZM146.494 15.2858C146.615 15.8625 147.148 16.1397 147.602 16.1764C148.056 16.2131 148.631 16.0212 148.805 15.4387L148.127 15.2353C148.085 15.3754 147.925 15.4907 147.659 15.4692C147.393 15.4478 147.221 15.3016 147.187 15.14L146.494 15.2858ZM77.7566 72.616C77.7541 72.6456 77.7479 72.6575 77.7472 72.6587C77.7467 72.6594 77.7484 72.6568 77.7518 72.6545C77.7574 72.6507 77.7472 72.66 77.7152 72.6539C77.6842 72.6479 77.6555 72.6309 77.6375 72.6092C77.6235 72.5924 77.6086 72.5647 77.6131 72.5113L76.9078 72.4517C76.8657 72.9535 77.221 73.2811 77.5816 73.3507C77.762 73.3854 77.9701 73.3624 78.1471 73.243C78.3329 73.1176 78.4422 72.914 78.4618 72.6742L77.7566 72.616ZM78.4645 72.6387C78.4974 72.1366 78.1664 71.7847 77.7766 71.7231C77.586 71.6929 77.3761 71.7325 77.2045 71.8662C77.0288 72.003 76.9279 72.2112 76.9078 72.4517L77.6131 72.5113C77.6164 72.4716 77.6249 72.4494 77.63 72.439C77.635 72.429 77.6387 72.4264 77.6389 72.4264C77.6393 72.426 77.6407 72.425 77.6446 72.4241C77.6488 72.423 77.6562 72.4223 77.6663 72.4239C77.6872 72.4273 77.7106 72.4391 77.7277 72.4606C77.7422 72.4785 77.7633 72.5165 77.7583 72.5922L78.4645 72.6387ZM8.53013 30.7169C8.90539 31.0964 9.22554 31.5118 9.61249 31.953C9.98605 32.379 10.4029 32.804 10.9182 33.1144L11.2826 32.5062C10.863 32.2534 10.5043 31.8953 10.144 31.4845C9.79717 31.0892 9.42531 30.6145 9.03282 30.2176L8.53013 30.7169ZM47.1584 61.3971C48.882 61.7212 50.329 62.8849 51.2972 64.4076L51.894 64.0263C50.8476 62.3807 49.2491 61.0683 47.2888 60.6999L47.1584 61.3971ZM145.967 30.8889C147.437 29.4159 149.306 28.4244 151.238 27.498L150.932 26.858C148.996 27.7864 147.029 28.8211 145.466 30.3871L145.967 30.8889ZM57.4923 57.8496C56.7325 57.3366 55.8145 57.098 55.0354 56.8446L54.8169 57.5193C55.6592 57.7935 56.443 57.9964 57.097 58.4379L57.4923 57.8496ZM147.183 15.0047C147.206 14.8775 147.325 14.7624 147.57 14.7566C147.816 14.7505 148.026 14.8685 148.102 15.0317L148.742 14.7291C148.513 14.2415 147.992 14.0366 147.553 14.0473C147.112 14.0579 146.59 14.2993 146.487 14.8804L147.183 15.0047ZM49.2767 73.8242C45.8078 75.6226 41.9993 76.9894 38.2416 78.1276L38.4465 78.8067C42.2241 77.6625 46.0785 76.281 49.6018 74.4544L49.2767 73.8242ZM77.4331 67.7585C77.6037 67.6883 77.7932 67.683 77.9648 67.7434L78.1991 67.0739C77.8615 66.9552 77.4929 66.9669 77.1643 67.1023L77.4331 67.7585Z" fill="#0AABC1"/>
<path d="M62.2067 39.0085C62.1877 39.174 62.1736 39.3349 62.1642 39.491C62.1594 39.647 62.1571 39.7653 62.1571 39.8457C62.1571 39.9308 62.1594 40.0137 62.1642 40.094C62.169 40.1697 62.1736 40.2336 62.1784 40.2856H62.0156C61.9873 40.0066 61.9471 39.7866 61.8952 39.6258C61.8434 39.4603 61.7537 39.3443 61.6263 39.2781C61.5037 39.2072 61.3172 39.1717 61.0672 39.1717H60.4797C60.3192 39.1717 60.1966 39.1859 60.1117 39.2143C60.0315 39.2378 59.9772 39.2923 59.9489 39.3774C59.9206 39.4578 59.9064 39.5855 59.9064 39.7606V43.2796C59.9064 43.4499 59.9206 43.5776 59.9489 43.6627C59.9772 43.7478 60.0315 43.8046 60.1117 43.833C60.1966 43.8566 60.3192 43.8685 60.4797 43.8685H60.9964C61.2936 43.8685 61.5178 43.8282 61.6688 43.7478C61.8245 43.6675 61.9354 43.5373 62.0014 43.3576C62.0722 43.1732 62.124 42.9248 62.1571 42.6127H62.3199C62.3058 42.7404 62.2987 42.9107 62.2987 43.1235C62.2987 43.2134 62.301 43.3434 62.3057 43.5137C62.3151 43.6792 62.3293 43.852 62.3482 44.0316C62.1076 44.0222 61.8363 44.0174 61.5343 44.0174C61.2323 44.0127 60.9633 44.0104 60.7274 44.0104C60.6236 44.0104 60.4891 44.0104 60.324 44.0104C60.1635 44.0104 59.9891 44.0127 59.8003 44.0174C59.6115 44.0174 59.4204 44.0197 59.227 44.0245C59.0336 44.0245 58.8496 44.0268 58.6749 44.0316V43.8897C58.8354 43.8803 58.9557 43.8614 59.0359 43.833C59.1208 43.8046 59.1774 43.7478 59.2057 43.6627C59.2341 43.5776 59.2482 43.4499 59.2482 43.2796V39.7606C59.2482 39.5855 59.2341 39.4578 59.2057 39.3774C59.1774 39.2923 59.1208 39.2355 59.0359 39.2072C58.9557 39.174 58.8354 39.1552 58.6749 39.1504V39.0085C58.8496 39.0133 59.0336 39.0179 59.227 39.0227C59.4204 39.0227 59.6115 39.025 59.8003 39.0298C59.9891 39.0298 60.1635 39.0298 60.324 39.0298C60.4891 39.0298 60.6236 39.0298 60.7274 39.0298C60.9445 39.0298 61.1898 39.0298 61.4635 39.0298C61.7418 39.025 61.9896 39.0179 62.2067 39.0085ZM60.9893 41.4349C60.9893 41.4349 60.9893 41.4585 60.9893 41.5059C60.9893 41.5532 60.9893 41.5768 60.9893 41.5768H59.6941C59.6941 41.5768 59.6941 41.5532 59.6941 41.5059C59.6941 41.4585 59.6941 41.4349 59.6941 41.4349H60.9893ZM61.1946 40.4984C61.1756 40.768 61.1662 40.9738 61.1662 41.1157C61.171 41.2576 61.1733 41.3876 61.1733 41.5059C61.1733 41.6242 61.1756 41.7542 61.1804 41.8961C61.1852 42.038 61.1969 42.2437 61.2158 42.5133H61.053C61.0341 42.362 61.0105 42.2154 60.9822 42.0735C60.9587 41.9268 60.9021 41.8087 60.8124 41.7187C60.7274 41.6242 60.5811 41.5768 60.3736 41.5768V41.4349C60.5293 41.4349 60.6473 41.4042 60.7274 41.3427C60.8124 41.2765 60.8738 41.1937 60.9115 41.0944C60.9491 40.9951 60.9752 40.8934 60.9893 40.7893C61.0035 40.6806 61.0176 40.5836 61.0318 40.4984H61.1946ZM67.5742 39.0085V39.1504C67.4137 39.1552 67.2911 39.1788 67.2061 39.2214C67.126 39.2639 67.0716 39.3326 67.0433 39.4271C67.015 39.5216 67.0009 39.6564 67.0009 39.8315V41.967C67.0009 42.2982 66.9796 42.5866 66.9372 42.8326C66.8947 43.0786 66.8192 43.2915 66.7107 43.4711C66.5927 43.6698 66.4205 43.8307 66.194 43.9536C65.9675 44.0719 65.708 44.131 65.4155 44.131C65.189 44.131 64.9719 44.1026 64.7643 44.0458C64.5614 43.9939 64.3821 43.8945 64.2264 43.7478C64.0897 43.6153 63.981 43.4759 63.9009 43.3292C63.8253 43.1826 63.7735 43.0029 63.7452 42.79C63.7169 42.5772 63.7027 42.3099 63.7027 41.9883V39.7606C63.7027 39.5855 63.6885 39.4578 63.6602 39.3774C63.6319 39.2923 63.5753 39.2355 63.4904 39.2072C63.4102 39.174 63.2899 39.1552 63.1294 39.1504V39.0085C63.2285 39.0133 63.3582 39.0179 63.5187 39.0227C63.6792 39.0275 63.8513 39.0298 64.0353 39.0298C64.2004 39.0298 64.3632 39.0275 64.5237 39.0227C64.6888 39.0179 64.8257 39.0133 64.9342 39.0085V39.1504C64.7737 39.1552 64.6511 39.174 64.5662 39.2072C64.486 39.2355 64.4317 39.2923 64.4034 39.3774C64.3751 39.4578 64.3609 39.5855 64.3609 39.7606V42.1089C64.3609 42.3502 64.3728 42.5795 64.3963 42.7971C64.4198 43.01 64.4671 43.1992 64.5379 43.3647C64.6134 43.5256 64.7267 43.6533 64.8776 43.7478C65.0285 43.8378 65.2292 43.8826 65.4792 43.8826C65.8378 43.8826 66.1139 43.8046 66.3073 43.6485C66.5054 43.4876 66.6422 43.2677 66.7178 42.9887C66.7979 42.7097 66.8381 42.395 66.8381 42.0451V39.8315C66.8381 39.6564 66.8169 39.5216 66.7744 39.4271C66.7367 39.3326 66.6705 39.2639 66.5762 39.2214C66.4819 39.1788 66.3545 39.1552 66.194 39.1504V39.0085C66.279 39.0133 66.3899 39.0179 66.5267 39.0227C66.6682 39.0275 66.7979 39.0298 66.9159 39.0298C67.0386 39.0298 67.1589 39.0275 67.2769 39.0227C67.3995 39.0179 67.4986 39.0133 67.5742 39.0085ZM68.3078 39.0085C68.4068 39.0133 68.5365 39.0179 68.697 39.0227C68.8573 39.0275 69.0155 39.0298 69.1712 39.0298C69.3929 39.0298 69.6053 39.0275 69.8082 39.0227C70.011 39.0179 70.155 39.0156 70.2399 39.0156C70.6221 39.0156 70.9382 39.0701 71.1883 39.1788C71.4431 39.2875 71.6318 39.4365 71.7546 39.6258C71.882 39.8102 71.9457 40.0183 71.9457 40.2501C71.9457 40.392 71.9173 40.5433 71.8607 40.7042C71.8041 40.865 71.705 41.0163 71.5635 41.1582C71.4265 41.3001 71.2379 41.4184 70.9972 41.513C70.7566 41.6029 70.4523 41.6478 70.0842 41.6478H69.4048V41.5059H70.0135C70.3484 41.5059 70.6032 41.4539 70.7778 41.3498C70.9571 41.2411 71.0774 41.0992 71.1388 40.9241C71.2048 40.7444 71.2379 40.5458 71.2379 40.3281C71.2379 39.9544 71.1482 39.666 70.9689 39.4626C70.7943 39.2545 70.4923 39.1504 70.063 39.1504C69.8459 39.1504 69.7043 39.1907 69.6383 39.271C69.5722 39.3514 69.5393 39.5145 69.5393 39.7606V43.2796C69.5393 43.4499 69.5534 43.5776 69.5817 43.6627C69.61 43.7478 69.6642 43.8046 69.7445 43.833C69.8294 43.8614 69.9521 43.8803 70.1125 43.8897V44.0316C70.0039 44.0222 69.8671 44.0174 69.702 44.0174C69.5416 44.0127 69.3788 44.0104 69.2137 44.0104C69.0297 44.0104 68.8573 44.0127 68.697 44.0174C68.5365 44.0174 68.4068 44.0222 68.3078 44.0316V43.8897C68.4681 43.8803 68.5884 43.8614 68.6687 43.833C68.7536 43.8046 68.8103 43.7478 68.8386 43.6627C68.8669 43.5776 68.881 43.4499 68.881 43.2796V39.7606C68.881 39.5855 68.8669 39.4578 68.8386 39.3774C68.8103 39.2923 68.7536 39.2355 68.6687 39.2072C68.5884 39.174 68.4681 39.1552 68.3078 39.1504V39.0085ZM69.4331 41.5272C69.6879 41.5366 69.8884 41.5484 70.0347 41.5626C70.1808 41.572 70.2989 41.5816 70.3886 41.591C70.4829 41.6004 70.5726 41.6123 70.6575 41.6265C70.9735 41.6785 71.2 41.7755 71.337 41.9174C71.4785 42.0545 71.5822 42.2698 71.6484 42.563L71.8253 43.2867C71.8724 43.4947 71.9196 43.6462 71.9669 43.7407C72.0187 43.8307 72.0966 43.8732 72.2004 43.8685C72.2806 43.8637 72.3466 43.8378 72.3986 43.7904C72.4552 43.7431 72.5142 43.6792 72.5756 43.5988L72.6817 43.6769C72.5826 43.8236 72.4788 43.9371 72.3703 44.0174C72.2664 44.0932 72.1178 44.131 71.9244 44.131C71.7498 44.131 71.5964 44.079 71.4644 43.9749C71.3322 43.8708 71.2331 43.6675 71.1671 43.3647L71.0114 42.6552C70.9689 42.4518 70.9194 42.2769 70.8628 42.1302C70.8108 41.9789 70.7354 41.8606 70.6363 41.7755C70.5418 41.6903 70.4003 41.6478 70.2116 41.6478H69.4473L69.4331 41.5272ZM75.4733 38.9092C75.9217 38.9092 76.3133 39.0108 76.6482 39.2143C76.9879 39.4177 77.2498 39.7109 77.4338 40.094C77.6226 40.4723 77.7169 40.9335 77.7169 41.4775C77.7169 42.0073 77.6203 42.4708 77.4267 42.8681C77.2381 43.2654 76.9738 43.5753 76.634 43.7975C76.2943 44.0197 75.9051 44.131 75.4662 44.131C75.0181 44.131 74.624 44.0293 74.2843 43.8259C73.9493 43.6224 73.6875 43.3292 73.4987 42.9461C73.3146 42.563 73.2226 42.1018 73.2226 41.5626C73.2226 41.0328 73.3194 40.5694 73.5128 40.1721C73.7064 39.7747 73.9706 39.4649 74.3055 39.2426C74.6452 39.0204 75.0345 38.9092 75.4733 38.9092ZM75.445 39.0369C75.1384 39.0369 74.8717 39.1433 74.6452 39.3562C74.4188 39.569 74.2418 39.8622 74.1144 40.2359C73.9918 40.6096 73.9304 41.0424 73.9304 41.5343C73.9304 42.0357 73.9989 42.4731 74.1356 42.8468C74.2772 43.2157 74.466 43.5018 74.7019 43.7053C74.9425 43.9039 75.2068 44.0033 75.4945 44.0033C75.8014 44.0033 76.0678 43.8968 76.2943 43.684C76.5208 43.4711 76.6954 43.1779 76.8181 42.8042C76.9455 42.4259 77.0092 41.9931 77.0092 41.5059C77.0092 40.9998 76.9384 40.5623 76.7968 40.1933C76.6601 39.8244 76.4737 39.5406 76.2377 39.342C76.0018 39.1385 75.7377 39.0369 75.445 39.0369ZM78.5832 39.0085C78.6823 39.0133 78.8122 39.0179 78.9725 39.0227C79.133 39.0275 79.291 39.0298 79.4467 39.0298C79.6686 39.0298 79.8809 39.0275 80.0837 39.0227C80.2866 39.0179 80.4305 39.0156 80.5154 39.0156C81.0864 39.0156 81.5134 39.1456 81.7965 39.4058C82.0796 39.666 82.2211 40.0018 82.2211 40.4133C82.2211 40.5836 82.1928 40.7632 82.1362 40.9525C82.0796 41.137 81.9805 41.3095 81.8389 41.4704C81.7022 41.6265 81.5134 41.7542 81.2727 41.8535C81.0321 41.9529 80.7277 42.0025 80.3597 42.0025H79.6803V41.8606H80.2889C80.6241 41.8606 80.8789 41.7968 81.0533 41.6691C81.2327 41.5414 81.3531 41.3734 81.4143 41.1653C81.4805 40.9573 81.5134 40.7325 81.5134 40.4913C81.5134 40.042 81.4238 39.7061 81.2444 39.4839C81.0699 39.2616 80.7679 39.1504 80.3385 39.1504C80.1215 39.1504 79.98 39.1907 79.9138 39.271C79.8478 39.3514 79.8147 39.5145 79.8147 39.7606V43.2796C79.8147 43.4499 79.8314 43.5776 79.8643 43.6627C79.9021 43.7478 79.9729 43.8046 80.0766 43.833C80.1805 43.8614 80.3314 43.8803 80.5296 43.8897V44.0316C80.407 44.0222 80.2512 44.0174 80.0625 44.0174C79.8738 44.0127 79.6827 44.0104 79.4892 44.0104C79.3051 44.0104 79.133 44.0127 78.9725 44.0174C78.8122 44.0174 78.6823 44.0222 78.5832 44.0316V43.8897C78.7437 43.8803 78.864 43.8614 78.9442 43.833C79.0291 43.8046 79.0857 43.7478 79.1141 43.6627C79.1424 43.5776 79.1565 43.4499 79.1565 43.2796V39.7606C79.1565 39.5855 79.1424 39.4578 79.1141 39.3774C79.0857 39.2923 79.0291 39.2355 78.9442 39.2072C78.864 39.174 78.7437 39.1552 78.5832 39.1504V39.0085ZM86.5029 39.0085C86.484 39.174 86.4698 39.3349 86.4604 39.491C86.4557 39.647 86.4534 39.7653 86.4534 39.8457C86.4534 39.9308 86.4557 40.0137 86.4604 40.094C86.465 40.1697 86.4698 40.2336 86.4746 40.2856H86.3118C86.2835 40.0066 86.2433 39.7866 86.1915 39.6258C86.1395 39.4603 86.0499 39.3443 85.9226 39.2781C85.7998 39.2072 85.6134 39.1717 85.3634 39.1717H84.776C84.6155 39.1717 84.4929 39.1859 84.4079 39.2143C84.3276 39.2378 84.2735 39.2923 84.2452 39.3774C84.2168 39.4578 84.2027 39.5855 84.2027 39.7606V43.2796C84.2027 43.4499 84.2168 43.5776 84.2452 43.6627C84.2735 43.7478 84.3276 43.8046 84.4079 43.833C84.4929 43.8566 84.6155 43.8685 84.776 43.8685H85.2926C85.5899 43.8685 85.8139 43.8282 85.965 43.7478C86.1207 43.6675 86.2315 43.5373 86.2977 43.3576C86.3684 43.1732 86.4203 42.9248 86.4534 42.6127H86.6162C86.602 42.7404 86.5949 42.9107 86.5949 43.1235C86.5949 43.2134 86.5972 43.3434 86.602 43.5137C86.6114 43.6792 86.6255 43.852 86.6445 44.0316C86.4038 44.0222 86.1324 44.0174 85.8305 44.0174C85.5285 44.0127 85.2596 44.0104 85.0237 44.0104C84.9198 44.0104 84.7854 44.0104 84.6203 44.0104C84.4598 44.0104 84.2851 44.0127 84.0965 44.0174C83.9077 44.0174 83.7166 44.0197 83.5232 44.0245C83.3297 44.0245 83.1456 44.0268 82.9712 44.0316V43.8897C83.1315 43.8803 83.2518 43.8614 83.3321 43.833C83.4171 43.8046 83.4737 43.7478 83.502 43.6627C83.5303 43.5776 83.5445 43.4499 83.5445 43.2796V39.7606C83.5445 39.5855 83.5303 39.4578 83.502 39.3774C83.4737 39.2923 83.4171 39.2355 83.3321 39.2072C83.2518 39.174 83.1315 39.1552 82.9712 39.1504V39.0085C83.1456 39.0133 83.3297 39.0179 83.5232 39.0227C83.7166 39.0227 83.9077 39.025 84.0965 39.0298C84.2851 39.0298 84.4598 39.0298 84.6203 39.0298C84.7854 39.0298 84.9198 39.0298 85.0237 39.0298C85.2406 39.0298 85.486 39.0298 85.7598 39.0298C86.0381 39.025 86.2858 39.0179 86.5029 39.0085ZM85.2856 41.4349C85.2856 41.4349 85.2856 41.4585 85.2856 41.5059C85.2856 41.5532 85.2856 41.5768 85.2856 41.5768H83.9904C83.9904 41.5768 83.9904 41.5532 83.9904 41.5059C83.9904 41.4585 83.9904 41.4349 83.9904 41.4349H85.2856ZM85.4908 40.4984C85.4719 40.768 85.4625 40.9738 85.4625 41.1157C85.4671 41.2576 85.4696 41.3876 85.4696 41.5059C85.4696 41.6242 85.4719 41.7542 85.4767 41.8961C85.4813 42.038 85.4931 42.2437 85.512 42.5133H85.3493C85.3303 42.362 85.3068 42.2154 85.2785 42.0735C85.2548 41.9268 85.1982 41.8087 85.1086 41.7187C85.0237 41.6242 84.8774 41.5768 84.6698 41.5768V41.4349C84.8255 41.4349 84.9434 41.4042 85.0237 41.3427C85.1086 41.2765 85.1698 41.1937 85.2077 41.0944C85.2454 40.9951 85.2714 40.8934 85.2856 40.7893C85.2997 40.6806 85.3139 40.5836 85.328 40.4984H85.4908ZM89.5206 38.973L91.2476 43.4357C91.3184 43.6153 91.3985 43.736 91.4882 43.7975C91.5778 43.8543 91.6604 43.885 91.7359 43.8897V44.0316C91.6414 44.0222 91.5259 44.0174 91.3891 44.0174C91.2522 44.0127 91.1154 44.0104 90.9786 44.0104C90.7946 44.0104 90.6223 44.0127 90.462 44.0174C90.3015 44.0174 90.1718 44.0222 90.0727 44.0316V43.8897C90.3133 43.8803 90.4666 43.8401 90.5327 43.7691C90.5987 43.6934 90.5846 43.535 90.4903 43.2938L89.1738 39.7677L89.2871 39.6754L88.0556 42.8823C87.98 43.0715 87.9352 43.2322 87.9211 43.3647C87.9069 43.4924 87.9186 43.5941 87.9565 43.6698C87.9989 43.7455 88.0672 43.7998 88.1617 43.833C88.2608 43.8661 88.3834 43.885 88.5298 43.8897V44.0316C88.3976 44.0222 88.2583 44.0174 88.1122 44.0174C87.9706 44.0127 87.8385 44.0104 87.7158 44.0104C87.5978 44.0104 87.4964 44.0127 87.4115 44.0174C87.3312 44.0174 87.2558 44.0222 87.185 44.0316V43.8897C87.2793 43.8661 87.3761 43.8117 87.4752 43.7266C87.5743 43.6366 87.6638 43.4853 87.7442 43.2725L89.4074 38.973C89.4261 38.973 89.4451 38.973 89.464 38.973C89.4828 38.973 89.5017 38.973 89.5206 38.973ZM90.3841 41.9883V42.1302H88.275L88.3457 41.9883H90.3841ZM96.5441 39.0085V39.1504C96.3836 39.1552 96.261 39.1788 96.1761 39.2214C96.0957 39.2639 96.0416 39.3326 96.0133 39.4271C95.985 39.5216 95.9708 39.6564 95.9708 39.8315V44.0671C95.9425 44.0671 95.9142 44.0671 95.8859 44.0671C95.8622 44.0671 95.8363 44.0671 95.808 44.0671L92.8354 39.4626V43.2086C92.8354 43.3789 92.8496 43.5137 92.8779 43.613C92.9108 43.7076 92.9722 43.7762 93.0619 43.8188C93.1562 43.8566 93.2955 43.8803 93.4795 43.8897V44.0316C93.3946 44.0222 93.2836 44.0174 93.1469 44.0174C93.0099 44.0127 92.8802 44.0104 92.7576 44.0104C92.6396 44.0104 92.5192 44.0127 92.3966 44.0174C92.2786 44.0174 92.1795 44.0222 92.0994 44.0316V43.8897C92.2597 43.8803 92.38 43.8566 92.4603 43.8188C92.5453 43.7762 92.6019 43.7076 92.6302 43.613C92.6585 43.5137 92.6727 43.3789 92.6727 43.2086V39.7606C92.6727 39.5855 92.6585 39.4578 92.6302 39.3774C92.6019 39.2923 92.5453 39.2355 92.4603 39.2072C92.38 39.174 92.2597 39.1552 92.0994 39.1504V39.0085C92.1795 39.0133 92.2786 39.0179 92.3966 39.0227C92.5192 39.0275 92.6396 39.0298 92.7576 39.0298C92.8613 39.0298 92.9604 39.0275 93.0548 39.0227C93.1492 39.0179 93.2341 39.0133 93.3096 39.0085L95.808 42.8681V39.8315C95.808 39.6564 95.7914 39.5216 95.7585 39.4271C95.7302 39.3326 95.6688 39.2639 95.5745 39.2214C95.4848 39.1788 95.348 39.1552 95.164 39.1504V39.0085C95.2489 39.0133 95.3597 39.0179 95.4966 39.0227C95.6382 39.0275 95.7679 39.0298 95.8859 39.0298C96.0085 39.0298 96.1288 39.0275 96.2469 39.0227C96.3695 39.0179 96.4686 39.0133 96.5441 39.0085ZM58.3391 48.3737L60.066 52.8363C60.1368 53.016 60.217 53.1366 60.3067 53.1981C60.3964 53.2549 60.4788 53.2856 60.5544 53.2904V53.4323C60.4601 53.4229 60.3444 53.4181 60.2076 53.4181C60.0708 53.4133 59.9339 53.411 59.7971 53.411C59.6131 53.411 59.4409 53.4133 59.2804 53.4181C59.1199 53.4181 58.9902 53.4229 58.8911 53.4323V53.2904C59.1318 53.281 59.2852 53.2407 59.3512 53.1697C59.4172 53.094 59.403 52.9356 59.3087 52.6944L57.9923 49.1683L58.1055 49.076L56.874 52.2829C56.7985 52.4722 56.7537 52.6328 56.7396 52.7653C56.7254 52.8931 56.7372 52.9947 56.7749 53.0704C56.8174 53.1462 56.8859 53.2004 56.9802 53.2336C57.0793 53.2668 57.2019 53.2856 57.3482 53.2904V53.4323C57.216 53.4229 57.077 53.4181 56.9306 53.4181C56.7891 53.4133 56.6569 53.411 56.5343 53.411C56.4163 53.411 56.3149 53.4133 56.23 53.4181C56.1498 53.4181 56.0743 53.4229 56.0035 53.4323V53.2904C56.0978 53.2668 56.1946 53.2123 56.2937 53.1272C56.3927 53.0373 56.4825 52.886 56.5626 52.6731L58.2259 48.3737C58.2448 48.3737 58.2635 48.3737 58.2825 48.3737C58.3014 48.3737 58.3202 48.3737 58.3391 48.3737ZM59.2026 51.389V51.5308H57.0934L57.1642 51.389H59.2026ZM62.5706 48.3311C62.8065 48.3311 62.9859 48.3595 63.1085 48.4162C63.2312 48.4682 63.3398 48.5274 63.4341 48.5936C63.4907 48.6268 63.5355 48.6527 63.5686 48.6716C63.6063 48.6858 63.6416 48.6929 63.6747 48.6929C63.722 48.6929 63.7549 48.6669 63.7738 48.6149C63.7974 48.5629 63.8163 48.4849 63.8304 48.3808H63.9932C63.9885 48.4611 63.9814 48.5581 63.972 48.6716C63.9672 48.7804 63.9626 48.9271 63.9578 49.1115C63.9578 49.2912 63.9578 49.5301 63.9578 49.8281H63.7951C63.7809 49.6011 63.7314 49.3834 63.6464 49.1754C63.5615 48.9673 63.4364 48.797 63.2713 48.6645C63.1108 48.532 62.8985 48.4659 62.6343 48.4659C62.3843 48.4659 62.1766 48.5416 62.0115 48.6929C61.851 48.8442 61.7709 49.0429 61.7709 49.2889C61.7709 49.5017 61.8252 49.6814 61.9336 49.8281C62.0421 49.97 62.1861 50.1 62.3654 50.2183C62.5494 50.3318 62.7476 50.4547 62.9599 50.5872C63.2053 50.7385 63.4222 50.89 63.611 51.0413C63.8044 51.188 63.9555 51.3512 64.064 51.5308C64.1773 51.7105 64.2339 51.9282 64.2339 52.1836C64.2339 52.4863 64.1654 52.737 64.0286 52.9356C63.8918 53.1343 63.7101 53.2833 63.4836 53.3826C63.2572 53.4819 63.0071 53.5316 62.7334 53.5316C62.4834 53.5316 62.2852 53.5032 62.1389 53.4464C61.9926 53.3897 61.8676 53.3306 61.7638 53.2691C61.6599 53.2029 61.5798 53.1697 61.5231 53.1697C61.4759 53.1697 61.4405 53.1958 61.417 53.2478C61.398 53.2998 61.3816 53.3778 61.3674 53.4819H61.2046C61.214 53.3826 61.2188 53.2668 61.2188 53.1343C61.2236 52.9972 61.2259 52.8198 61.2259 52.6022C61.2307 52.3845 61.233 52.1103 61.233 51.7792H61.3957C61.4147 52.063 61.4665 52.3278 61.5514 52.5738C61.6412 52.8198 61.7756 53.0185 61.9549 53.1697C62.1389 53.3164 62.3818 53.3897 62.6839 53.3897C62.8396 53.3897 62.9859 53.359 63.1227 53.2975C63.2642 53.2313 63.3798 53.1295 63.4695 52.9924C63.5592 52.8505 63.604 52.6683 63.604 52.4461C63.604 52.2522 63.5567 52.0842 63.4624 51.9423C63.3727 51.7957 63.2453 51.6609 63.0802 51.5379C62.9151 51.4102 62.7216 51.2802 62.4999 51.1477C62.2781 51.0106 62.0704 50.871 61.877 50.7291C61.6836 50.5872 61.5279 50.4241 61.4099 50.2396C61.2967 50.0503 61.24 49.8233 61.24 49.5585C61.24 49.2795 61.3014 49.05 61.4241 48.8703C61.5514 48.6858 61.7165 48.551 61.9195 48.4659C62.1224 48.376 62.3394 48.3311 62.5706 48.3311ZM66.6406 48.3311C66.8765 48.3311 67.0557 48.3595 67.1785 48.4162C67.3011 48.4682 67.4096 48.5274 67.5041 48.5936C67.5607 48.6268 67.6055 48.6527 67.6386 48.6716C67.6763 48.6858 67.7116 48.6929 67.7447 48.6929C67.7918 48.6929 67.8249 48.6669 67.8438 48.6149C67.8673 48.5629 67.8863 48.4849 67.9004 48.3808H68.0632C68.0584 48.4611 68.0514 48.5581 68.042 48.6716C68.0372 48.7804 68.0324 48.9271 68.0278 49.1115C68.0278 49.2912 68.0278 49.5301 68.0278 49.8281H67.865C67.8509 49.6011 67.8013 49.3834 67.7164 49.1754C67.6315 48.9673 67.5064 48.797 67.3413 48.6645C67.1808 48.532 66.9685 48.4659 66.7043 48.4659C66.4541 48.4659 66.2466 48.5416 66.0815 48.6929C65.921 48.8442 65.8408 49.0429 65.8408 49.2889C65.8408 49.5017 65.895 49.6814 66.0036 49.8281C66.1121 49.97 66.256 50.1 66.4354 50.2183C66.6194 50.3318 66.8176 50.4547 67.0299 50.5872C67.2751 50.7385 67.4922 50.89 67.681 51.0413C67.8744 51.188 68.0254 51.3512 68.134 51.5308C68.2472 51.7105 68.3039 51.9282 68.3039 52.1836C68.3039 52.4863 68.2354 52.737 68.0986 52.9356C67.9617 53.1343 67.7801 53.2833 67.5536 53.3826C67.3271 53.4819 67.077 53.5316 66.8034 53.5316C66.5532 53.5316 66.355 53.5032 66.2089 53.4464C66.0626 53.3897 65.9375 53.3306 65.8338 53.2691C65.7299 53.2029 65.6498 53.1697 65.5931 53.1697C65.5459 53.1697 65.5105 53.1958 65.487 53.2478C65.468 53.2998 65.4516 53.3778 65.4374 53.4819H65.2746C65.284 53.3826 65.2888 53.2668 65.2888 53.1343C65.2934 52.9972 65.2959 52.8198 65.2959 52.6022C65.3005 52.3845 65.3029 52.1103 65.3029 51.7792H65.4657C65.4845 52.063 65.5365 52.3278 65.6214 52.5738C65.711 52.8198 65.8454 53.0185 66.0249 53.1697C66.2089 53.3164 66.4518 53.3897 66.7539 53.3897C66.9096 53.3897 67.0557 53.359 67.1927 53.2975C67.3342 53.2313 67.4498 53.1295 67.5395 52.9924C67.629 52.8505 67.674 52.6683 67.674 52.4461C67.674 52.2522 67.6267 52.0842 67.5324 51.9423C67.4427 51.7957 67.3153 51.6609 67.1502 51.5379C66.9849 51.4102 66.7915 51.2802 66.5698 51.1477C66.348 51.0106 66.1404 50.871 65.947 50.7291C65.7534 50.5872 65.5977 50.4241 65.4799 50.2396C65.3666 50.0503 65.31 49.8233 65.31 49.5585C65.31 49.2795 65.3712 49.05 65.494 48.8703C65.6214 48.6858 65.7865 48.551 65.9895 48.4659C66.1922 48.376 66.4094 48.3311 66.6406 48.3311ZM71.0006 48.4091V48.551C70.8403 48.5558 70.7175 48.5746 70.6326 48.6078C70.5524 48.6362 70.4981 48.6929 70.4698 48.7781C70.4415 48.8584 70.4273 48.9861 70.4273 49.1612V52.6802C70.4273 52.8505 70.4415 52.9782 70.4698 53.0633C70.4981 53.1485 70.5524 53.2052 70.6326 53.2336C70.7175 53.262 70.8403 53.281 71.0006 53.2904V53.4323C70.8921 53.4229 70.7554 53.4181 70.5901 53.4181C70.4298 53.4133 70.267 53.411 70.1018 53.411C69.9177 53.411 69.7456 53.4133 69.5851 53.4181C69.4248 53.4181 69.2949 53.4229 69.1958 53.4323V53.2904C69.3563 53.281 69.4766 53.262 69.5568 53.2336C69.6417 53.2052 69.6983 53.1485 69.7266 53.0633C69.7549 52.9782 69.7691 52.8505 69.7691 52.6802V49.1612C69.7691 48.9861 69.7549 48.8584 69.7266 48.7781C69.6983 48.6929 69.6417 48.6362 69.5568 48.6078C69.4766 48.5746 69.3563 48.5558 69.1958 48.551V48.4091C69.2949 48.4139 69.4248 48.4185 69.5851 48.4233C69.7456 48.4281 69.9177 48.4304 70.1018 48.4304C70.267 48.4304 70.4298 48.4281 70.5901 48.4233C70.7554 48.4185 70.8921 48.4139 71.0006 48.4091ZM73.3566 48.3311C73.5924 48.3311 73.7719 48.3595 73.8945 48.4162C74.0171 48.4682 74.1257 48.5274 74.2201 48.5936C74.2767 48.6268 74.3214 48.6527 74.3545 48.6716C74.3922 48.6858 74.4276 48.6929 74.4607 48.6929C74.5079 48.6929 74.5408 48.6669 74.5598 48.6149C74.5833 48.5629 74.6022 48.4849 74.6164 48.3808H74.7792C74.7744 48.4611 74.7673 48.5581 74.7579 48.6716C74.7532 48.7804 74.7486 48.9271 74.7438 49.1115C74.7438 49.2912 74.7438 49.5301 74.7438 49.8281H74.581C74.5669 49.6011 74.5173 49.3834 74.4324 49.1754C74.3474 48.9673 74.2223 48.797 74.0573 48.6645C73.8968 48.532 73.6844 48.4659 73.4203 48.4659C73.1703 48.4659 72.9625 48.5416 72.7974 48.6929C72.637 48.8442 72.5568 49.0429 72.5568 49.2889C72.5568 49.5017 72.6111 49.6814 72.7196 49.8281C72.8281 49.97 72.9721 50.1 73.1513 50.2183C73.3353 50.3318 73.5335 50.4547 73.7458 50.5872C73.9913 50.7385 74.2082 50.89 74.397 51.0413C74.5904 51.188 74.7415 51.3512 74.85 51.5308C74.9632 51.7105 75.0198 51.9282 75.0198 52.1836C75.0198 52.4863 74.9513 52.737 74.8146 52.9356C74.6778 53.1343 74.4961 53.2833 74.2696 53.3826C74.0431 53.4819 73.7931 53.5316 73.5194 53.5316C73.2693 53.5316 73.0712 53.5032 72.9248 53.4464C72.7785 53.3897 72.6536 53.3306 72.5497 53.2691C72.4459 53.2029 72.3657 53.1697 72.3091 53.1697C72.2618 53.1697 72.2265 53.1958 72.2029 53.2478C72.184 53.2998 72.1675 53.3778 72.1534 53.4819H71.9906C72 53.3826 72.0047 53.2668 72.0047 53.1343C72.0095 52.9972 72.0118 52.8198 72.0118 52.6022C72.0166 52.3845 72.0189 52.1103 72.0189 51.7792H72.1817C72.2006 52.063 72.2525 52.3278 72.3374 52.5738C72.4271 52.8198 72.5616 53.0185 72.7408 53.1697C72.9248 53.3164 73.1678 53.3897 73.4698 53.3897C73.6255 53.3897 73.7719 53.359 73.9086 53.2975C74.0502 53.2313 74.1657 53.1295 74.2554 52.9924C74.3451 52.8505 74.3899 52.6683 74.3899 52.4461C74.3899 52.2522 74.3427 52.0842 74.2484 51.9423C74.1586 51.7957 74.0313 51.6609 73.8662 51.5379C73.7011 51.4102 73.5075 51.2802 73.2858 51.1477C73.0641 51.0106 72.8564 50.871 72.663 50.7291C72.4696 50.5872 72.3139 50.4241 72.1958 50.2396C72.0826 50.0503 72.026 49.8233 72.026 49.5585C72.026 49.2795 72.0874 49.05 72.21 48.8703C72.3374 48.6858 72.5025 48.551 72.7054 48.4659C72.9084 48.376 73.1253 48.3311 73.3566 48.3311ZM79.8046 48.4091C79.7857 48.5888 79.7716 48.7639 79.7622 48.9342C79.7574 49.0996 79.7551 49.2273 79.7551 49.3173C79.7551 49.4308 79.7574 49.5372 79.7622 49.6365C79.7668 49.7359 79.7716 49.8233 79.7763 49.899H79.6136C79.5805 49.5679 79.5357 49.3079 79.4791 49.1186C79.4225 48.9247 79.3234 48.7852 79.1818 48.7C79.0403 48.6149 78.8209 48.5723 78.5236 48.5723H78.1414V52.6093C78.1414 52.7985 78.1579 52.9404 78.191 53.035C78.2286 53.1295 78.2994 53.1933 78.4033 53.2265C78.507 53.2597 78.6581 53.281 78.8562 53.2904V53.4323C78.7335 53.4229 78.5777 53.4181 78.3891 53.4181C78.2003 53.4133 78.0092 53.411 77.8158 53.411C77.6035 53.411 77.4029 53.4133 77.2142 53.4181C77.0302 53.4181 76.8816 53.4229 76.7683 53.4323V53.2904C76.9665 53.281 77.1174 53.2597 77.2213 53.2265C77.325 53.1933 77.3935 53.1295 77.4266 53.035C77.4643 52.9404 77.4832 52.7985 77.4832 52.6093V48.5723H77.101C76.8083 48.5723 76.5889 48.6149 76.4428 48.7C76.3012 48.7852 76.2021 48.9247 76.1455 49.1186C76.0889 49.3079 76.044 49.5679 76.011 49.899H75.8483C75.8576 49.8233 75.8624 49.7359 75.8624 49.6365C75.867 49.5372 75.8695 49.4308 75.8695 49.3173C75.8695 49.2273 75.8647 49.0996 75.8553 48.9342C75.8506 48.7639 75.8387 48.5888 75.8199 48.4091C76.0181 48.4139 76.2327 48.4185 76.464 48.4233C76.6999 48.4281 76.9357 48.4304 77.1718 48.4304C77.4076 48.4304 77.6223 48.4304 77.8158 48.4304C78.0092 48.4304 78.2216 48.4304 78.4528 48.4304C78.6887 48.4304 78.9245 48.4281 79.1606 48.4233C79.3964 48.4185 79.6111 48.4139 79.8046 48.4091ZM82.2125 48.3737L83.9394 52.8363C84.0102 53.016 84.0905 53.1366 84.18 53.1981C84.2697 53.2549 84.3524 53.2856 84.4278 53.2904V53.4323C84.3334 53.4229 84.2179 53.4181 84.0809 53.4181C83.9442 53.4133 83.8074 53.411 83.6704 53.411C83.4864 53.411 83.3143 53.4133 83.1538 53.4181C82.9935 53.4181 82.8636 53.4229 82.7645 53.4323V53.2904C83.0051 53.281 83.1586 53.2407 83.2246 53.1697C83.2907 53.094 83.2766 52.9356 83.1821 52.6944L81.8657 49.1683L81.9789 49.076L80.7474 52.2829C80.672 52.4722 80.6271 52.6328 80.6129 52.7653C80.5988 52.8931 80.6106 52.9947 80.6483 53.0704C80.6908 53.1462 80.7592 53.2004 80.8536 53.2336C80.9526 53.2668 81.0754 53.2856 81.2216 53.2904V53.4323C81.0896 53.4229 80.9503 53.4181 80.804 53.4181C80.6625 53.4133 80.5305 53.411 80.4077 53.411C80.2898 53.411 80.1883 53.4133 80.1033 53.4181C80.0232 53.4181 79.9476 53.4229 79.8768 53.4323V53.2904C79.9713 53.2668 80.0679 53.2123 80.167 53.1272C80.2661 53.0373 80.3558 52.886 80.436 52.6731L82.0992 48.3737C82.1182 48.3737 82.1371 48.3737 82.1558 48.3737C82.1748 48.3737 82.1937 48.3737 82.2125 48.3737ZM83.0759 51.389V51.5308H80.9668L81.0376 51.389H83.0759ZM89.2359 48.4091V48.551C89.0756 48.5558 88.9528 48.5794 88.8679 48.622C88.7878 48.6645 88.7334 48.7332 88.7051 48.8277C88.6768 48.9223 88.6627 49.0571 88.6627 49.2321V53.4677C88.6343 53.4677 88.606 53.4677 88.5777 53.4677C88.5542 53.4677 88.5282 53.4677 88.4999 53.4677L85.5273 48.8632V52.6093C85.5273 52.7795 85.5414 52.9143 85.5697 53.0137C85.6028 53.1082 85.6642 53.1768 85.7537 53.2194C85.8482 53.2572 85.9873 53.281 86.1713 53.2904V53.4323C86.0864 53.4229 85.9756 53.4181 85.8387 53.4181C85.7019 53.4133 85.5722 53.411 85.4494 53.411C85.3316 53.411 85.2112 53.4133 85.0884 53.4181C84.9706 53.4181 84.8715 53.4229 84.7912 53.4323V53.2904C84.9517 53.281 85.072 53.2572 85.1522 53.2194C85.2371 53.1768 85.2937 53.1082 85.322 53.0137C85.3503 52.9143 85.3645 52.7795 85.3645 52.6093V49.1612C85.3645 48.9861 85.3503 48.8584 85.322 48.7781C85.2937 48.6929 85.2371 48.6362 85.1522 48.6078C85.072 48.5746 84.9517 48.5558 84.7912 48.551V48.4091C84.8715 48.4139 84.9706 48.4185 85.0884 48.4233C85.2112 48.4281 85.3316 48.4304 85.4494 48.4304C85.5533 48.4304 85.6524 48.4281 85.7467 48.4233C85.8412 48.4185 85.9261 48.4139 86.0015 48.4091L88.4999 52.2687V49.2321C88.4999 49.0571 88.4834 48.9223 88.4503 48.8277C88.422 48.7332 88.3608 48.6645 88.2663 48.622C88.1768 48.5794 88.0398 48.5558 87.8558 48.551V48.4091C87.9407 48.4139 88.0517 48.4185 88.1885 48.4233C88.33 48.4281 88.4599 48.4304 88.5777 48.4304C88.7005 48.4304 88.8208 48.4281 88.9387 48.4233C89.0615 48.4185 89.1606 48.4139 89.2359 48.4091ZM92.3163 48.3098C92.6277 48.3098 92.8825 48.3572 93.0807 48.4517C93.2836 48.5416 93.4629 48.6481 93.6186 48.771C93.7129 48.8419 93.7837 48.8513 93.8309 48.7993C93.8828 48.7426 93.9181 48.6126 93.9371 48.4091H94.0999C94.0905 48.5842 94.0834 48.797 94.0786 49.0477C94.0738 49.2983 94.0716 49.6294 94.0716 50.0409H93.9088C93.8757 49.8375 93.8451 49.6768 93.8168 49.5585C93.7884 49.4356 93.7531 49.3315 93.7106 49.2463C93.6729 49.1612 93.6209 49.076 93.5549 48.9909C93.4086 48.797 93.2245 48.6575 93.0028 48.5723C92.7811 48.4824 92.5476 48.4375 92.3021 48.4375C92.0709 48.4375 91.861 48.4966 91.6722 48.6149C91.4882 48.7284 91.3277 48.8939 91.191 49.1115C91.0588 49.3292 90.9551 49.5917 90.8795 49.899C90.8088 50.2064 90.7734 50.5518 90.7734 50.9349C90.7734 51.3322 90.8135 51.6846 90.8937 51.992C90.9738 52.2948 91.0848 52.5502 91.2263 52.7583C91.3727 52.9663 91.5425 53.1249 91.7359 53.2336C91.9341 53.3377 92.1464 53.3897 92.3729 53.3897C92.5853 53.3897 92.807 53.3471 93.0382 53.262C93.2695 53.1768 93.451 53.0397 93.5832 52.8505C93.6871 52.7134 93.7578 52.5644 93.7955 52.4035C93.838 52.2426 93.8757 52.0181 93.9088 51.7295H94.0716C94.0716 52.16 94.0738 52.5076 94.0786 52.7724C94.0834 53.0326 94.0905 53.2526 94.0999 53.4323H93.9371C93.9181 53.2288 93.8852 53.1011 93.838 53.0491C93.7955 52.9972 93.7224 53.0043 93.6186 53.0704C93.4439 53.1933 93.2576 53.3022 93.0594 53.3968C92.8661 53.4867 92.6159 53.5316 92.3092 53.5316C91.861 53.5316 91.467 53.43 91.1273 53.2265C90.7923 53.0231 90.5304 52.7299 90.3416 52.3468C90.1576 51.9636 90.0656 51.5025 90.0656 50.9633C90.0656 50.4335 90.1624 49.97 90.3558 49.5727C90.5492 49.1754 90.8135 48.8655 91.1485 48.6433C91.4882 48.421 91.8775 48.3098 92.3163 48.3098ZM98.64 48.4091C98.621 48.5746 98.6069 48.7355 98.5975 48.8916C98.5927 49.0477 98.5904 49.166 98.5904 49.2463C98.5904 49.3315 98.5927 49.4143 98.5975 49.4946C98.6023 49.5704 98.6069 49.6342 98.6117 49.6862H98.4489C98.4206 49.4072 98.3804 49.1873 98.3286 49.0264C98.2767 48.8609 98.187 48.7449 98.0596 48.6787C97.937 48.6078 97.7505 48.5723 97.5005 48.5723H96.913C96.7526 48.5723 96.6299 48.5865 96.545 48.6149C96.4649 48.6385 96.4105 48.6929 96.3822 48.7781C96.3539 48.8584 96.3397 48.9861 96.3397 49.1612V52.6802C96.3397 52.8505 96.3539 52.9782 96.3822 53.0633C96.4105 53.1485 96.4649 53.2052 96.545 53.2336C96.6299 53.2572 96.7526 53.2691 96.913 53.2691H97.4297C97.727 53.2691 97.9511 53.2288 98.1021 53.1485C98.2578 53.0681 98.3687 52.9379 98.4347 52.7583C98.5055 52.5738 98.5574 52.3255 98.5904 52.0133H98.7532C98.7391 52.141 98.732 52.3113 98.732 52.5241C98.732 52.614 98.7343 52.7441 98.7391 52.9143C98.7484 53.0798 98.7626 53.2526 98.7815 53.4323C98.5409 53.4229 98.2696 53.4181 97.9676 53.4181C97.6656 53.4133 97.3966 53.411 97.1608 53.411C97.0569 53.411 96.9224 53.411 96.7573 53.411C96.5969 53.411 96.4224 53.4133 96.2336 53.4181C96.0448 53.4181 95.8537 53.4204 95.6603 53.4252C95.4669 53.4252 95.2829 53.4275 95.1082 53.4323V53.2904C95.2687 53.281 95.389 53.262 95.4692 53.2336C95.5541 53.2052 95.6108 53.1485 95.6391 53.0633C95.6674 52.9782 95.6815 52.8505 95.6815 52.6802V49.1612C95.6815 48.9861 95.6674 48.8584 95.6391 48.7781C95.6108 48.6929 95.5541 48.6362 95.4692 48.6078C95.389 48.5746 95.2687 48.5558 95.1082 48.551V48.4091C95.2829 48.4139 95.4669 48.4185 95.6603 48.4233C95.8537 48.4233 96.0448 48.4256 96.2336 48.4304C96.4224 48.4304 96.5969 48.4304 96.7573 48.4304C96.9224 48.4304 97.0569 48.4304 97.1608 48.4304C97.3779 48.4304 97.6231 48.4304 97.8968 48.4304C98.1752 48.4256 98.4229 48.4185 98.64 48.4091ZM97.4226 50.8356C97.4226 50.8356 97.4226 50.8591 97.4226 50.9065C97.4226 50.9539 97.4226 50.9775 97.4226 50.9775H96.1274C96.1274 50.9775 96.1274 50.9539 96.1274 50.9065C96.1274 50.8591 96.1274 50.8356 96.1274 50.8356H97.4226ZM97.6279 49.899C97.6089 50.1686 97.5996 50.3744 97.5996 50.5163C97.6043 50.6582 97.6066 50.7882 97.6066 50.9065C97.6066 51.0248 97.6089 51.1548 97.6137 51.2967C97.6185 51.4386 97.6302 51.6444 97.6491 51.914H97.4863C97.4674 51.7627 97.4439 51.616 97.4156 51.4741C97.392 51.3274 97.3354 51.2093 97.2457 51.1193C97.1608 51.0248 97.0144 50.9775 96.8069 50.9775V50.8356C96.9626 50.8356 97.0806 50.8049 97.1608 50.7433C97.2457 50.6772 97.3071 50.5943 97.3448 50.495C97.3825 50.3957 97.4085 50.294 97.4226 50.1899C97.4368 50.0812 97.4509 49.9842 97.4651 49.899H97.6279ZM71.5629 57.8098C71.5442 57.9894 71.53 58.1645 71.5205 58.3348C71.5159 58.5003 71.5134 58.628 71.5134 58.7179C71.5134 58.8314 71.5159 58.9378 71.5205 59.0372C71.5252 59.1365 71.53 59.2239 71.5346 59.2997H71.3718C71.3389 58.9685 71.294 58.7085 71.2374 58.5192C71.1807 58.3254 71.0817 58.1858 70.9401 58.1006C70.7985 58.0155 70.5791 57.9729 70.2819 57.9729H69.836C69.6757 57.9729 69.5529 57.9871 69.468 58.0155C69.3878 58.0391 69.3335 58.0935 69.3052 58.1787C69.2769 58.259 69.2627 58.3867 69.2627 58.5618V62.0808C69.2627 62.2511 69.2793 62.3788 69.3122 62.464C69.3501 62.5491 69.4209 62.6058 69.5246 62.6342C69.6284 62.6626 69.7794 62.6816 69.9775 62.691V62.8329C69.8549 62.8235 69.6992 62.8187 69.5104 62.8187C69.3218 62.8139 69.1307 62.8116 68.9371 62.8116C68.7531 62.8116 68.581 62.8139 68.4205 62.8187C68.2602 62.8187 68.1303 62.8235 68.0312 62.8329V62.691C68.1917 62.6816 68.312 62.6626 68.3922 62.6342C68.4771 62.6058 68.5337 62.5491 68.562 62.464C68.5903 62.3788 68.6045 62.2511 68.6045 62.0808V58.5618C68.6045 58.3867 68.5903 58.259 68.562 58.1787C68.5337 58.0935 68.4771 58.0368 68.3922 58.0084C68.312 57.9752 68.1917 57.9564 68.0312 57.9517V57.8098C68.2058 57.8145 68.3899 57.8192 68.5832 57.8239C68.7768 57.8239 68.9679 57.8263 69.1565 57.831C69.3453 57.831 69.52 57.831 69.6803 57.831C69.8455 57.831 69.98 57.831 70.0837 57.831C70.3008 57.831 70.5462 57.831 70.8198 57.831C71.0983 57.8263 71.346 57.8192 71.5629 57.8098ZM70.4659 60.3071C70.4659 60.3071 70.4659 60.3307 70.4659 60.3781C70.4659 60.4254 70.4659 60.449 70.4659 60.449H69.0504C69.0504 60.449 69.0504 60.4254 69.0504 60.3781C69.0504 60.3307 69.0504 60.3071 69.0504 60.3071H70.4659ZM70.6004 59.3706C70.5816 59.6402 70.5721 59.846 70.5721 59.9879C70.5768 60.1298 70.5791 60.2598 70.5791 60.3781C70.5791 60.4964 70.5816 60.6264 70.5862 60.7683C70.591 60.9102 70.6029 61.1159 70.6216 61.3855H70.4588C70.4401 61.2342 70.4164 61.0876 70.388 60.9457C70.3645 60.799 70.3079 60.6808 70.2182 60.5909C70.1333 60.4964 69.9871 60.449 69.7794 60.449V60.3071C69.9351 60.3071 70.0531 60.2764 70.1332 60.2149C70.2182 60.1487 70.2796 60.0659 70.3173 59.9666C70.3551 59.8673 70.381 59.7656 70.3951 59.6615C70.4093 59.5528 70.4234 59.4558 70.4376 59.3706H70.6004ZM76.6471 57.8098V57.9517C76.4867 57.9564 76.364 57.98 76.2791 58.0226C76.1988 58.0652 76.1446 58.1338 76.1163 58.2284C76.088 58.3229 76.0739 58.4577 76.0739 58.6328V60.7683C76.0739 61.0994 76.0526 61.3878 76.0102 61.6339C75.9677 61.8799 75.8921 62.0927 75.7837 62.2724C75.6657 62.471 75.4935 62.6319 75.267 62.7548C75.0405 62.8731 74.781 62.9322 74.4885 62.9322C74.262 62.9322 74.0449 62.9038 73.8373 62.8471C73.6344 62.7951 73.4551 62.6958 73.2994 62.5491C73.1625 62.4166 73.054 62.2772 72.9739 62.1305C72.8983 61.9838 72.8465 61.8041 72.8181 61.5913C72.7898 61.3784 72.7757 61.1112 72.7757 60.7896V58.5618C72.7757 58.3867 72.7615 58.259 72.7332 58.1787C72.7049 58.0935 72.6483 58.0368 72.5634 58.0084C72.483 57.9752 72.3627 57.9564 72.2024 57.9517V57.8098C72.3015 57.8145 72.4312 57.8192 72.5917 57.8239C72.752 57.8287 72.9243 57.831 73.1083 57.831C73.2734 57.831 73.4362 57.8287 73.5967 57.8239C73.7618 57.8192 73.8985 57.8145 74.0072 57.8098V57.9517C73.8467 57.9564 73.7241 57.9752 73.6392 58.0084C73.5588 58.0368 73.5047 58.0935 73.4764 58.1787C73.4481 58.259 73.4339 58.3867 73.4339 58.5618V60.9102C73.4339 61.1514 73.4456 61.3808 73.4693 61.5984C73.4928 61.8112 73.5401 62.0005 73.6108 62.166C73.6862 62.3268 73.7995 62.4545 73.9506 62.5491C74.1015 62.639 74.302 62.6839 74.5522 62.6839C74.9106 62.6839 75.1867 62.6058 75.3802 62.4498C75.5784 62.2889 75.7152 62.0689 75.7907 61.7899C75.8709 61.5109 75.9111 61.1963 75.9111 60.8463V58.6328C75.9111 58.4577 75.8898 58.3229 75.8474 58.2284C75.8095 58.1338 75.7435 58.0652 75.6492 58.0226C75.5547 57.98 75.4273 57.9564 75.267 57.9517V57.8098C75.3519 57.8145 75.4627 57.8192 75.5997 57.8239C75.7412 57.8287 75.8709 57.831 75.9889 57.831C76.1115 57.831 76.2319 57.8287 76.3499 57.8239C76.4725 57.8192 76.5716 57.8145 76.6471 57.8098ZM81.8253 57.8098V57.9517C81.665 57.9564 81.5422 57.98 81.4573 58.0226C81.3771 58.0652 81.3228 58.1338 81.2945 58.2284C81.2662 58.3229 81.252 58.4577 81.252 58.6328V62.8684C81.2237 62.8684 81.1954 62.8684 81.1671 62.8684C81.1436 62.8684 81.1175 62.8684 81.0892 62.8684L78.1166 58.2638V62.0099C78.1166 62.1802 78.1308 62.315 78.1591 62.4143C78.1922 62.5088 78.2536 62.5775 78.3431 62.62C78.4376 62.6578 78.5767 62.6816 78.7607 62.691V62.8329C78.6758 62.8235 78.565 62.8187 78.428 62.8187C78.2913 62.8139 78.1616 62.8116 78.0388 62.8116C77.9209 62.8116 77.8006 62.8139 77.6778 62.8187C77.56 62.8187 77.4609 62.8235 77.3806 62.8329V62.691C77.541 62.6816 77.6614 62.6578 77.7415 62.62C77.8265 62.5775 77.8831 62.5088 77.9114 62.4143C77.9397 62.315 77.9538 62.1802 77.9538 62.0099V58.5618C77.9538 58.3867 77.9397 58.259 77.9114 58.1787C77.8831 58.0935 77.8265 58.0368 77.7415 58.0084C77.6614 57.9752 77.541 57.9564 77.3806 57.9517V57.8098C77.4609 57.8145 77.56 57.8192 77.6778 57.8239C77.8006 57.8287 77.9209 57.831 78.0388 57.831C78.1426 57.831 78.2417 57.8287 78.336 57.8239C78.4305 57.8192 78.5155 57.8145 78.5908 57.8098L81.0892 61.6693V58.6328C81.0892 58.4577 81.0728 58.3229 81.0397 58.2284C81.0114 58.1338 80.9502 58.0652 80.8557 58.0226C80.7661 57.98 80.6292 57.9564 80.4452 57.9517V57.8098C80.5301 57.8145 80.641 57.8192 80.7778 57.8239C80.9194 57.8287 81.0492 57.831 81.1671 57.831C81.2899 57.831 81.4102 57.8287 81.5281 57.8239C81.6509 57.8192 81.7499 57.8145 81.8253 57.8098ZM84.5578 57.8098C85.4023 57.8098 86.03 58.0226 86.4405 58.4483C86.851 58.8692 87.0562 59.4747 87.0562 60.2646C87.0562 60.7802 86.9546 61.2318 86.7519 61.6197C86.5537 62.0028 86.2635 62.3008 85.8813 62.5136C85.4991 62.7265 85.0366 62.8329 84.4941 62.8329C84.4233 62.8329 84.3288 62.8306 84.211 62.8258C84.093 62.821 83.9704 62.8187 83.843 62.8187C83.7202 62.8139 83.6069 62.8116 83.5032 62.8116C83.338 62.8116 83.1752 62.8139 83.0149 62.8187C82.8544 62.8187 82.7247 62.8235 82.6256 62.8329V62.691C82.7859 62.6816 82.9062 62.6626 82.9866 62.6342C83.0715 62.6058 83.1281 62.5491 83.1564 62.464C83.1847 62.3788 83.1989 62.2511 83.1989 62.0808V58.5618C83.1989 58.3867 83.1847 58.259 83.1564 58.1787C83.1281 58.0935 83.0715 58.0368 82.9866 58.0084C82.9062 57.9752 82.7859 57.9564 82.6256 57.9517V57.8098C82.7247 57.8145 82.8544 57.8216 83.0149 57.831C83.1752 57.8358 83.3334 57.8358 83.4891 57.831C83.6542 57.8263 83.8405 57.8216 84.0482 57.8169C84.2558 57.8121 84.4256 57.8098 84.5578 57.8098ZM84.3809 57.9375C84.1638 57.9375 84.0222 57.9777 83.9562 58.0581C83.89 58.1384 83.8571 58.3016 83.8571 58.5476V62.095C83.8571 62.341 83.89 62.5042 83.9562 62.5846C84.027 62.6649 84.1708 62.7052 84.3879 62.7052C84.9021 62.7052 85.301 62.6129 85.5841 62.4285C85.8672 62.2392 86.0653 61.965 86.1786 61.6055C86.2918 61.2459 86.3484 60.8086 86.3484 60.2929C86.3484 59.7631 86.2847 59.3257 86.1574 58.9804C86.0346 58.6304 85.8293 58.3702 85.5416 58.2C85.2585 58.0249 84.8715 57.9375 84.3809 57.9375Z" fill="white"/>
</g>
<defs>
<clipPath id="clip0_50_894">
<rect width="155" height="85" fill="white"/>
</clipPath>
</defs>
</svg>
