<svg width="170" height="93" viewBox="0 0 170 93" fill="none" xmlns="http://www.w3.org/2000/svg">
<g clip-path="url(#clip0_30_486)">
<path d="M63.9433 0.581898C63.8107 1.74104 63.7114 2.8672 63.6452 3.96016C63.612 5.05313 63.5955 5.8812 63.5955 6.44418C63.5955 7.04035 63.612 7.62001 63.6452 8.18299C63.6784 8.71298 63.7114 9.16011 63.7445 9.52436H62.6019C62.4032 7.57033 62.1216 6.03024 61.7573 4.90409C61.3931 3.74495 60.7637 2.93337 59.8695 2.46975C59.0084 1.97295 57.7 1.72455 55.9447 1.72455H51.8213C50.6951 1.72455 49.8341 1.82391 49.2379 2.02263C48.6749 2.18817 48.294 2.56911 48.0952 3.16528C47.8965 3.72826 47.7972 4.6225 47.7972 5.84802V30.4895C47.7972 31.6818 47.8965 32.576 48.0952 33.1722C48.294 33.7684 48.6749 34.1658 49.2379 34.3645C49.8341 34.5301 50.6951 34.6129 51.8213 34.6129H55.4479C57.5345 34.6129 59.1078 34.3314 60.1676 33.7684C61.2605 33.2054 62.0389 32.2945 62.5025 31.036C62.9993 29.7443 63.3636 28.0055 63.5955 25.8195H64.7382C64.6388 26.7138 64.5891 27.9061 64.5891 29.3965C64.5891 30.0259 64.6056 30.9366 64.6388 32.1289C64.705 33.2881 64.8043 34.4971 64.9369 35.7556C63.2477 35.6894 61.3434 35.6562 59.2236 35.6562C57.1039 35.6231 55.216 35.6066 53.5601 35.6066C52.8314 35.6066 51.8874 35.6066 50.7283 35.6066C49.6021 35.6066 48.3768 35.6231 47.0519 35.6562C45.7271 35.6562 44.3857 35.6727 43.0278 35.7059C41.67 35.7059 40.3783 35.7224 39.1528 35.7556V34.762C40.2789 34.6958 41.1235 34.5633 41.6865 34.3645C42.2826 34.1658 42.6801 33.7684 42.8788 33.1722C43.0775 32.576 43.1769 31.6818 43.1769 30.4895V5.84802C43.1769 4.6225 43.0775 3.72826 42.8788 3.16528C42.6801 2.56911 42.2826 2.17167 41.6865 1.97295C41.1235 1.74104 40.2789 1.60869 39.1528 1.57551V0.581898C40.3783 0.615024 41.67 0.648132 43.0278 0.681259C44.3857 0.681259 45.7271 0.697812 47.0519 0.730938C48.3768 0.730938 49.6021 0.730938 50.7283 0.730938C51.8874 0.730938 52.8314 0.730938 53.5601 0.730938C55.0837 0.730938 56.8058 0.730938 58.7268 0.730938C60.6809 0.697812 62.4197 0.648132 63.9433 0.581898ZM55.3982 17.5726C55.3982 17.5726 55.3982 17.7381 55.3982 18.0694C55.3982 18.4007 55.3982 18.5662 55.3982 18.5662H46.3067C46.3067 18.5662 46.3067 18.4007 46.3067 18.0694C46.3067 17.7381 46.3067 17.5726 46.3067 17.5726H55.3982ZM56.839 11.0148C56.7064 12.9026 56.6403 14.3434 56.6403 15.337C56.6734 16.3306 56.6899 17.2413 56.6899 18.0694C56.6899 18.8975 56.7064 19.8082 56.7396 20.8018C56.7728 21.7954 56.8555 23.2361 56.988 25.124H55.8454C55.7128 24.0642 55.5473 23.0374 55.3486 22.0438C55.183 21.017 54.7856 20.1891 54.1562 19.5598C53.5601 18.8975 52.5333 18.5662 51.0761 18.5662V17.5726C52.169 17.5726 52.9971 17.3574 53.5601 16.9267C54.1562 16.4631 54.5869 15.8835 54.8518 15.1879C55.1167 14.4924 55.2989 13.7804 55.3982 13.0517C55.4976 12.29 55.597 11.6109 55.6963 11.0148H56.839ZM85.1257 0.333496L97.2477 31.5824C97.7445 32.841 98.3075 33.6855 98.9369 34.1161C99.5662 34.5136 100.146 34.7288 100.676 34.762V35.7556C100.013 35.6894 99.2018 35.6562 98.2414 35.6562C97.2809 35.6231 96.3203 35.6066 95.3599 35.6066C94.0682 35.6066 92.8594 35.6231 91.7332 35.6562C90.6071 35.6562 89.6963 35.6894 89.0008 35.7556V34.762C90.6899 34.6958 91.7664 34.4142 92.23 33.9174C92.6937 33.3874 92.5943 32.278 91.932 30.5888L82.6914 5.8977L83.4863 5.25185L74.8419 27.7074C74.3119 29.0323 73.9973 30.1582 73.898 31.0856C73.7986 31.9799 73.8815 32.6919 74.1464 33.2219C74.4445 33.7519 74.9248 34.1326 75.5871 34.3645C76.2826 34.5965 77.1437 34.7288 78.1705 34.762V35.7556C77.2431 35.6894 76.2661 35.6562 75.2393 35.6562C74.2457 35.6231 73.3183 35.6066 72.4572 35.6066C71.6292 35.6066 70.9172 35.6231 70.321 35.6562C69.758 35.6562 69.228 35.6894 68.7312 35.7556V34.762C69.3936 34.5965 70.0726 34.2155 70.7681 33.6193C71.4636 32.99 72.093 31.9302 72.656 30.4398L84.3309 0.333496C84.4634 0.333496 84.5958 0.333496 84.7283 0.333496C84.8608 0.333496 84.9932 0.333496 85.1257 0.333496ZM91.1867 21.4477V22.4413H76.382L76.8788 21.4477H91.1867ZM131.72 0.581898C131.588 1.8404 131.488 3.06592 131.422 4.25824C131.389 5.41739 131.372 6.31164 131.372 6.94099C131.372 7.73587 131.389 8.48108 131.422 9.1766C131.455 9.87213 131.488 10.4848 131.521 11.0148H130.379C130.147 8.69629 129.832 6.87481 129.435 5.54993C129.037 4.19207 128.342 3.21496 127.348 2.61879C126.355 2.02263 124.815 1.72455 122.728 1.72455H119.598C118.472 1.72455 117.611 1.82391 117.015 2.02263C116.452 2.18817 116.071 2.56911 115.872 3.16528C115.673 3.72826 115.574 4.6225 115.574 5.84802V30.4895C115.574 31.6818 115.69 32.576 115.922 33.1722C116.187 33.7684 116.683 34.1658 117.412 34.3645C118.141 34.5633 119.201 34.6958 120.592 34.762V35.7556C119.731 35.6894 118.638 35.6562 117.313 35.6562C115.988 35.6231 114.647 35.6066 113.289 35.6066C111.997 35.6066 110.788 35.6231 109.662 35.6562C108.536 35.6562 107.625 35.6894 106.93 35.7556V34.762C108.056 34.6958 108.9 34.5633 109.463 34.3645C110.059 34.1658 110.457 33.7684 110.656 33.1722C110.854 32.576 110.954 31.6818 110.954 30.4895V5.84802C110.954 4.6225 110.854 3.72826 110.656 3.16528C110.457 2.56911 110.059 2.17167 109.463 1.97295C108.9 1.74104 108.056 1.60869 106.93 1.57551V0.581898C108.155 0.615024 109.447 0.648132 110.805 0.681259C112.163 0.681259 113.504 0.697812 114.829 0.730938C116.154 0.730938 117.379 0.730938 118.505 0.730938C119.664 0.730938 120.608 0.730938 121.337 0.730938C122.86 0.730938 124.583 0.730938 126.504 0.730938C128.458 0.697812 130.196 0.648132 131.72 0.581898ZM124.02 18.0694C124.02 18.0694 124.02 18.2349 124.02 18.5662C124.02 18.8975 124.02 19.063 124.02 19.063H114.084C114.084 19.063 114.084 18.8975 114.084 18.5662C114.084 18.2349 114.084 18.0694 114.084 18.0694H124.02ZM124.964 11.5116C124.831 13.3994 124.765 14.8402 124.765 15.8338C124.798 16.8274 124.815 17.7381 124.815 18.5662C124.815 19.3943 124.831 20.305 124.864 21.2986C124.897 22.2922 124.98 23.7329 125.113 25.6208H123.97C123.837 24.561 123.672 23.5342 123.473 22.5406C123.308 21.5138 122.91 20.686 122.281 20.0566C121.685 19.3943 120.658 19.063 119.201 19.063V18.0694C120.294 18.0694 121.122 17.8542 121.685 17.4235C122.281 16.9599 122.711 16.3803 122.976 15.6847C123.241 14.9892 123.423 14.2772 123.523 13.5485C123.622 12.7868 123.722 12.1077 123.821 11.5116H124.964Z" fill="#01434D"/>
<path d="M13.4367 4.31731L13.6103 3.97013L13.0058 3.66797L13.0494 4.34234L13.4367 4.31731ZM26.893 12.885L27.2757 12.9504L26.5198 12.7783L26.893 12.885ZM0.388128 23.4926L0.410075 23.105L0 23.0819V23.4926H0.388128ZM3.08765 25.5677C2.87352 25.5772 2.7077 25.7587 2.71728 25.9727C2.72687 26.187 2.90824 26.3527 3.12239 26.3432L3.08765 25.5677ZM29.7475 27.1645L30.0108 26.8794L29.2778 26.2025L29.3607 27.1967L29.7475 27.1645ZM30.1321 31.9264C30.1608 31.7139 30.0118 31.5185 29.7995 31.4898C29.587 31.461 29.3916 31.6099 29.3628 31.8224L30.1321 31.9264ZM4.87359 46.3399L4.83737 45.9533L3.6889 46.061L4.66881 46.6696L4.87359 46.3399ZM10.1939 47.1761C9.97987 47.1655 9.79763 47.3302 9.78692 47.5445C9.7762 47.7585 9.94108 47.9407 10.1552 47.9514L10.1939 47.1761ZM47.4486 65.9019L47.7238 66.1756L48.2152 65.6817L47.5365 65.5239L47.4486 65.9019ZM26.6838 68.9406H26.2957V69.2587L26.6077 69.3212L26.6838 68.9406ZM50.7477 66.5942L50.3745 66.7007L51.1357 66.5845L50.7477 66.5942ZM40.7571 56.1314L40.9318 55.7848L40.5089 56.4299L40.7571 56.1314ZM61.1457 75.3069L61.4274 75.5737L60.9813 74.955L61.1457 75.3069ZM37.4951 84.6904L37.1367 84.5412L37.0266 84.8055L37.2467 84.9887L37.4951 84.6904ZM59.9223 91.6263L59.5483 91.5221L60.2095 91.8873L59.9223 91.6263ZM55.029 62.2512L54.9859 61.8656L54.4332 61.9273L54.6818 62.4247L55.029 62.2512ZM118.233 68.1983L117.954 67.9289L117.932 67.9513L117.915 67.9767L118.233 68.1983ZM109.262 92.0342L109.005 92.3251L109.729 92.9642L109.649 92.002L109.262 92.0342ZM131.689 85.9144L131.46 86.2274L132.436 86.9439L132.058 85.7933L131.689 85.9144ZM114.971 63.0672L115.217 63.3675L115.815 62.8782L115.065 62.6908L114.971 63.0672ZM148.816 64.186L149.075 64.4748L149.498 64.095L148.99 63.8394L148.816 64.186ZM165.534 46.3399L165.684 46.6982L166.755 46.2512L165.63 45.9638L165.534 46.3399ZM141.884 28.3884L142.235 28.2225L142.015 27.7579L141.628 28.0963L141.884 28.3884ZM150.039 39.4312L149.656 39.3668L150.039 39.4312ZM169.612 23.4926L170 23.491L169.998 23.1066L169.614 23.1044L169.612 23.4926ZM153.709 37.7722L153.321 37.7827L154.063 37.93L153.709 37.7722ZM143.107 12.885L143.477 12.7684L142.719 12.8901L143.107 12.885ZM157.379 4.72523L157.692 4.95481L158.17 4.30236L157.362 4.33749L157.379 4.72523ZM143.107 45.116L142.733 45.2194L143.107 45.116ZM143.131 45.33L142.743 45.3079L143.131 45.33ZM141.305 45.1394L140.917 45.1183L141.305 45.1394ZM151.262 61.4354L150.888 61.5388L151.262 61.4354ZM151.286 61.6494L150.899 61.6273L151.286 61.6494ZM149.46 61.4589L149.073 61.4377L149.46 61.4589ZM138.598 77.5405L138.224 77.6442L138.598 77.5405ZM138.621 77.7548L138.234 77.7325L138.621 77.7548ZM136.795 77.5642L136.408 77.5429L136.795 77.5642ZM100.055 69.5713L99.6805 69.6749L100.055 69.5713ZM100.078 69.7856L99.691 69.7634L100.078 69.7856ZM98.2524 69.595L97.8649 69.5738L98.2524 69.595ZM72.3263 70.3873L71.9523 70.491L72.3263 70.3873ZM72.3501 70.6016L71.9628 70.5795L72.3501 70.6016ZM70.5242 70.411L70.1366 70.3897L70.5242 70.411ZM35.4563 75.3069L35.0821 75.4103L35.4563 75.3069ZM35.4801 75.5211L35.0926 75.4988L35.4801 75.5211ZM33.6542 75.3303L33.2666 75.3092L33.6542 75.3303ZM22.5786 61.4117L22.2046 61.5153L22.5786 61.4117ZM22.6024 61.6259L22.2151 61.6036L22.6024 61.6259ZM20.7765 61.4354L20.3889 61.414L20.7765 61.4354ZM31.5496 44.2762L31.1754 44.3799L31.5496 44.2762ZM31.5734 44.4905L31.1859 44.4684L31.5734 44.4905ZM29.7475 44.2999L29.3599 44.2786L29.7475 44.2999ZM7.72796 16.5569L7.3539 16.6606L7.72796 16.5569ZM7.7519 16.7712L7.3644 16.7488L7.7519 16.7712ZM5.92592 16.5806L5.53837 16.5592L5.92592 16.5806ZM20.55 9.07187L20.2669 9.33735L20.55 9.07187ZM22.7571 13.7294L22.3707 13.7663L22.7571 13.7294ZM18.4105 7.22555L18.6379 6.91116L18.4105 7.22555ZM14.4576 11.7888L14.8353 11.6995L14.4576 11.7888ZM13.8083 8.19859L14.1931 8.14755L13.8083 8.19859ZM128.85 56.2333L128.749 55.8584L128.85 56.2333ZM128.923 56.3717L128.686 56.0645L128.923 56.3717ZM161.051 16.6446L161.431 16.5649L161.051 16.6446ZM162.834 16.7803L162.462 16.6691L162.834 16.7803ZM85.6682 79.4822L85.2814 79.4503L85.6682 79.4822ZM85.6705 79.4497L85.2833 79.4243L85.6705 79.4497ZM9.6313 33.3347L9.35563 33.6078L9.6313 33.3347ZM12.1746 35.8981L11.9748 36.2309L12.1746 35.8981ZM51.7935 66.7943L51.7221 67.1756L51.7935 66.7943ZM159.818 33.5216L159.544 33.247L159.818 33.5216ZM165.706 29.7358L165.874 30.0859L165.706 29.7358ZM62.8393 63.6161L62.6225 63.9378L62.8393 63.6161ZM60.2417 62.5637L60.1218 62.9328L60.2417 62.5637ZM162.786 16.2808L162.435 16.4463L162.786 16.2808ZM84.7792 73.7767L84.6319 73.4177L84.7792 73.7767ZM85.6383 73.7528L85.7667 73.3866L85.6383 73.7528ZM19.5739 23.464C19.4805 24.7307 19.412 25.9589 19.368 27.1501L20.1438 27.1788C20.1875 25.9975 20.2554 24.7788 20.348 23.5211L19.5739 23.464ZM19.7932 27.5508C20.8361 27.4503 21.7359 27.1303 22.5188 26.5242C23.297 25.9215 23.9349 25.055 24.4883 23.9005C25.5887 21.6053 26.3977 18.078 27.2757 12.9504L26.5105 12.8194C25.6306 17.9584 24.8351 21.3815 23.7884 23.5648C23.2683 24.6496 22.6969 25.4043 22.0433 25.9104C21.3944 26.413 20.6399 26.6894 19.7186 26.7781L19.7932 27.5508ZM19.368 27.1501C19.1832 32.1451 19.4262 36.4914 20.0513 40.2832L20.8172 40.1568C20.2021 36.4263 19.9604 32.1333 20.1438 27.1788L19.368 27.1501ZM20.7024 39.9393C19.8295 39.1062 19.1216 38.3057 18.5424 37.5383L17.9228 38.006C18.529 38.8091 19.2652 39.6408 20.1663 40.5007L20.7024 39.9393ZM18.5424 37.5383C17.0162 35.5162 16.3698 33.7077 15.9543 32.1005C15.7389 31.2674 15.6008 30.5577 15.4167 29.8095C15.2398 29.0905 15.0342 28.4024 14.7117 27.7649C14.0525 26.4616 12.9368 25.4315 10.7537 24.6626C8.59107 23.9009 5.3544 23.3851 0.410075 23.105L0.366181 23.8801C5.29348 24.1592 8.44025 24.6707 10.4958 25.3948C12.5308 26.1115 13.4679 27.0255 14.019 28.1152C14.3017 28.6739 14.4906 29.2945 14.6629 29.9951C14.8282 30.6665 14.994 31.4874 15.2027 32.2947C15.6353 33.9679 16.3174 35.8791 17.9228 38.006L18.5424 37.5383ZM0 23.4926C0 26.4313 1.79096 28.3411 3.81242 29.8127C4.82129 30.547 5.9154 31.1919 6.89189 31.8001C7.88187 32.4166 8.74572 32.9924 9.35563 33.6078L9.90696 33.0615C9.22506 32.3733 8.28762 31.7548 7.30228 31.1412C6.30347 30.519 5.24826 29.8977 4.26929 29.185C2.31507 27.7626 0.776256 26.0546 0.776256 23.4926H0ZM11.9748 36.2309C14.3589 37.6631 16.2017 38.5187 18.299 38.1545L18.1662 37.3897C16.3784 37.7002 14.7606 36.999 12.3745 35.5655L11.9748 36.2309ZM18.4255 37.4353C14.2845 35.0632 12.1724 32.0993 10.2473 29.7003C9.28982 28.507 8.36053 27.4309 7.24241 26.6777C6.10896 25.9143 4.79571 25.4912 3.08765 25.5677L3.12239 26.3432C4.66491 26.2741 5.81384 26.6515 6.80873 27.3216C7.81897 28.002 8.68417 28.9925 9.64187 30.1862C11.5472 32.5606 13.7483 35.6507 18.0397 38.1089L18.4255 37.4353ZM20.0513 40.2832C20.2907 41.735 20.5863 43.1058 20.9354 44.4008L21.6849 44.1988C21.343 42.9304 21.0528 41.585 20.8172 40.1568L20.0513 40.2832ZM21.6979 44.2867C21.5489 39.9275 23.6758 36.9641 25.8594 34.438C26.9392 33.1888 28.0644 32.0135 28.8752 30.8618C29.6928 29.6999 30.2472 28.4887 30.1342 27.1322L29.3607 27.1967C29.4515 28.2881 29.0147 29.3149 28.2404 30.4148C27.4591 31.5249 26.3915 32.6353 25.2722 33.9303C23.0581 36.4916 20.7625 39.6482 20.9222 44.3131L21.6979 44.2867ZM29.4841 27.4495C30.7459 28.6151 31.4125 29.9599 31.5812 31.3793C31.7506 32.8043 31.4215 34.3334 30.6408 35.8616C29.0766 38.9236 25.722 41.9304 21.1536 43.9448L21.4668 44.655C26.1509 42.5896 29.6658 39.4766 31.332 36.2148C32.1667 34.581 32.5434 32.8973 32.352 31.2877C32.1601 29.6729 31.3993 28.1619 30.0108 26.8794L29.4841 27.4495ZM21.6511 44.485C23.6775 40.753 25.5664 39.0394 27.0676 37.5612C27.8206 36.8197 28.4975 36.1174 29.0289 35.2451C29.5643 34.3658 29.9421 33.331 30.1321 31.9264L29.3628 31.8224C29.1853 33.1346 28.8387 34.0648 28.3659 34.8412C27.8887 35.6247 27.2734 36.269 26.5229 37.008C25.0174 38.4906 23.0548 40.2729 20.969 44.1148L21.6511 44.485ZM20.9354 44.4008C21.9517 48.1713 23.422 51.2977 25.2826 53.9088L25.9149 53.4584C24.1134 50.9305 22.6799 47.8903 21.6849 44.1988L20.9354 44.4008ZM25.2826 53.9088C31.0964 62.067 40.6515 65.0999 51.7221 67.1756L51.8651 66.4127C40.8074 64.3393 31.536 61.3463 25.9149 53.4584L25.2826 53.9088ZM25.433 53.3326C23.9552 54.0307 22.6987 54.3676 21.4672 54.3856C20.2358 54.4037 18.9984 54.1034 17.5577 53.4803C16.1122 52.855 14.4787 51.9121 12.4551 50.6572C11.4447 50.0306 10.3416 49.3291 9.11928 48.5532C7.89761 47.7779 6.55824 46.9291 5.07834 46.0102L4.66881 46.6696C6.14523 47.5864 7.48184 48.4335 8.7033 49.2088C9.92414 49.9835 11.0313 50.6877 12.046 51.3169C14.0724 52.5736 15.7475 53.5432 17.2495 54.1927C18.7562 54.8446 20.105 55.1819 21.4786 55.1617C22.8522 55.1415 24.2196 54.7644 25.7645 54.0345L25.433 53.3326ZM4.90978 46.7263C11.3118 46.1264 15.4578 46.3387 18.4686 47.4754C21.4518 48.6015 23.3686 50.6547 25.2642 53.8803L25.9333 53.4869C23.9912 50.182 21.9568 47.9625 18.7427 46.749C15.5562 45.546 11.2585 45.3517 4.83737 45.9533L4.90978 46.7263ZM25.5726 53.2963C22.7107 53.4894 21.003 52.1574 18.9078 50.6169C16.8104 49.0749 14.3888 47.3859 10.1939 47.1761L10.1552 47.9514C14.1157 48.1496 16.3835 49.7246 18.448 51.2424C20.5145 52.7619 22.4414 54.2857 25.625 54.0708L25.5726 53.2963ZM47.1735 65.6281C43.8716 68.947 41.3139 70.1541 38.3579 70.321C36.8623 70.4054 35.2471 70.2243 33.3555 69.89C31.4583 69.5546 29.3225 69.0728 26.7599 68.56L26.6077 69.3212C29.1422 69.8284 31.314 70.3175 33.2204 70.6544C35.1324 70.9924 36.8168 71.1853 38.4016 71.0959C41.6065 70.915 44.3343 69.5828 47.7238 66.1756L47.1735 65.6281ZM27.0719 68.9406C27.0719 67.2619 27.1736 66.0399 27.5778 65.1808C27.9584 64.3717 28.6295 63.8445 29.9276 63.6201C31.2557 63.3908 33.1974 63.489 36.0386 63.9351C38.8712 64.3799 42.5588 65.1635 47.3607 66.28L47.5365 65.5239C42.7323 64.4069 39.0212 63.6176 36.1592 63.1682C33.3058 62.7203 31.2571 62.6029 29.7956 62.8553C28.304 63.1129 27.3861 63.7647 26.8753 64.8503C26.388 65.8862 26.2957 67.2746 26.2957 68.9406H27.0719ZM47.2676 65.5584C42.8282 67.8994 38.8429 67.3477 35.339 66.8393C33.6014 66.5872 31.9433 66.339 30.4449 66.5049C28.9186 66.6739 27.5474 67.2722 26.3834 68.6949L26.9842 69.1863C28.0034 67.9406 29.1793 67.4261 30.5305 67.2765C31.9097 67.1238 33.4599 67.351 35.2275 67.6076C38.7342 68.1164 42.9481 68.7137 47.6297 66.2452L47.2676 65.5584ZM51.1209 66.4874C50.2119 63.3069 49.0729 61.7839 47.4269 60.4724C46.6231 59.8322 45.6949 59.2399 44.6467 58.5349C43.592 57.8256 42.3909 56.9865 41.0055 55.8331L40.5089 56.4299C41.9229 57.6067 43.1482 58.4625 44.2136 59.179C45.2856 59.9001 46.1715 60.465 46.9431 61.0797C48.4479 62.2784 49.5045 63.6562 50.3745 66.7007L51.1209 66.4874ZM40.5826 56.4782C42.4068 57.3971 43.9427 58.0598 45.1955 58.6387C46.4591 59.2225 47.425 59.7165 48.1678 60.3082C48.8979 60.8899 49.4159 61.5689 49.7677 62.5349C50.1242 63.5138 50.315 64.8006 50.3598 66.6037L51.1357 66.5845C51.0902 64.7469 50.8954 63.363 50.4972 62.2693C50.0941 61.1629 49.4882 60.3676 48.6514 59.7012C47.8276 59.0449 46.7838 58.5174 45.5212 57.9341C44.2477 57.3457 42.7406 56.6959 40.9318 55.7848L40.5826 56.4782ZM60.8637 75.04C58.1119 77.9461 56.0321 79.7449 54.0454 80.7723L54.4019 81.4618C56.5104 80.3715 58.6642 78.4918 61.4274 75.5737L60.8637 75.04ZM41.9425 85.4807C41.2089 85.7025 40.5363 85.7341 39.8691 85.568C39.1974 85.4005 38.5044 85.0256 37.7433 84.3922L37.2467 84.9887C38.068 85.6726 38.8642 86.1174 39.6814 86.3212C40.5033 86.5259 41.3193 86.4799 42.1672 86.2237L41.9425 85.4807ZM37.8533 84.8397C39.3608 81.2196 41.1786 79.0453 43.1253 77.753C45.0721 76.4606 47.1861 76.0247 49.3338 75.9496C51.4999 75.8741 53.6428 76.1635 55.7043 76.2997C57.7329 76.4338 59.6828 76.4181 61.3098 75.6585L60.9813 74.955C59.5501 75.6234 57.779 75.6589 55.7555 75.5252C53.7648 75.3936 51.5242 75.0965 49.3068 75.1739C47.071 75.2519 44.8014 75.7086 42.696 77.1062C40.5904 78.5041 38.6874 80.8175 37.1367 84.5412L37.8533 84.8397ZM37.7421 84.9899C41.5735 81.8276 45.2413 80.5202 49.0636 79.4942C52.8791 78.4697 56.9001 77.7173 61.3098 75.6585L60.9813 74.955C56.6531 76.976 52.7413 77.7032 48.8624 78.7445C44.9898 79.7839 41.2013 81.1284 37.248 84.3912L37.7421 84.9899ZM75.9184 76.7819C78.6308 76.1109 81.9008 75.3785 84.9267 74.1357L84.6319 73.4177C81.6722 74.6333 78.4709 75.3507 75.7319 76.0284L75.9184 76.7819ZM75.4542 76.519C75.9161 78.0267 75.4922 79.4001 74.4672 80.7214C73.4324 82.0556 71.8093 83.3006 69.9564 84.5022C68.0999 85.7058 66.0745 86.8286 64.2127 87.9585C62.3737 89.0747 60.6968 90.1966 59.6351 91.3653L60.2095 91.8873C61.1866 90.8118 62.7719 89.741 64.6155 88.622C66.4364 87.5168 68.5141 86.3623 70.3786 85.1535C72.2465 83.9423 73.962 82.6394 75.0806 81.1971C76.2093 79.742 76.7536 78.1105 76.1963 76.2915L75.4542 76.519ZM60.2962 91.7303C61.546 87.2434 62.8527 84.1022 65.1187 81.787C67.3806 79.4759 70.6441 77.9426 75.9087 76.7843L75.7418 76.0263C70.4136 77.1986 66.9788 78.7767 64.5639 81.2441C62.1534 83.7069 60.8049 87.0109 59.5483 91.5221L60.2962 91.7303ZM75.5198 76.1658C73.1074 79.2448 70.4019 81.2885 67.6452 83.4529C64.8928 85.6138 62.102 87.8867 59.6058 91.4016L60.2388 91.851C62.6654 88.4337 65.3794 86.2187 68.1246 84.0634C70.8652 81.9118 73.65 79.8109 76.1307 76.6445L75.5198 76.1658ZM56.2615 70.4694C59.5136 75.5716 63.9361 77.6187 69.0978 77.6731L69.1062 76.8968C64.189 76.845 60.018 74.9185 56.916 70.0522L56.2615 70.4694ZM69.0978 77.6731C71.2579 77.6958 73.5421 77.37 75.9184 76.7819L75.7319 76.0284C73.401 76.6053 71.1842 76.9188 69.1062 76.8968L69.0978 77.6731ZM69.321 76.9646C68.295 76.2634 67.6138 75.2537 67.1176 74.0627C66.6194 72.8669 66.3177 71.5137 66.0357 70.1436C65.7568 68.7885 65.4956 67.4063 65.0751 66.2165C64.6538 65.0238 64.0533 63.9656 63.056 63.2941L62.6225 63.9378C63.4201 64.475 63.9462 65.3514 64.3433 66.4752C64.7415 67.6019 64.991 68.9185 65.2753 70.3C65.5565 71.6666 65.8705 73.0881 66.4011 74.3614C66.9336 75.6395 67.694 76.7928 68.883 77.6054L69.321 76.9646ZM60.3615 62.1945C58.6479 61.6384 57.2174 61.6162 54.9859 61.8656L55.072 62.637C57.2523 62.3935 58.5576 62.4251 60.1218 62.9328L60.3615 62.1945ZM54.6818 62.4247C56.7057 66.4744 58.0804 69.6058 60.0383 72.0445C62.0203 74.5129 64.5905 76.2684 68.9853 77.655L69.2187 76.9149C64.9369 75.5638 62.5095 73.8824 60.6436 71.5585C58.7536 69.2043 57.4301 66.1878 55.3761 62.0777L54.6818 62.4247ZM69.321 76.9646C65.9676 74.6729 64.5307 71.8168 62.8785 69.0316C61.2243 66.2433 59.37 63.5705 55.1733 61.8908L54.8848 62.6116C58.8435 64.1959 60.5868 66.69 62.2109 69.4277C63.8368 72.1683 65.3588 75.1972 68.883 77.6054L69.321 76.9646ZM85.2833 79.4243C85.2828 79.4331 85.282 79.4418 85.2814 79.4503L86.0549 79.514C86.0561 79.501 86.0571 79.4882 86.0578 79.4752L85.2833 79.4243ZM85.5098 74.1192C88.8875 75.3043 91.8037 75.9098 94.924 76.4507L95.0566 75.6859C91.9547 75.1483 89.0862 74.5514 85.7667 73.3866L85.5098 74.1192ZM94.6128 75.9787C94.1255 78.0321 94.3562 79.7288 95.1103 81.2062C95.8577 82.6704 97.1036 83.8882 98.5895 85.0227C100.073 86.1552 101.838 87.2336 103.634 88.393C105.44 89.5583 107.295 90.8153 109.005 92.3251L109.519 91.7433C107.763 90.1931 105.868 88.9104 104.055 87.7407C102.233 86.5653 100.512 85.5137 99.0605 84.4056C97.6112 83.2992 96.4719 82.1661 95.8018 80.8534C95.1387 79.5541 94.9196 78.048 95.3681 76.1578L94.6128 75.9787ZM109.649 92.002C109.332 88.2014 108.486 85.3297 106.29 82.7973C104.111 80.2829 100.632 78.1416 95.1474 75.7134L94.8332 76.4231C100.297 78.8419 103.642 80.9272 105.704 83.3058C107.751 85.6666 108.566 88.3544 108.875 92.0664L109.649 92.002ZM109.613 91.8681C107.741 87.9148 105.148 85.5243 102.542 83.3159C99.9311 81.1022 97.3357 79.0901 95.3195 75.8627L94.6611 76.2739C96.7554 79.6265 99.4611 81.7215 102.041 83.908C104.626 86.0993 107.113 88.4019 108.911 92.2003L109.613 91.8681ZM109.38 75.5646C110.081 76.3538 110.834 77.0439 111.627 77.6543L112.101 77.0391C111.344 76.4567 110.627 75.7994 109.96 75.049L109.38 75.5646ZM111.627 77.6543C114.697 80.0166 118.365 81.1814 121.887 82.2462C125.436 83.3194 128.816 84.2874 131.46 86.2274L131.919 85.6016C129.145 83.566 125.618 82.5635 122.111 81.5031C118.578 80.4346 115.042 79.303 112.101 77.0391L111.627 77.6543ZM132.058 85.7933C130.385 80.7036 128.673 77.1384 125.619 75.557C122.558 73.9719 118.292 74.4474 111.724 76.9847L112.004 77.7088C118.561 75.1753 122.53 74.8314 125.262 76.2463C128.001 77.6649 129.639 80.919 131.321 86.0357L132.058 85.7933ZM131.985 85.6627C129.092 82.2699 126.609 79.9044 123.553 78.4866C120.494 77.0666 116.905 76.6168 111.838 76.9595L111.89 77.734C116.892 77.3958 120.333 77.8477 123.227 79.1907C126.125 80.5357 128.519 82.7946 131.394 86.1663L131.985 85.6627ZM94.924 76.4507C97.5063 76.8982 99.9889 77.0965 102.346 77.0022L102.315 76.2267C100.022 76.3183 97.5953 76.1258 95.0566 75.6859L94.924 76.4507ZM102.346 77.0022C108.945 76.7381 114.544 74.1766 118.552 68.4201L117.915 67.9767C114.064 73.5071 108.705 75.9708 102.315 76.2267L102.346 77.0022ZM102.535 76.9442C103.13 76.5747 103.548 76.0032 103.86 75.3362C104.172 74.6703 104.39 73.8844 104.57 73.053C104.75 72.223 104.899 71.3179 105.063 70.425C105.228 69.5249 105.41 68.6262 105.659 67.7766C106.159 66.0716 106.912 64.625 108.269 63.7806C109.623 62.939 111.667 62.6409 114.877 63.4437L115.065 62.6908C111.75 61.8615 109.462 62.1245 107.859 63.1214C106.261 64.1156 105.434 65.7851 104.914 67.5583C104.653 68.4481 104.466 69.379 104.299 70.2849C104.132 71.1978 103.988 72.0745 103.811 72.8884C103.635 73.7008 103.432 74.4202 103.157 75.0072C102.883 75.5927 102.55 76.0214 102.125 76.2848L102.535 76.9442ZM114.725 62.7668C113.542 63.7356 112.773 64.9652 112.132 66.2625C111.812 66.9101 111.519 67.5835 111.225 68.2509C110.93 68.9216 110.632 69.5895 110.294 70.2432C109.619 71.548 108.794 72.7825 107.554 73.8205C106.315 74.8574 104.642 75.7156 102.248 76.2351L102.412 76.9937C104.911 76.4515 106.704 75.5444 108.052 74.4157C109.399 73.2884 110.281 71.9571 110.983 70.5997C111.333 69.9222 111.64 69.2346 111.936 68.5637C112.233 67.8895 112.517 67.235 112.828 66.6064C113.448 65.3512 114.158 64.2347 115.217 63.3675L114.725 62.7668ZM102.589 76.9036C106.1 73.7615 107.744 70.9119 109.258 68.6029C110.765 66.306 112.136 64.5538 115.108 63.4303L114.834 62.7042C111.63 63.9151 110.146 65.8348 108.609 68.1772C107.081 70.5073 105.492 73.2638 102.071 76.3253L102.589 76.9036ZM118.513 68.4679C121.776 65.0849 122.547 62.5334 123.432 60.6543C123.87 59.7253 124.326 58.9764 125.114 58.3311C125.908 57.6812 127.067 57.1122 128.95 56.6082L128.749 55.8584C126.81 56.3777 125.533 56.9845 124.622 57.7305C123.706 58.4811 123.189 59.3484 122.73 60.3236C121.822 62.2524 121.107 64.6601 117.954 67.9289L118.513 68.4679ZM118.33 68.5744C119.438 68.2899 120.531 67.9889 121.606 67.6697L121.385 66.9256C120.32 67.242 119.237 67.5402 118.137 67.8224L118.33 68.5744ZM121.404 67.6749C125.763 68.7267 131.121 69.312 136.159 68.9493C141.185 68.5874 145.957 67.2767 149.075 64.4748L148.556 63.8973C145.627 66.5292 141.063 67.8179 136.103 68.175C131.155 68.5315 125.877 67.9557 121.586 66.9204L121.404 67.6749ZM121.549 67.6821C130 66.5055 133.722 64.094 136.827 62.8237C138.363 62.1949 139.742 61.846 141.503 62.0282C143.281 62.212 145.48 62.9399 148.641 64.5326L148.99 63.8394C145.796 62.2301 143.499 61.454 141.583 61.2561C139.652 61.0564 138.14 61.4476 136.533 62.1053C133.349 63.408 129.766 65.7545 121.442 66.9132L121.549 67.6821ZM148.698 63.8161C138.992 66.9076 135.661 66.4172 121.482 66.9097L121.509 67.6856C135.64 67.1946 139.101 67.6875 148.934 64.5559L148.698 63.8161ZM121.606 67.6697C131.342 64.7771 139.626 60.3707 144.902 53.0955L144.273 52.6398C139.141 59.7177 131.044 64.0558 121.385 66.9256L121.606 67.6697ZM144.352 53.1764C146.153 54.5484 147.808 55.1011 149.442 55.0544C151.062 55.0078 152.611 54.3718 154.202 53.4665C155.785 52.5659 157.471 51.3596 159.326 50.1548C161.194 48.9415 163.268 47.7052 165.684 46.6982L165.385 45.9817C162.907 47.0145 160.789 48.2792 158.903 49.5037C157.005 50.737 155.376 51.9053 153.818 52.7918C152.268 53.6736 150.852 54.2373 149.419 54.2783C148 54.319 146.514 53.8475 144.823 52.5589L144.352 53.1764ZM144.84 53.1624C151.463 47.495 158.206 44.8683 165.438 46.7158L165.63 45.9638C158.059 44.0296 151.062 46.8165 144.335 52.5727L144.84 53.1624ZM144.606 53.2552C148.847 53.047 152.103 51.4801 155.274 49.9514C158.455 48.4181 161.549 46.9244 165.553 46.7275L165.515 45.9522C161.334 46.1579 158.107 47.7242 154.937 49.252C151.758 50.7846 148.633 52.2802 144.568 52.4799L144.606 53.2552ZM144.902 53.0955C146.703 50.6107 148.151 47.7956 149.185 44.5994L148.446 44.3603C147.437 47.4802 146.026 50.222 144.273 52.6398L144.902 53.0955ZM148.992 44.134C144.233 41.7111 140.97 39.1636 139.673 36.5808C139.033 35.3062 138.875 34.0289 139.246 32.7366C139.62 31.4344 140.543 30.0779 142.139 28.6805L141.628 28.0963C139.962 29.5547 138.928 31.0308 138.5 32.5224C138.069 34.0238 138.263 35.5018 138.979 36.929C140.396 39.7499 143.86 42.3923 148.64 44.8256L148.992 44.134ZM141.533 28.5545C142.224 30.0156 143.115 31.3337 144.023 32.5847C144.938 33.8457 145.858 35.0204 146.65 36.2391C148.22 38.6538 149.219 41.1371 148.438 44.3892L149.193 44.5704C150.044 41.0264 148.929 38.32 147.301 35.816C146.494 34.5754 145.544 33.3584 144.651 32.1286C143.751 30.8889 142.895 29.6172 142.235 28.2225L141.533 28.5545ZM149.173 44.3279C147.726 40.9281 145.528 38.5587 143.988 36.301C143.209 35.1587 142.587 34.0345 142.252 32.7851C141.919 31.5414 141.867 30.153 142.261 28.4773L141.506 28.2995C141.084 30.0917 141.134 31.6105 141.502 32.9858C141.869 34.3557 142.546 35.5632 143.347 36.7384C144.968 39.1155 147.051 41.3239 148.459 44.6318L149.173 44.3279ZM149.185 44.5994C149.704 42.9954 150.119 41.2964 150.422 39.4957L149.656 39.3668C149.359 41.132 148.953 42.7942 148.446 44.3603L149.185 44.5994ZM150.159 39.8003C154.861 38.2727 157.685 36.2034 160.093 33.796L159.544 33.247C157.211 35.5791 154.491 37.577 149.919 39.0621L150.159 39.8003ZM165.874 30.0859C167.454 29.3302 168.499 28.3733 169.143 27.2397C169.784 26.1101 170.006 24.84 170 23.491L169.224 23.4943C169.229 24.7592 169.021 25.8825 168.468 26.8567C167.917 27.827 167.004 28.6848 165.539 29.3857L165.874 30.0859ZM169.614 23.1044C166.741 23.0895 164.265 23.1865 162.175 23.5438C160.084 23.9011 158.354 24.5231 156.993 25.577C154.251 27.7003 153.148 31.4581 153.321 37.7827L154.097 37.7615C153.925 31.4832 155.039 28.0713 157.468 26.1906C158.692 25.2426 160.286 24.654 162.306 24.3088C164.327 23.9634 166.748 23.8658 169.61 23.8807L169.614 23.1044ZM169.455 23.1374C164.966 25.1138 161.762 26.871 159.268 29.0723C156.767 31.2804 155.001 33.9157 153.354 37.6142L154.063 37.93C155.679 34.3008 157.387 31.7682 159.782 29.6543C162.184 27.5338 165.3 25.8153 169.768 23.8479L169.455 23.1374ZM150.422 39.4957C150.83 37.0699 151.036 34.4599 151.023 31.6504L150.247 31.6541C150.26 34.4234 150.057 36.9887 149.656 39.3668L150.422 39.4957ZM151.023 31.6504C151.011 29.077 150.699 26.1707 150.309 23.2704L149.54 23.374C149.929 26.2667 150.235 29.1327 150.247 31.6541L151.023 31.6504ZM150.895 31.364C148.002 28.7585 146.196 26.4503 145.088 23.6585C143.977 20.8585 143.555 17.5379 143.495 12.88L142.719 12.8901C142.779 17.5783 143.203 21.0122 144.367 23.9447C145.534 26.8858 147.431 29.2881 150.375 31.9408L150.895 31.364ZM142.737 13.0017C145.063 20.3811 146.531 24.5242 150.29 31.8299L150.98 31.4748C147.248 24.2217 145.796 20.1232 143.477 12.7684L142.737 13.0017ZM150.245 23.1041C150.243 23.1004 150.241 23.0973 150.239 23.0947C150.237 23.0924 150.236 23.0901 150.235 23.0883C150.234 23.0876 150.233 23.0864 150.232 23.0854C150.232 23.0848 150.232 23.0841 150.231 23.0833C150.231 23.0829 150.23 23.0823 150.23 23.0817C150.23 23.0812 150.229 23.0804 150.228 23.0792C150.228 23.0788 150.227 23.0782 150.227 23.0775C150.226 23.0767 150.226 23.0759 150.225 23.0748C150.224 23.0738 150.223 23.0722 150.222 23.0705C150.221 23.0699 150.22 23.0682 150.219 23.0674C150.218 23.0662 150.217 23.0641 150.216 23.0627C150.214 23.0612 150.211 23.0577 150.21 23.0557C150.208 23.053 150.202 23.047 150.199 23.0435C150.194 23.0383 150.181 23.0251 150.173 23.0173C150.156 23.0029 150.091 22.961 150.041 22.9391C149.862 22.9211 149.574 23.1163 149.525 23.2874C149.527 23.3424 149.541 23.418 149.548 23.4388C149.552 23.4497 149.56 23.4668 149.563 23.473C149.565 23.4772 149.569 23.4846 149.57 23.4877C149.571 23.4899 149.574 23.4939 149.575 23.4957C149.575 23.497 149.577 23.4996 149.577 23.5007C149.578 23.5017 149.579 23.5034 149.579 23.5042C149.58 23.505 149.581 23.5062 149.581 23.5067C149.582 23.5083 149.583 23.5095 149.583 23.5102C149.584 23.5112 149.584 23.512 149.584 23.5126C149.585 23.5137 149.586 23.5147 149.586 23.5155C149.587 23.5162 149.587 23.5168 149.588 23.5172C149.588 23.5182 149.589 23.519 149.589 23.5194C149.589 23.5199 149.59 23.5205 149.59 23.5209C149.59 23.5219 149.591 23.5226 149.592 23.5234C149.593 23.5248 149.594 23.5265 149.595 23.5281C149.597 23.5314 149.599 23.5353 149.602 23.539C149.604 23.5426 149.607 23.5465 149.609 23.5498C149.61 23.5514 149.611 23.5531 149.613 23.5545C149.613 23.5553 149.614 23.556 149.614 23.557C149.615 23.5574 149.615 23.5578 149.615 23.5584C149.616 23.5589 149.616 23.5597 149.617 23.5605C149.617 23.5609 149.617 23.5615 149.618 23.562C149.618 23.5626 149.619 23.5636 149.62 23.5648C149.62 23.5651 149.621 23.5659 149.621 23.5667C149.622 23.5675 149.622 23.5684 149.623 23.5696C149.624 23.5706 149.625 23.5723 149.627 23.5743C149.627 23.575 149.629 23.577 149.63 23.578C149.63 23.5791 149.633 23.5818 149.634 23.5834C149.636 23.5853 149.639 23.5896 149.641 23.5921C149.644 23.5954 149.651 23.6036 149.656 23.6082C149.663 23.6156 149.685 23.6354 149.7 23.6472C149.736 23.6721 149.916 23.7262 150.059 23.7064C150.231 23.5904 150.323 23.3329 150.316 23.2632C150.31 23.238 150.298 23.2009 150.293 23.1889C150.29 23.1817 150.285 23.17 150.283 23.1654C150.281 23.1621 150.278 23.1565 150.277 23.1541C150.276 23.1522 150.274 23.1489 150.273 23.1475C150.272 23.1462 150.271 23.144 150.27 23.1431C150.269 23.1407 150.268 23.139 150.267 23.1376C150.266 23.1365 150.266 23.1353 150.265 23.1345C150.265 23.1336 150.264 23.133 150.264 23.1324C150.263 23.1312 150.263 23.1303 150.262 23.1295C150.262 23.1289 150.261 23.1283 150.261 23.1279C150.26 23.127 150.26 23.1262 150.26 23.1256C150.259 23.1244 150.258 23.1235 150.257 23.1225C150.256 23.1207 150.255 23.1186 150.253 23.1161C150.252 23.1136 150.25 23.1105 150.247 23.1068L149.601 23.5376C149.604 23.5411 149.605 23.5438 149.607 23.5457C149.608 23.5479 149.609 23.5492 149.61 23.5498C149.61 23.5502 149.61 23.55 149.61 23.5496C149.609 23.5494 149.609 23.549 149.609 23.5485C149.608 23.5481 149.608 23.5475 149.608 23.5471C149.607 23.5465 149.607 23.5455 149.606 23.5446C149.606 23.544 149.605 23.5432 149.605 23.5424C149.604 23.5417 149.604 23.5407 149.603 23.5393C149.602 23.5382 149.601 23.5362 149.6 23.5341C149.599 23.5331 149.598 23.5308 149.597 23.5296C149.597 23.5283 149.595 23.525 149.594 23.523C149.592 23.5207 149.589 23.5151 149.588 23.5118C149.585 23.5071 149.58 23.4955 149.577 23.4883C149.572 23.4763 149.56 23.4392 149.554 23.414C149.547 23.3443 149.64 23.0868 149.811 22.9707C149.954 22.9509 150.134 23.0051 150.17 23.0299C150.185 23.042 150.207 23.0616 150.214 23.0689C150.219 23.0738 150.226 23.0817 150.229 23.085C150.231 23.0876 150.235 23.0918 150.236 23.0938C150.238 23.0953 150.24 23.098 150.241 23.0992C150.241 23.1002 150.243 23.1019 150.244 23.1029C150.245 23.1048 150.246 23.1064 150.247 23.1075C150.248 23.1087 150.249 23.1097 150.249 23.1103C150.25 23.111 150.25 23.1116 150.25 23.1122C150.251 23.1132 150.252 23.1139 150.252 23.1145C150.252 23.1151 150.253 23.1155 150.253 23.1159C150.253 23.1165 150.254 23.1169 150.254 23.1173C150.254 23.1174 150.254 23.1176 150.254 23.1176C150.254 23.1176 150.254 23.1176 150.254 23.1173C150.254 23.1167 150.253 23.1159 150.252 23.1145C150.25 23.112 150.248 23.1087 150.246 23.1054C150.244 23.1021 150.242 23.0988 150.24 23.0963C150.239 23.0949 150.238 23.0942 150.238 23.0936C150.238 23.0932 150.238 23.0932 150.238 23.0932C150.238 23.0934 150.238 23.0936 150.238 23.0938C150.238 23.094 150.239 23.0945 150.239 23.0951C150.239 23.0955 150.24 23.0961 150.24 23.0967C150.24 23.0973 150.241 23.0982 150.242 23.0994C150.242 23.1 150.243 23.1006 150.243 23.1015C150.244 23.1023 150.244 23.1035 150.245 23.105C150.245 23.1056 150.246 23.1068 150.247 23.1075C150.247 23.1083 150.248 23.1101 150.249 23.111C150.249 23.112 150.251 23.1145 150.252 23.1161C150.253 23.1176 150.255 23.1217 150.256 23.124C150.257 23.127 150.261 23.1343 150.263 23.1386C150.266 23.145 150.274 23.1621 150.278 23.1728C150.285 23.1935 150.299 23.2692 150.301 23.3241C150.252 23.4955 149.964 23.6905 149.786 23.6725C149.735 23.6507 149.67 23.6086 149.653 23.5943C149.645 23.5865 149.632 23.5733 149.627 23.5681C149.624 23.5646 149.618 23.5585 149.616 23.5558C149.615 23.5539 149.612 23.5504 149.61 23.5488C149.61 23.5477 149.608 23.5454 149.607 23.5444C149.606 23.5434 149.605 23.5419 149.604 23.5411C149.603 23.5393 149.602 23.538 149.601 23.537C149.601 23.5358 149.6 23.5351 149.599 23.5343C149.599 23.5337 149.598 23.5331 149.598 23.5327C149.597 23.5318 149.597 23.531 149.597 23.5304C149.596 23.53 149.596 23.5296 149.596 23.5292C149.595 23.5287 149.595 23.5283 149.595 23.5281C149.595 23.5277 149.595 23.5277 149.595 23.5281C149.595 23.5287 149.596 23.53 149.598 23.5322C149.599 23.5343 149.601 23.537 149.603 23.5403L150.245 23.1041ZM150.247 23.1068C147.108 18.3997 146.689 13.9928 148.118 10.7439C149.544 7.50073 152.854 5.31072 157.396 5.11297L157.362 4.33749C152.58 4.54553 148.973 6.86983 147.407 10.4315C145.844 13.9879 146.359 18.6765 149.601 23.5376L150.247 23.1068ZM157.066 4.49585C154.746 7.66103 154.717 11.403 154.339 14.704C154.148 16.3755 153.872 17.9423 153.208 19.3439C152.549 20.734 151.5 21.9775 149.732 22.9851L150.116 23.6595C152.023 22.5727 153.182 21.2096 153.909 19.6763C154.631 18.1545 154.918 16.4814 155.111 14.7921C155.502 11.3717 155.526 7.90943 157.692 4.95481L157.066 4.49585ZM150.312 23.3037C150.077 18.3978 150.249 14.8992 151.292 12.0983C152.327 9.31969 154.238 7.18538 157.587 5.05262L157.17 4.39784C153.727 6.59038 151.676 8.84385 150.565 11.8272C149.462 14.788 149.302 18.4254 149.537 23.3408L150.312 23.3037ZM161.431 16.5649C161.419 16.5101 161.419 16.4624 161.427 16.4168L160.663 16.2808C160.636 16.4288 160.64 16.5769 160.671 16.7244L161.431 16.5649ZM162.435 16.4463C162.48 16.5426 162.48 16.6076 162.462 16.6691L163.205 16.8917C163.285 16.6262 163.254 16.3642 163.137 16.1152L162.435 16.4463ZM142.733 45.2194C142.742 45.2533 142.745 45.2821 142.743 45.3079L143.518 45.3523C143.525 45.2369 143.512 45.1231 143.481 45.0123L142.733 45.2194ZM141.692 45.1608C141.698 45.0698 141.735 45.0119 141.799 44.9663C141.873 44.9135 141.992 44.8745 142.138 44.8738C142.455 44.8722 142.681 45.0313 142.733 45.2194L143.481 45.0123C143.3 44.3595 142.649 44.0948 142.135 44.0975C141.866 44.0989 141.581 44.1689 141.349 44.3337C141.107 44.5056 140.936 44.7736 140.917 45.1183L141.692 45.1608ZM140.917 45.1183C140.897 45.4948 141.076 45.7913 141.319 45.9861C141.554 46.1742 141.854 46.2763 142.139 46.3061C142.424 46.3358 142.738 46.2984 143.002 46.1554C143.28 46.0044 143.497 45.7335 143.518 45.3523L142.743 45.3079C142.739 45.3836 142.708 45.4315 142.631 45.4732C142.54 45.5229 142.391 45.552 142.22 45.5342C142.049 45.5163 141.899 45.4565 141.804 45.3805C141.718 45.3112 141.688 45.2411 141.692 45.1608L140.917 45.1183ZM150.888 61.5388C150.898 61.5728 150.9 61.6015 150.899 61.6273L151.674 61.6717C151.68 61.5563 151.667 61.4425 151.636 61.3317L150.888 61.5388ZM149.848 61.4802C149.853 61.3892 149.89 61.3313 149.954 61.2857C150.028 61.233 150.147 61.194 150.294 61.1932C150.61 61.1916 150.836 61.3508 150.888 61.5388L151.636 61.3317C151.456 60.6789 150.805 60.4142 150.29 60.4169C150.021 60.4183 149.736 60.4883 149.504 60.6531C149.263 60.825 149.092 61.093 149.073 61.4377L149.848 61.4802ZM149.073 61.4377C149.052 61.8142 149.231 62.1107 149.474 62.3055C149.709 62.4936 150.009 62.5957 150.295 62.6256C150.579 62.6553 150.894 62.6178 151.157 62.4748C151.435 62.3238 151.652 62.0529 151.674 61.6717L150.899 61.6273C150.894 61.703 150.864 61.7509 150.787 61.7926C150.695 61.8423 150.547 61.8714 150.375 61.8536C150.205 61.8357 150.055 61.776 149.96 61.6999C149.873 61.6306 149.843 61.5605 149.848 61.4802L149.073 61.4377ZM138.224 77.6442C138.233 77.6781 138.235 77.7067 138.234 77.7325L139.009 77.7769C139.016 77.6614 139.002 77.5477 138.972 77.4369L138.224 77.6442ZM137.183 77.5854C137.188 77.4944 137.225 77.4365 137.289 77.3909C137.363 77.3383 137.483 77.2991 137.629 77.2983C137.945 77.2968 138.171 77.4559 138.224 77.6442L138.972 77.4369C138.791 76.7841 138.14 76.5196 137.625 76.5221C137.356 76.5234 137.071 76.5935 136.84 76.7583C136.598 76.9302 136.427 77.1982 136.408 77.5429L137.183 77.5854ZM136.408 77.5429C136.387 77.9193 136.566 78.2159 136.81 78.4107C137.044 78.5988 137.344 78.7009 137.63 78.7307C137.914 78.7604 138.229 78.723 138.492 78.5799C138.771 78.429 138.987 78.1581 139.009 77.7769L138.234 77.7325C138.23 77.8082 138.199 77.8561 138.122 77.8978C138.03 77.9475 137.882 77.9766 137.71 77.9587C137.54 77.9409 137.39 77.8811 137.295 77.8051C137.209 77.7358 137.179 77.6657 137.183 77.5854L136.408 77.5429ZM99.6805 69.6749C99.6899 69.7089 99.6924 69.7376 99.691 69.7634L100.466 69.8077C100.473 69.6924 100.459 69.5787 100.428 69.4679L99.6805 69.6749ZM98.64 69.6163C98.645 69.5251 98.6823 69.4673 98.7463 69.4219C98.8205 69.3691 98.9396 69.3299 99.0861 69.3293C99.4023 69.3276 99.6283 69.4869 99.6805 69.6749L100.428 69.4679C100.248 68.815 99.5967 68.5503 99.0821 68.553C98.8131 68.5544 98.5284 68.6243 98.2965 68.7892C98.0547 68.9612 97.8839 69.2292 97.8649 69.5738L98.64 69.6163ZM97.8649 69.5738C97.8443 69.9503 98.0234 70.2468 98.2666 70.4417C98.501 70.6297 98.8011 70.7318 99.0867 70.7617C99.3712 70.7914 99.6858 70.7537 99.9491 70.6109C100.227 70.4599 100.444 70.189 100.466 69.8077L99.691 69.7634C99.6866 69.8391 99.6557 69.887 99.5789 69.9286C99.4871 69.9785 99.339 70.0076 99.1674 69.9895C98.9969 69.9719 98.847 69.9121 98.7522 69.836C98.6656 69.7665 98.6355 69.6967 98.64 69.6163L97.8649 69.5738ZM71.9523 70.491C71.9616 70.5249 71.9641 70.5535 71.9628 70.5795L72.7377 70.6237C72.7443 70.5082 72.7311 70.3947 72.7004 70.2837L71.9523 70.491ZM70.9117 70.4322C70.9168 70.3412 70.954 70.2833 71.0181 70.2377C71.0922 70.1851 71.2114 70.1459 71.3579 70.1451C71.674 70.1436 71.9001 70.3027 71.9523 70.491L72.7004 70.2837C72.5196 69.6311 71.8685 69.3664 71.3538 69.3689C71.0848 69.3703 70.8001 69.4403 70.5682 69.6051C70.3264 69.777 70.1557 70.0452 70.1366 70.3897L70.9117 70.4322ZM70.1366 70.3897C70.1161 70.7662 70.2952 71.0627 70.5384 71.2575C70.7728 71.4456 71.0728 71.5479 71.3585 71.5775C71.643 71.6072 71.9577 71.5698 72.2209 71.4269C72.4994 71.2758 72.716 71.0049 72.7377 70.6237L71.9628 70.5795C71.9583 70.655 71.9275 70.7029 71.8506 70.7446C71.7588 70.7945 71.611 70.8234 71.4392 70.8055C71.2686 70.7877 71.1188 70.7279 71.0239 70.6519C70.9374 70.5826 70.9075 70.5127 70.9117 70.4322L70.1366 70.3897ZM35.0821 75.4103C35.0916 75.4443 35.0941 75.473 35.0926 75.4988L35.8677 75.5432C35.8743 75.4278 35.8609 75.314 35.8302 75.2032L35.0821 75.4103ZM34.0417 75.3517C34.0468 75.2607 34.0838 75.2028 34.1481 75.1572C34.2222 75.1047 34.3414 75.0655 34.4877 75.0647C34.804 75.0631 35.0301 75.2223 35.0821 75.4103L35.8302 75.2032C35.6495 74.5504 34.9985 74.2859 34.4838 74.2884C34.2148 74.2898 33.9301 74.3598 33.6982 74.5246C33.4564 74.6965 33.2855 74.9645 33.2666 75.3092L34.0417 75.3517ZM33.2666 75.3092C33.2459 75.6857 33.4252 75.9822 33.6682 76.177C33.9028 76.3651 34.2028 76.4672 34.4885 76.4971C34.773 76.5267 35.0875 76.4893 35.3509 76.3463C35.6292 76.1953 35.8457 75.9244 35.8677 75.5432L35.0926 75.4988C35.0883 75.5745 35.0575 75.6224 34.9806 75.6641C34.8888 75.7138 34.7407 75.7429 34.569 75.7251C34.3984 75.7072 34.2486 75.6474 34.1537 75.5714C34.0671 75.5021 34.0373 75.432 34.0417 75.3517L33.2666 75.3092ZM22.2046 61.5153C22.2139 61.5491 22.2164 61.5778 22.2151 61.6036L22.99 61.6481C22.9966 61.5326 22.9834 61.4191 22.9527 61.3081L22.2046 61.5153ZM21.164 61.4565C21.1691 61.3655 21.2063 61.3077 21.2704 61.2621C21.3445 61.2095 21.4637 61.1703 21.6102 61.1695C21.9263 61.1679 22.1524 61.3271 22.2046 61.5153L22.9527 61.3081C22.7719 60.6552 22.1208 60.3907 21.6061 60.3932C21.3371 60.3946 21.0524 60.4647 20.8205 60.6294C20.5787 60.8014 20.408 61.0694 20.3889 61.414L21.164 61.4565ZM20.3889 61.414C20.3684 61.7905 20.5475 62.087 20.7907 62.2819C21.0251 62.4699 21.3251 62.572 21.6108 62.6019C21.8953 62.6316 22.21 62.5941 22.4732 62.4511C22.7517 62.3001 22.9682 62.0292 22.99 61.6481L22.2151 61.6036C22.2106 61.6793 22.1798 61.7272 22.1029 61.769C22.0111 61.8186 21.8632 61.8478 21.6915 61.8299C21.5209 61.812 21.3711 61.7523 21.2762 61.6762C21.1896 61.6069 21.1598 61.5369 21.164 61.4565L20.3889 61.414ZM31.1754 44.3799C31.1849 44.4138 31.1874 44.4425 31.1859 44.4684L31.961 44.5126C31.9676 44.3971 31.9542 44.2836 31.9235 44.1726L31.1754 44.3799ZM30.135 44.3211C30.1399 44.23 30.1771 44.1722 30.2414 44.1268C30.3155 44.074 30.4347 44.0348 30.581 44.034C30.8973 44.0325 31.1234 44.1916 31.1754 44.3799L31.9235 44.1726C31.7428 43.52 31.0918 43.2553 30.5771 43.2578C30.3081 43.2593 30.0234 43.3292 29.7915 43.494C29.5495 43.6659 29.3788 43.9341 29.3599 44.2786L30.135 44.3211ZM29.3599 44.2786C29.3392 44.655 29.5185 44.9518 29.7614 45.1464C29.9961 45.3345 30.2961 45.4367 30.5818 45.4664C30.8663 45.4963 31.1808 45.4587 31.4442 45.3158C31.7225 45.1647 31.939 44.8937 31.961 44.5126L31.1859 44.4684C31.1816 44.5438 31.1506 44.5918 31.0739 44.6335C30.9821 44.6834 30.834 44.7123 30.6623 44.6944C30.4917 44.6766 30.3419 44.617 30.247 44.5409C30.1604 44.4715 30.1306 44.4016 30.135 44.3211L29.3599 44.2786ZM7.3539 16.6606C7.36329 16.6943 7.36587 16.723 7.3644 16.7488L8.13939 16.7933C8.14599 16.6778 8.13272 16.5643 8.10199 16.4533L7.3539 16.6606ZM6.31346 16.6017C6.31845 16.5107 6.35569 16.4529 6.41977 16.4073C6.49392 16.3547 6.61306 16.3155 6.7595 16.3147C7.07569 16.3132 7.30179 16.4723 7.3539 16.6606L8.10199 16.4533C7.92124 15.8005 7.2702 15.5359 6.75554 15.5385C6.48655 15.5398 6.20184 15.6099 5.97001 15.7746C5.72811 15.9466 5.55725 16.2146 5.53837 16.5592L6.31346 16.6017ZM5.53837 16.5592C5.51772 16.9357 5.69694 17.2323 5.93997 17.4271C6.17455 17.6151 6.47454 17.7172 6.76022 17.7471C7.04473 17.7768 7.35933 17.7393 7.62262 17.5963C7.90094 17.4453 8.11758 17.1744 8.13939 16.7933L7.3644 16.7488C7.36007 16.8245 7.32913 16.8725 7.25236 16.9142C7.16057 16.9639 7.01254 16.993 6.84081 16.9751C6.67027 16.9573 6.52043 16.8975 6.42551 16.8214C6.33902 16.7521 6.30906 16.6821 6.31346 16.6017L5.53837 16.5592ZM26.5198 12.7783C24.6706 19.2432 23.3719 22.5434 19.4667 26.9056L20.0451 27.4233C24.0641 22.9341 25.4036 19.5036 27.2662 12.9918L26.5198 12.7783ZM128.686 56.0645C126.314 57.8962 125.017 60.0597 123.64 62.1249C122.26 64.1938 120.782 66.2004 118.032 67.8665L118.434 68.5303C121.332 66.7745 122.888 64.6522 124.286 62.5555C125.686 60.4552 126.911 58.4161 129.16 56.6789L128.686 56.0645ZM20.3067 23.6694C22.4117 19.5511 23.3989 16.3646 23.1435 13.6925L22.3707 13.7663C22.604 16.2066 21.7068 19.2247 19.6154 23.316L20.3067 23.6694ZM23.1435 13.6925C22.9657 11.8338 22.19 10.2531 20.8332 8.80639L20.2669 9.33735C21.5225 10.676 22.2114 12.1008 22.3707 13.7663L23.1435 13.6925ZM20.8332 8.80639C20.2184 8.15104 19.4858 7.52421 18.6379 6.91116L18.1831 7.54013C19.0003 8.13105 19.6932 8.72586 20.2669 9.33735L20.8332 8.80639ZM18.6379 6.91116C17.2697 5.92163 15.5926 4.96121 13.6103 3.97013L13.2631 4.66449C15.2263 5.64606 16.8623 6.58494 18.1831 7.54013L18.6379 6.91116ZM20.2871 23.2822C17.5595 19.0553 15.8457 15.9705 14.8353 11.6995L14.0799 11.878C15.1213 16.2802 16.8932 19.4545 19.6348 23.7031L20.2871 23.2822ZM14.8353 11.6995C14.5772 10.6081 14.3645 9.43691 14.1931 8.14755L13.4236 8.24962C13.5979 9.56169 13.8151 10.7585 14.0799 11.878L14.8353 11.6995ZM14.1931 8.14755C14.0367 6.97074 13.9147 5.69555 13.824 4.29227L13.0494 4.34234C13.141 5.75998 13.2645 7.05283 13.4236 8.24962L14.1931 8.14755ZM20.3284 23.3676C19.7229 21.5871 19.6474 20.2562 19.7163 19.0747C19.7512 18.4752 19.8227 17.9183 19.8857 17.3386C19.9482 16.7646 20.001 16.1771 19.9909 15.5499C19.9494 13.0015 18.8674 9.95389 13.7292 4.06211L13.1442 4.5725C18.2451 10.4216 19.1777 13.293 19.2147 15.5625C19.2241 16.1399 19.1757 16.6883 19.114 17.2548C19.053 17.8158 18.9777 18.4044 18.9413 19.0295C18.8675 20.2967 18.9514 21.7295 19.5935 23.6175L20.3284 23.3676ZM128.95 56.6082C128.787 56.6517 128.653 56.5574 128.6 56.4576C128.545 56.3544 128.542 56.1757 128.686 56.0645L129.16 56.6789C129.372 56.5155 129.373 56.2566 129.285 56.0916C129.198 55.9302 128.994 55.7928 128.749 55.8584L128.95 56.6082ZM160.671 16.7244C160.803 17.3553 161.388 17.6586 161.886 17.6988C162.384 17.739 163.015 17.529 163.205 16.8917L162.462 16.6691C162.416 16.8224 162.24 16.9485 161.948 16.9251C161.656 16.9016 161.468 16.7417 161.431 16.5649L160.671 16.7244ZM85.2814 79.4503C85.2787 79.4827 85.2719 79.4957 85.2711 79.4971C85.2705 79.4979 85.2725 79.495 85.2762 79.4924C85.2824 79.4884 85.2711 79.4985 85.236 79.4919C85.202 79.4853 85.1706 79.4666 85.1508 79.443C85.1355 79.4245 85.1192 79.3942 85.124 79.3358L84.3505 79.2706C84.3043 79.8196 84.694 80.1781 85.0895 80.2541C85.2874 80.2922 85.5156 80.2669 85.7097 80.1363C85.9135 79.9991 86.0334 79.7764 86.0549 79.514L85.2814 79.4503ZM86.0578 79.4752C86.0939 78.9258 85.7308 78.5407 85.3033 78.4734C85.0943 78.4404 84.8642 78.4837 84.6759 78.63C84.4832 78.7796 84.3726 79.0075 84.3505 79.2706L85.124 79.3358C85.1277 79.2924 85.137 79.2681 85.1426 79.2566C85.1481 79.2458 85.1521 79.2429 85.1523 79.2429C85.1527 79.2425 85.1543 79.2413 85.1585 79.2403C85.1632 79.2392 85.1714 79.2384 85.1824 79.2402C85.2053 79.2438 85.2309 79.2568 85.2498 79.2803C85.2657 79.2999 85.2888 79.3415 85.2833 79.4243L86.0578 79.4752ZM9.35563 33.6078C9.7672 34.0231 10.1183 34.4776 10.5427 34.9602C10.9524 35.4263 11.4096 35.8913 11.9748 36.2309L12.3745 35.5655C11.9143 35.2889 11.5208 34.8971 11.1257 34.4477C10.7453 34.0151 10.3374 33.4958 9.90696 33.0615L9.35563 33.6078ZM51.7221 67.1756C53.6125 67.5301 55.1995 68.8034 56.2615 70.4694L56.916 70.0522C55.7683 68.2517 54.0152 66.8158 51.8651 66.4127L51.7221 67.1756ZM160.093 33.796C161.705 32.1843 163.754 31.0995 165.874 30.0859L165.539 29.3857C163.415 30.4014 161.258 31.5336 159.544 33.247L160.093 33.796ZM63.056 63.2941C62.2227 62.7329 61.2159 62.4719 60.3615 62.1945L60.1218 62.9328C61.0455 63.2328 61.9052 63.4548 62.6225 63.9378L63.056 63.2941ZM161.427 16.4168C161.452 16.2777 161.582 16.1517 161.851 16.1453C162.121 16.1387 162.351 16.2678 162.435 16.4463L163.137 16.1152C162.885 15.5817 162.314 15.3576 161.832 15.3692C161.348 15.3809 160.776 15.645 160.663 16.2808L161.427 16.4168ZM54.0454 80.7723C50.2408 82.7399 46.0638 84.2354 41.9425 85.4807L42.1672 86.2237C46.3103 84.9718 50.5377 83.4603 54.4019 81.4618L54.0454 80.7723ZM84.9267 74.1357C85.1137 74.0588 85.3216 74.053 85.5098 74.1192L85.7667 73.3866C85.3965 73.2568 84.9922 73.2696 84.6319 73.4177L84.9267 74.1357Z" fill="#0AABC1"/>
<path d="M68.2267 42.68C68.2059 42.861 68.1904 43.037 68.1801 43.2078C68.1749 43.3786 68.1723 43.508 68.1723 43.5959C68.1723 43.6891 68.1749 43.7797 68.1801 43.8676C68.1853 43.9505 68.1904 44.0204 68.1956 44.0772H68.0171C67.986 43.772 67.942 43.5313 67.8851 43.3553C67.8283 43.1742 67.7299 43.0473 67.5901 42.9749C67.4557 42.8973 67.2511 42.8585 66.9769 42.8585H66.3326C66.1566 42.8585 66.0221 42.874 65.929 42.9051C65.8411 42.9309 65.7815 42.9905 65.7504 43.0836C65.7194 43.1715 65.7038 43.3113 65.7038 43.5028V47.353C65.7038 47.5393 65.7194 47.6791 65.7504 47.7722C65.7815 47.8654 65.8411 47.9275 65.929 47.9585C66.0221 47.9843 66.1566 47.9973 66.3326 47.9973H66.8993C67.2253 47.9973 67.4712 47.9533 67.6367 47.8654C67.8075 47.7774 67.9292 47.635 68.0016 47.4384C68.0792 47.2366 68.136 46.9649 68.1723 46.6233H68.3509C68.3354 46.7631 68.3276 46.9494 68.3276 47.1823C68.3276 47.2806 68.3301 47.4229 68.3354 47.6092C68.3456 47.7902 68.3612 47.9793 68.3819 48.1759C68.118 48.1656 67.8205 48.1603 67.4892 48.1603C67.158 48.1551 66.863 48.1526 66.6043 48.1526C66.4904 48.1526 66.3429 48.1526 66.1618 48.1526C65.9858 48.1526 65.7945 48.1551 65.5874 48.1603C65.3803 48.1603 65.1708 48.1629 64.9586 48.1681C64.7465 48.1681 64.5447 48.1706 64.3532 48.1759V48.0206C64.5292 48.0103 64.6611 47.9896 64.7491 47.9585C64.8422 47.9275 64.9043 47.8654 64.9354 47.7722C64.9664 47.6791 64.9819 47.5393 64.9819 47.353V43.5028C64.9819 43.3113 64.9664 43.1715 64.9354 43.0836C64.9043 42.9905 64.8422 42.9284 64.7491 42.8973C64.6611 42.861 64.5292 42.8405 64.3532 42.8352V42.68C64.5447 42.6852 64.7465 42.6903 64.9586 42.6955C65.1708 42.6955 65.3803 42.698 65.5874 42.7033C65.7945 42.7033 65.9858 42.7033 66.1618 42.7033C66.3429 42.7033 66.4904 42.7033 66.6043 42.7033C66.8424 42.7033 67.1114 42.7033 67.4116 42.7033C67.7169 42.698 67.9886 42.6902 68.2267 42.68ZM66.8915 45.3348C66.8915 45.3348 66.8915 45.3606 66.8915 45.4124C66.8915 45.4642 66.8915 45.49 66.8915 45.49H65.471C65.471 45.49 65.471 45.4642 65.471 45.4124C65.471 45.3606 65.471 45.3348 65.471 45.3348H66.8915ZM67.1166 44.3101C67.0959 44.6051 67.0856 44.8302 67.0856 44.9854C67.0908 45.1407 67.0933 45.2829 67.0933 45.4124C67.0933 45.5418 67.0959 45.6841 67.1011 45.8393C67.1063 45.9946 67.1192 46.2197 67.1399 46.5147H66.9614C66.9406 46.3491 66.9148 46.1886 66.8838 46.0334C66.8579 45.8729 66.7958 45.7437 66.6975 45.6453C66.6043 45.5418 66.4438 45.49 66.2162 45.49V45.3348C66.387 45.3348 66.5164 45.3012 66.6043 45.2338C66.6975 45.1615 66.7648 45.0708 66.8061 44.9622C66.8475 44.8535 66.876 44.7423 66.8915 44.6284C66.907 44.5094 66.9226 44.4033 66.9381 44.3101H67.1166ZM74.1136 42.68V42.8352C73.9376 42.8405 73.8031 42.8663 73.71 42.9128C73.622 42.9594 73.5625 43.0345 73.5314 43.138C73.5004 43.2414 73.4848 43.3889 73.4848 43.5804V45.9169C73.4848 46.2793 73.4616 46.5948 73.415 46.864C73.3684 47.1331 73.2855 47.366 73.1666 47.5626C73.0371 47.78 72.8483 47.956 72.5999 48.0905C72.3515 48.2199 72.0668 48.2845 71.746 48.2845C71.4976 48.2845 71.2595 48.2535 71.0319 48.1914C70.8093 48.1345 70.6127 48.0258 70.4419 47.8654C70.2919 47.7204 70.1728 47.5679 70.0848 47.4074C70.002 47.2469 69.9451 47.0503 69.9141 46.8174C69.883 46.5845 69.8675 46.2921 69.8675 45.9402V43.5028C69.8675 43.3113 69.852 43.1715 69.8209 43.0836C69.7899 42.9905 69.7278 42.9284 69.6346 42.8973C69.5467 42.861 69.4147 42.8405 69.2387 42.8352V42.68C69.3474 42.6852 69.4896 42.6903 69.6657 42.6955C69.8417 42.7007 70.0305 42.7033 70.2323 42.7033C70.4134 42.7033 70.5919 42.7007 70.7679 42.6955C70.949 42.6903 71.0992 42.6852 71.2182 42.68V42.8352C71.0422 42.8405 70.9077 42.861 70.8145 42.8973C70.7266 42.9284 70.667 42.9905 70.636 43.0836C70.6049 43.1715 70.5894 43.3113 70.5894 43.5028V46.0722C70.5894 46.3361 70.6024 46.5871 70.6282 46.8252C70.654 47.058 70.7058 47.2651 70.7835 47.4462C70.8663 47.6222 70.9905 47.7619 71.1561 47.8654C71.3216 47.9637 71.5417 48.0128 71.8159 48.0128C72.2093 48.0128 72.512 47.9275 72.7241 47.7567C72.9415 47.5807 73.0915 47.34 73.1743 47.0348C73.2622 46.7295 73.3063 46.3852 73.3063 46.0023V43.5804C73.3063 43.3889 73.283 43.2414 73.2364 43.138C73.1951 43.0345 73.1225 42.9594 73.0191 42.9128C72.9157 42.8663 72.7759 42.8405 72.5999 42.8352V42.68C72.6931 42.6852 72.8147 42.6903 72.9648 42.6955C73.12 42.7007 73.2623 42.7033 73.3917 42.7033C73.5262 42.7033 73.6581 42.7007 73.7876 42.6955C73.9221 42.6903 74.0307 42.6852 74.1136 42.68ZM74.9182 42.68C75.0269 42.6852 75.1691 42.6903 75.3451 42.6955C75.521 42.7007 75.6945 42.7033 75.8652 42.7033C76.1084 42.7033 76.3413 42.7007 76.5639 42.6955C76.7863 42.6903 76.9442 42.6877 77.0374 42.6877C77.4566 42.6877 77.8032 42.7473 78.0776 42.8663C78.357 42.9852 78.5639 43.1482 78.6986 43.3553C78.8383 43.5571 78.9082 43.7848 78.9082 44.0384C78.9082 44.1937 78.8771 44.3592 78.815 44.5352C78.7529 44.7112 78.6442 44.8768 78.489 45.032C78.3388 45.1873 78.1319 45.3167 77.868 45.4201C77.604 45.5185 77.2703 45.5676 76.8666 45.5676H76.1214V45.4124H76.789C77.1563 45.4124 77.4358 45.3555 77.6273 45.2416C77.8239 45.1226 77.9559 44.9674 78.0232 44.7759C78.0956 44.5793 78.1319 44.3619 78.1319 44.1238C78.1319 43.7149 78.0335 43.3994 77.8369 43.1768C77.6454 42.9491 77.3141 42.8352 76.8433 42.8352C76.6052 42.8352 76.4499 42.8793 76.3776 42.9672C76.305 43.0551 76.2689 43.2336 76.2689 43.5028V47.353C76.2689 47.5393 76.2844 47.6791 76.3155 47.7722C76.3465 47.8654 76.4059 47.9275 76.494 47.9585C76.5871 47.9896 76.7216 48.0103 76.8976 48.0206V48.1759C76.7785 48.1656 76.6285 48.1603 76.4474 48.1603C76.2714 48.1551 76.0929 48.1526 75.9118 48.1526C75.71 48.1526 75.521 48.1551 75.3451 48.1603C75.1691 48.1603 75.0269 48.1656 74.9182 48.1759V48.0206C75.094 48.0103 75.226 47.9896 75.3141 47.9585C75.4072 47.9275 75.4693 47.8654 75.5004 47.7722C75.5314 47.6791 75.547 47.5393 75.547 47.353V43.5028C75.547 43.3113 75.5314 43.1715 75.5004 43.0836C75.4693 42.9905 75.4072 42.9284 75.3141 42.8973C75.226 42.861 75.094 42.8405 74.9182 42.8352V42.68ZM76.1524 45.4357C76.4319 45.446 76.6518 45.459 76.8123 45.4745C76.9726 45.4848 77.102 45.4952 77.2004 45.5055C77.3038 45.5158 77.4022 45.5288 77.4954 45.5443C77.842 45.6012 78.0904 45.7074 78.2406 45.8626C78.3958 46.0126 78.5095 46.2482 78.5821 46.569L78.7762 47.3608C78.8278 47.5884 78.8796 47.7542 78.9314 47.8576C78.9883 47.956 79.0737 48.0026 79.1876 47.9973C79.2755 47.9921 79.3479 47.9637 79.405 47.9119C79.4671 47.8601 79.5317 47.7903 79.599 47.7023L79.7155 47.7877C79.6068 47.9482 79.4929 48.0724 79.3739 48.1603C79.26 48.2432 79.097 48.2845 78.8849 48.2845C78.6933 48.2845 78.5251 48.2277 78.3803 48.1138C78.2353 47.9998 78.1267 47.7774 78.0543 47.4462L77.8835 46.6699C77.8369 46.4473 77.7826 46.256 77.7205 46.0955C77.6634 45.93 77.5808 45.8005 77.4721 45.7074C77.3685 45.6142 77.2132 45.5676 77.0063 45.5676H76.168L76.1524 45.4357ZM82.7772 42.5713C83.269 42.5713 83.6984 42.6825 84.0658 42.9051C84.4384 43.1277 84.7256 43.4485 84.9274 43.8676C85.1345 44.2816 85.2379 44.7861 85.2379 45.3813C85.2379 45.961 85.132 46.4681 84.9197 46.9028C84.7128 47.3375 84.4229 47.6765 84.0503 47.9197C83.6777 48.1629 83.2507 48.2845 82.7694 48.2845C82.2779 48.2845 81.8457 48.1733 81.4731 47.9507C81.1057 47.7282 80.8185 47.4074 80.6114 46.9882C80.4096 46.569 80.3087 46.0644 80.3087 45.4745C80.3087 44.8948 80.4149 44.3877 80.627 43.953C80.8393 43.5183 81.129 43.1793 81.4964 42.9361C81.869 42.693 82.2959 42.5713 82.7772 42.5713ZM82.7462 42.711C82.4098 42.711 82.1174 42.8275 81.869 43.0603C81.6206 43.2932 81.4265 43.614 81.2868 44.0229C81.1523 44.4318 81.085 44.9053 81.085 45.4434C81.085 45.9921 81.1601 46.4706 81.3101 46.8795C81.4653 47.2832 81.6724 47.5962 81.9311 47.8188C82.195 48.0361 82.4849 48.1448 82.8005 48.1448C83.137 48.1448 83.4293 48.0284 83.6777 47.7955C83.9261 47.5626 84.1176 47.2418 84.2521 46.8329C84.3918 46.419 84.4617 45.9455 84.4617 45.4124C84.4617 44.8587 84.3841 44.38 84.2288 43.9763C84.0788 43.5727 83.8744 43.2622 83.6156 43.0448C83.3569 42.8222 83.0671 42.711 82.7462 42.711ZM86.1881 42.68C86.2967 42.6852 86.4392 42.6903 86.615 42.6955C86.791 42.7007 86.9643 42.7033 87.1351 42.7033C87.3785 42.7033 87.6113 42.7007 87.8337 42.6955C88.0563 42.6903 88.2141 42.6877 88.3072 42.6877C88.9335 42.6877 89.4018 42.83 89.7123 43.1147C90.0228 43.3994 90.178 43.7667 90.178 44.217C90.178 44.4033 90.147 44.5998 90.0849 44.8069C90.0228 45.0087 89.9141 45.1976 89.7588 45.3736C89.6088 45.5443 89.4018 45.6841 89.1378 45.7928C88.8739 45.9014 88.5401 45.9558 88.1365 45.9558H87.3913V45.8005H88.0588C88.4264 45.8005 88.7059 45.7306 88.8972 45.5909C89.094 45.4512 89.226 45.2674 89.2931 45.0398C89.3657 44.8121 89.4018 44.5663 89.4018 44.3023C89.4018 43.8108 89.3036 43.4432 89.1068 43.2001C88.9154 42.9569 88.5842 42.8352 88.1132 42.8352C87.8753 42.8352 87.72 42.8793 87.6474 42.9672C87.575 43.0551 87.5388 43.2336 87.5388 43.5028V47.353C87.5388 47.5393 87.557 47.6791 87.5931 47.7722C87.6346 47.8654 87.7123 47.9275 87.826 47.9585C87.9399 47.9896 88.1054 48.0103 88.3228 48.0206V48.1759C88.1883 48.1656 88.0175 48.1603 87.8104 48.1603C87.6036 48.1551 87.394 48.1526 87.1817 48.1526C86.9799 48.1526 86.791 48.1551 86.615 48.1603C86.4392 48.1603 86.2967 48.1656 86.1881 48.1759V48.0206C86.3641 48.0103 86.496 47.9896 86.584 47.9585C86.6771 47.9275 86.7392 47.8654 86.7703 47.7722C86.8013 47.6791 86.8168 47.5393 86.8168 47.353V43.5028C86.8168 43.3113 86.8013 43.1715 86.7703 43.0836C86.7392 42.9905 86.6771 42.9284 86.584 42.8973C86.496 42.861 86.3641 42.8405 86.1881 42.8352V42.68ZM94.8742 42.68C94.8534 42.861 94.8379 43.037 94.8276 43.2078C94.8224 43.3786 94.8198 43.508 94.8198 43.5959C94.8198 43.6891 94.8224 43.7797 94.8276 43.8676C94.8326 43.9505 94.8379 44.0204 94.8431 44.0772H94.6646C94.6335 43.772 94.5895 43.5313 94.5326 43.3553C94.4756 43.1742 94.3774 43.0473 94.2377 42.9749C94.103 42.8973 93.8986 42.8585 93.6244 42.8585H92.9801C92.8041 42.8585 92.6696 42.874 92.5765 42.9051C92.4884 42.9309 92.429 42.9905 92.3979 43.0836C92.3669 43.1715 92.3514 43.3113 92.3514 43.5028V47.353C92.3514 47.5393 92.3669 47.6791 92.3979 47.7722C92.429 47.8654 92.4884 47.9275 92.5765 47.9585C92.6696 47.9843 92.8041 47.9973 92.9801 47.9973H93.5468C93.8728 47.9973 94.1185 47.9533 94.2842 47.8654C94.455 47.7774 94.5765 47.635 94.6491 47.4384C94.7267 47.2366 94.7836 46.9649 94.8198 46.6233H94.9984C94.9829 46.7631 94.9751 46.9494 94.9751 47.1823C94.9751 47.2806 94.9776 47.4229 94.9829 47.6092C94.9931 47.7902 95.0087 47.9793 95.0294 48.1759C94.7655 48.1656 94.4678 48.1603 94.1367 48.1603C93.8055 48.1551 93.5105 48.1526 93.2518 48.1526C93.1379 48.1526 92.9904 48.1526 92.8093 48.1526C92.6333 48.1526 92.4418 48.1551 92.2349 48.1603C92.0278 48.1603 91.8183 48.1629 91.6061 48.1681C91.3938 48.1681 91.192 48.1706 91.0007 48.1759V48.0206C91.1765 48.0103 91.3084 47.9896 91.3966 47.9585C91.4897 47.9275 91.5518 47.8654 91.5829 47.7722C91.6139 47.6791 91.6294 47.5393 91.6294 47.353V43.5028C91.6294 43.3113 91.6139 43.1715 91.5829 43.0836C91.5518 42.9905 91.4897 42.9284 91.3966 42.8973C91.3084 42.861 91.1765 42.8405 91.0007 42.8352V42.68C91.192 42.6852 91.3938 42.6903 91.6061 42.6955C91.8183 42.6955 92.0278 42.698 92.2349 42.7033C92.4418 42.7033 92.6333 42.7033 92.8093 42.7033C92.9904 42.7033 93.1379 42.7033 93.2518 42.7033C93.4897 42.7033 93.7589 42.7033 94.0591 42.7033C94.3644 42.698 94.6361 42.6902 94.8742 42.68ZM93.539 45.3348C93.539 45.3348 93.539 45.3606 93.539 45.4124C93.539 45.4642 93.539 45.49 93.539 45.49H92.1185C92.1185 45.49 92.1185 45.4642 92.1185 45.4124C92.1185 45.3606 92.1185 45.3348 92.1185 45.3348H93.539ZM93.7641 44.3101C93.7434 44.6051 93.7331 44.8302 93.7331 44.9854C93.7381 45.1407 93.7408 45.2829 93.7408 45.4124C93.7408 45.5418 93.7434 45.6841 93.7486 45.8393C93.7537 45.9946 93.7667 46.2197 93.7874 46.5147H93.6089C93.5881 46.3491 93.5623 46.1886 93.5313 46.0334C93.5053 45.8729 93.4432 45.7437 93.345 45.6453C93.2518 45.5418 93.0913 45.49 92.8637 45.49V45.3348C93.0345 45.3348 93.1637 45.3012 93.2518 45.2338C93.345 45.1615 93.4121 45.0708 93.4536 44.9622C93.495 44.8535 93.5235 44.7423 93.539 44.6284C93.5545 44.5094 93.5701 44.4033 93.5856 44.3101H93.7641ZM98.1839 42.6412L100.078 47.5238C100.156 47.7204 100.244 47.8524 100.342 47.9197C100.44 47.9818 100.531 48.0154 100.614 48.0206V48.1759C100.51 48.1656 100.383 48.1603 100.233 48.1603C100.083 48.1551 99.933 48.1526 99.783 48.1526C99.5812 48.1526 99.3922 48.1551 99.2164 48.1603C99.0403 48.1603 98.8981 48.1656 98.7894 48.1759V48.0206C99.0533 48.0103 99.2214 47.9663 99.294 47.8886C99.3664 47.8058 99.3508 47.6325 99.2474 47.3685L97.8036 43.5106L97.9278 43.4096L96.5771 46.9183C96.4942 47.1254 96.4451 47.3012 96.4296 47.4462C96.4141 47.5859 96.4269 47.6971 96.4684 47.78C96.515 47.8628 96.5899 47.9222 96.6935 47.9585C96.8022 47.9948 96.9367 48.0154 97.0972 48.0206V48.1759C96.9522 48.1656 96.7995 48.1603 96.6392 48.1603C96.4839 48.1551 96.339 48.1526 96.2045 48.1526C96.075 48.1526 95.9638 48.1551 95.8707 48.1603C95.7826 48.1603 95.6999 48.1656 95.6223 48.1759V48.0206C95.7257 47.9948 95.8319 47.9352 95.9406 47.8421C96.0492 47.7437 96.1474 47.5781 96.2355 47.3453L98.0597 42.6412C98.0803 42.6412 98.1011 42.6412 98.1218 42.6412C98.1424 42.6412 98.1632 42.6412 98.1839 42.6412ZM99.131 45.9402V46.0955H96.8177L96.8954 45.9402H99.131ZM105.887 42.68V42.8352C105.711 42.8405 105.577 42.8663 105.483 42.9128C105.395 42.9594 105.336 43.0345 105.305 43.138C105.274 43.2414 105.258 43.3889 105.258 43.5804V48.2147C105.227 48.2147 105.196 48.2147 105.165 48.2147C105.139 48.2147 105.111 48.2147 105.08 48.2147L101.82 43.1768V47.2754C101.82 47.4617 101.835 47.6092 101.866 47.7179C101.902 47.8213 101.97 47.8964 102.068 47.943C102.171 47.9843 102.324 48.0103 102.526 48.0206V48.1759C102.433 48.1656 102.311 48.1603 102.161 48.1603C102.011 48.1551 101.869 48.1526 101.734 48.1526C101.605 48.1526 101.473 48.1551 101.338 48.1603C101.209 48.1603 101.1 48.1656 101.012 48.1759V48.0206C101.188 48.0103 101.32 47.9843 101.408 47.943C101.501 47.8964 101.563 47.8213 101.594 47.7179C101.625 47.6092 101.641 47.4617 101.641 47.2754V43.5028C101.641 43.3113 101.625 43.1715 101.594 43.0836C101.563 42.9905 101.501 42.9284 101.408 42.8973C101.32 42.861 101.188 42.8405 101.012 42.8352V42.68C101.1 42.6852 101.209 42.6903 101.338 42.6955C101.473 42.7007 101.605 42.7033 101.734 42.7033C101.848 42.7033 101.957 42.7007 102.06 42.6955C102.164 42.6903 102.257 42.6852 102.34 42.68L105.08 46.9028V43.5804C105.08 43.3889 105.062 43.2414 105.025 43.138C104.994 43.0345 104.927 42.9594 104.824 42.9128C104.725 42.8663 104.575 42.8405 104.373 42.8352V42.68C104.467 42.6852 104.588 42.6903 104.738 42.6955C104.894 42.7007 105.036 42.7033 105.165 42.7033C105.3 42.7033 105.432 42.7007 105.561 42.6955C105.696 42.6903 105.804 42.6852 105.887 42.68ZM63.9848 52.9265L65.8789 57.8092C65.9565 58.0058 66.0444 58.1377 66.1428 58.2051C66.2412 58.2672 66.3316 58.3008 66.4145 58.306V58.4612C66.3111 58.451 66.1842 58.4457 66.0341 58.4457C65.8841 58.4405 65.7339 58.438 65.5839 58.438C65.3821 58.438 65.1933 58.4405 65.0172 58.4457C64.8412 58.4457 64.699 58.451 64.5903 58.4612V58.306C64.8542 58.2957 65.0225 58.2517 65.0949 58.174C65.1673 58.0912 65.1517 57.9179 65.0483 57.6539L63.6045 53.7959L63.7287 53.695L62.378 57.2037C62.2951 57.4108 62.246 57.5866 62.2305 57.7316C62.215 57.8713 62.228 57.9825 62.2693 58.0654C62.3159 58.1482 62.391 58.2076 62.4944 58.2439C62.6031 58.2802 62.7376 58.3008 62.8981 58.306V58.4612C62.7531 58.451 62.6006 58.4457 62.4401 58.4457C62.2848 58.4405 62.1399 58.438 62.0054 58.438C61.8759 58.438 61.7647 58.4405 61.6716 58.4457C61.5837 58.4457 61.5008 58.451 61.4232 58.4612V58.306C61.5266 58.2802 61.6328 58.2206 61.7414 58.1275C61.8501 58.0291 61.9485 57.8635 62.0364 57.6307L63.8606 52.9265C63.8814 52.9265 63.902 52.9265 63.9227 52.9265C63.9435 52.9265 63.9641 52.9265 63.9848 52.9265ZM64.9319 56.2256V56.3809H62.6186L62.6962 56.2256H64.9319ZM68.6259 52.88C68.8846 52.88 69.0813 52.911 69.2158 52.9731C69.3503 53.03 69.4695 53.0948 69.5729 53.1672C69.635 53.2035 69.6841 53.2318 69.7204 53.2526C69.7617 53.2681 69.8005 53.2759 69.8368 53.2759C69.8886 53.2759 69.9247 53.2473 69.9455 53.1905C69.9713 53.1336 69.9921 53.0482 70.0076 52.9343H70.1861C70.1809 53.0222 70.1731 53.1284 70.1629 53.2526C70.1576 53.3715 70.1526 53.532 70.1473 53.7339C70.1473 53.9304 70.1473 54.1918 70.1473 54.5179H69.9688C69.9533 54.2695 69.8989 54.0313 69.8058 53.8037C69.7126 53.5761 69.5754 53.3898 69.3944 53.2448C69.2183 53.0998 68.9855 53.0275 68.6957 53.0275C68.4215 53.0275 68.1937 53.1103 68.0126 53.2759C67.8366 53.4414 67.7487 53.6587 67.7487 53.9279C67.7487 54.1608 67.8083 54.3574 67.9272 54.5179C68.0462 54.6731 68.2042 54.8154 68.4008 54.9448C68.6026 55.069 68.8199 55.2035 69.0528 55.3485C69.322 55.514 69.5599 55.6797 69.767 55.8453C69.9791 56.0058 70.1448 56.1843 70.2638 56.3809C70.388 56.5775 70.4501 56.8156 70.4501 57.095C70.4501 57.4263 70.375 57.7005 70.225 57.9179C70.0749 58.1352 69.8756 58.2982 69.6272 58.4069C69.3788 58.5156 69.1046 58.5699 68.8044 58.5699C68.5302 58.5699 68.3128 58.5389 68.1524 58.4768C67.9919 58.4147 67.8549 58.35 67.7409 58.2827C67.627 58.2103 67.5391 58.174 67.477 58.174C67.4252 58.174 67.3864 58.2026 67.3606 58.2594C67.3398 58.3163 67.3218 58.4017 67.3062 58.5156H67.1277C67.138 58.4069 67.1432 58.2802 67.1432 58.1352C67.1485 57.9852 67.151 57.7911 67.151 57.553C67.1562 57.3149 67.1587 57.0149 67.1587 56.6526H67.3373C67.358 56.9631 67.4149 57.2528 67.5081 57.522C67.6064 57.7911 67.7539 58.0085 67.9505 58.174C68.1523 58.3345 68.4188 58.4147 68.7501 58.4147C68.9208 58.4147 69.0813 58.3811 69.2313 58.3138C69.3866 58.2414 69.5133 58.13 69.6117 57.98C69.7101 57.8247 69.7592 57.6254 69.7592 57.3822C69.7592 57.1701 69.7074 56.9864 69.604 56.8311C69.5056 56.6706 69.3658 56.5231 69.1848 56.3886C69.0037 56.2489 68.7914 56.1067 68.5482 55.9617C68.3051 55.8117 68.0772 55.659 67.8651 55.5037C67.653 55.3485 67.4822 55.1699 67.3528 54.9681C67.2286 54.761 67.1665 54.5126 67.1665 54.2229C67.1665 53.9176 67.2338 53.6665 67.3683 53.4699C67.5081 53.2681 67.6891 53.1206 67.9117 53.0275C68.1343 52.9291 68.3722 52.88 68.6259 52.88ZM73.0897 52.88C73.3484 52.88 73.545 52.911 73.6797 52.9731C73.8142 53.03 73.9331 53.0948 74.0368 53.1672C74.0989 53.2035 74.148 53.2318 74.1842 53.2526C74.2256 53.2681 74.2644 53.2759 74.3007 53.2759C74.3523 53.2759 74.3886 53.2473 74.4094 53.1905C74.4352 53.1336 74.4559 53.0482 74.4715 52.9343H74.65C74.6448 53.0222 74.637 53.1284 74.6267 53.2526C74.6215 53.3715 74.6162 53.532 74.6112 53.7339C74.6112 53.9304 74.6112 54.1918 74.6112 54.5179H74.4326C74.4171 54.2695 74.3628 54.0313 74.2696 53.8037C74.1765 53.5761 74.0393 53.3898 73.8582 53.2448C73.6822 53.0998 73.4493 53.0275 73.1596 53.0275C72.8852 53.0275 72.6575 53.1103 72.4765 53.2759C72.3005 53.4414 72.2126 53.6587 72.2126 53.9279C72.2126 54.1608 72.2719 54.3574 72.3911 54.5179C72.5101 54.6731 72.6678 54.8154 72.8646 54.9448C73.0664 55.069 73.2838 55.2035 73.5167 55.3485C73.7856 55.514 74.0238 55.6797 74.2308 55.8453C74.4429 56.0058 74.6085 56.1843 74.7276 56.3809C74.8518 56.5775 74.9139 56.8156 74.9139 57.095C74.9139 57.4263 74.8388 57.7005 74.6888 57.9179C74.5386 58.1352 74.3395 58.2982 74.0911 58.4069C73.8427 58.5156 73.5683 58.5699 73.2683 58.5699C72.9939 58.5699 72.7765 58.5389 72.6162 58.4768C72.4557 58.4147 72.3185 58.35 72.2048 58.2827C72.0909 58.2103 72.003 58.174 71.9409 58.174C71.8891 58.174 71.8502 58.2026 71.8244 58.2594C71.8037 58.3163 71.7856 58.4017 71.7701 58.5156H71.5916C71.6018 58.4069 71.6071 58.2802 71.6071 58.1352C71.6121 57.9852 71.6148 57.7911 71.6148 57.553C71.6199 57.3149 71.6226 57.0149 71.6226 56.6526H71.8011C71.8217 56.9631 71.8788 57.2528 71.9719 57.522C72.0701 57.7911 72.2176 58.0085 72.4144 58.174C72.6162 58.3345 72.8827 58.4147 73.2139 58.4147C73.3847 58.4147 73.545 58.3811 73.6952 58.3138C73.8505 58.2414 73.9772 58.13 74.0756 57.98C74.1738 57.8247 74.2231 57.6254 74.2231 57.3822C74.2231 57.1701 74.1712 56.9864 74.0678 56.8311C73.9694 56.6706 73.8297 56.5231 73.6486 56.3886C73.4674 56.2489 73.2553 56.1067 73.0121 55.9617C72.7687 55.8117 72.5411 55.659 72.329 55.5037C72.1167 55.3485 71.9459 55.1699 71.8167 54.9681C71.6925 54.761 71.6304 54.5126 71.6304 54.2229C71.6304 53.9176 71.6975 53.6665 71.8322 53.4699C71.9719 53.2681 72.153 53.1206 72.3756 53.0275C72.598 52.9291 72.8361 52.88 73.0897 52.88ZM77.8717 52.9654V53.1206C77.6958 53.1258 77.5612 53.1464 77.468 53.1827C77.3801 53.2138 77.3205 53.2759 77.2895 53.369C77.2584 53.4569 77.2429 53.5966 77.2429 53.7882V57.6384C77.2429 57.8247 77.2584 57.9644 77.2895 58.0576C77.3205 58.1507 77.3801 58.2128 77.468 58.2439C77.5612 58.2749 77.6958 58.2957 77.8717 58.306V58.4612C77.7527 58.451 77.6027 58.4457 77.4214 58.4457C77.2456 58.4405 77.0671 58.438 76.8858 58.438C76.684 58.438 76.4952 58.4405 76.3191 58.4457C76.1433 58.4457 76.0009 58.451 75.8922 58.4612V58.306C76.0682 58.2957 76.2002 58.2749 76.2881 58.2439C76.3812 58.2128 76.4433 58.1507 76.4744 58.0576C76.5054 57.9644 76.521 57.8247 76.521 57.6384V53.7882C76.521 53.5966 76.5054 53.4569 76.4744 53.369C76.4433 53.2759 76.3812 53.2138 76.2881 53.1827C76.2002 53.1464 76.0682 53.1258 75.8922 53.1206V52.9654C76.0009 52.9706 76.1433 52.9756 76.3191 52.9809C76.4952 52.9861 76.684 52.9886 76.8858 52.9886C77.0671 52.9886 77.2456 52.9861 77.4214 52.9809C77.6027 52.9756 77.7527 52.9706 77.8717 52.9654ZM80.4556 52.88C80.7143 52.88 80.9111 52.911 81.0456 52.9731C81.1801 53.03 81.2992 53.0948 81.4027 53.1672C81.4648 53.2035 81.5138 53.2318 81.5501 53.2526C81.5915 53.2681 81.6303 53.2759 81.6666 53.2759C81.7184 53.2759 81.7545 53.2473 81.7753 53.1905C81.8011 53.1336 81.8218 53.0482 81.8374 52.9343H82.0159C82.0106 53.0222 82.0029 53.1284 81.9926 53.2526C81.9874 53.3715 81.9823 53.532 81.9771 53.7339C81.9771 53.9304 81.9771 54.1918 81.9771 54.5179H81.7985C81.783 54.2695 81.7287 54.0313 81.6355 53.8037C81.5424 53.5761 81.4052 53.3898 81.2241 53.2448C81.0481 53.0998 80.8152 53.0275 80.5255 53.0275C80.2513 53.0275 80.0234 53.1103 79.8424 53.2759C79.6664 53.4414 79.5784 53.6587 79.5784 53.9279C79.5784 54.1608 79.638 54.3574 79.757 54.5179C79.8759 54.6731 80.0339 54.8154 80.2305 54.9448C80.4323 55.069 80.6497 55.2035 80.8826 55.3485C81.1517 55.514 81.3897 55.6797 81.5967 55.8453C81.8088 56.0058 81.9746 56.1843 82.0935 56.3809C82.2177 56.5775 82.2798 56.8156 82.2798 57.095C82.2798 57.4263 82.2047 57.7005 82.0547 57.9179C81.9047 58.1352 81.7054 58.2982 81.457 58.4069C81.2086 58.5156 80.9344 58.5699 80.6342 58.5699C80.3599 58.5699 80.1426 58.5389 79.9821 58.4768C79.8216 58.4147 79.6846 58.35 79.5707 58.2827C79.4568 58.2103 79.3689 58.174 79.3068 58.174C79.2549 58.174 79.2161 58.2026 79.1903 58.2594C79.1696 58.3163 79.1515 58.4017 79.136 58.5156H78.9574C78.9677 58.4069 78.973 58.2802 78.973 58.1352C78.9782 57.9852 78.9807 57.7911 78.9807 57.553C78.986 57.3149 78.9885 57.0149 78.9885 56.6526H79.167C79.1878 56.9631 79.2447 57.2528 79.3378 57.522C79.4362 57.7911 79.5837 58.0085 79.7803 58.174C79.9821 58.3345 80.2486 58.4147 80.5798 58.4147C80.7506 58.4147 80.9111 58.3811 81.0611 58.3138C81.2163 58.2414 81.3431 58.13 81.4415 57.98C81.5399 57.8247 81.589 57.6254 81.589 57.3822C81.589 57.1701 81.5371 56.9864 81.4337 56.8311C81.3353 56.6706 81.1956 56.5231 81.0145 56.3886C80.8335 56.2489 80.6212 56.1067 80.378 55.9617C80.1348 55.8117 79.907 55.659 79.6949 55.5037C79.4828 55.3485 79.312 55.1699 79.1826 54.9681C79.0584 54.761 78.9963 54.5126 78.9963 54.2229C78.9963 53.9176 79.0636 53.6665 79.1981 53.4699C79.3378 53.2681 79.5189 53.1206 79.7415 53.0275C79.9641 52.9291 80.202 52.88 80.4556 52.88ZM87.5277 52.9654C87.5069 53.1619 87.4914 53.3535 87.4811 53.5398C87.4759 53.7208 87.4734 53.8606 87.4734 53.959C87.4734 54.0832 87.4759 54.1996 87.4811 54.3083C87.4862 54.417 87.4914 54.5126 87.4966 54.5955H87.3181C87.2818 54.2332 87.2327 53.9487 87.1706 53.7416C87.1085 53.5295 86.9998 53.3768 86.8446 53.2836C86.6893 53.1905 86.4487 53.1439 86.1227 53.1439H85.7035V57.5608C85.7035 57.7679 85.7215 57.9231 85.7578 58.0265C85.7992 58.13 85.8768 58.1998 85.9907 58.2361C86.1044 58.2724 86.2702 58.2957 86.4875 58.306V58.4612C86.3528 58.451 86.1821 58.4457 85.9752 58.4457C85.7681 58.4405 85.5585 58.438 85.3464 58.438C85.1135 58.438 84.8935 58.4405 84.6866 58.4457C84.4848 58.4457 84.3218 58.451 84.1976 58.4612V58.306C84.4149 58.2957 84.5804 58.2724 84.6944 58.2361C84.8081 58.1998 84.8832 58.13 84.9195 58.0265C84.9608 57.9231 84.9816 57.7679 84.9816 57.5608V53.1439H84.5624C84.2414 53.1439 84.0008 53.1905 83.8405 53.2836C83.6852 53.3768 83.5766 53.5295 83.5145 53.7416C83.4524 53.9487 83.4031 54.2332 83.367 54.5955H83.1884C83.1987 54.5126 83.2039 54.417 83.2039 54.3083C83.209 54.1996 83.2117 54.0832 83.2117 53.959C83.2117 53.8606 83.2065 53.7208 83.1962 53.5398C83.1909 53.3535 83.1779 53.1619 83.1574 52.9654C83.3747 52.9706 83.6101 52.9756 83.8638 52.9809C84.1225 52.9861 84.3811 52.9886 84.64 52.9886C84.8987 52.9886 85.1341 52.9886 85.3464 52.9886C85.5585 52.9886 85.7914 52.9886 86.045 52.9886C86.3037 52.9886 86.5624 52.9861 86.8213 52.9809C87.08 52.9756 87.3154 52.9706 87.5277 52.9654ZM90.1685 52.9265L92.0626 57.8092C92.1402 58.0058 92.2283 58.1377 92.3265 58.2051C92.4249 58.2672 92.5155 58.3008 92.5982 58.306V58.4612C92.4948 58.451 92.368 58.4457 92.2178 58.4457C92.0678 58.4405 91.9178 58.438 91.7676 58.438C91.5658 58.438 91.377 58.4405 91.2009 58.4457C91.0251 58.4457 90.8827 58.451 90.774 58.4612V58.306C91.0379 58.2957 91.2062 58.2517 91.2786 58.174C91.3511 58.0912 91.3356 57.9179 91.232 57.6539L89.7882 53.7959L89.9123 53.695L88.5617 57.2037C88.479 57.4108 88.4297 57.5866 88.4142 57.7316C88.3987 57.8713 88.4117 57.9825 88.453 58.0654C88.4996 58.1482 88.5747 58.2076 88.6781 58.2439C88.7868 58.2802 88.9215 58.3008 89.0818 58.306V58.4612C88.937 58.451 88.7843 58.4457 88.6238 58.4457C88.4685 58.4405 88.3237 58.438 88.1891 58.438C88.0598 58.438 87.9484 58.4405 87.8553 58.4457C87.7674 58.4457 87.6845 58.451 87.6069 58.4612V58.306C87.7105 58.2802 87.8165 58.2206 87.9251 58.1275C88.0338 58.0291 88.1322 57.8635 88.2201 57.6307L90.0443 52.9265C90.0651 52.9265 90.0858 52.9265 90.1064 52.9265C90.1272 52.9265 90.1479 52.9265 90.1685 52.9265ZM91.1155 56.2256V56.3809H88.8023L88.8799 56.2256H91.1155ZM97.8717 52.9654V53.1206C97.6959 53.1258 97.5612 53.1517 97.468 53.1982C97.3801 53.2448 97.3205 53.3199 97.2895 53.4233C97.2584 53.5268 97.2429 53.6743 97.2429 53.8658V58.5001C97.2119 58.5001 97.1808 58.5001 97.1498 58.5001C97.124 58.5001 97.0954 58.5001 97.0644 58.5001L93.8041 53.4622V57.5608C93.8041 57.7471 93.8196 57.8946 93.8507 58.0033C93.887 58.1067 93.9543 58.1818 94.0525 58.2284C94.1561 58.2697 94.3087 58.2957 94.5105 58.306V58.4612C94.4174 58.451 94.2959 58.4457 94.1457 58.4457C93.9957 58.4405 93.8534 58.438 93.7187 58.438C93.5895 58.438 93.4575 58.4405 93.3228 58.4457C93.1936 58.4457 93.0849 58.451 92.9968 58.4612V58.306C93.1728 58.2957 93.3048 58.2697 93.3927 58.2284C93.4858 58.1818 93.5479 58.1067 93.579 58.0033C93.61 57.8946 93.6256 57.7471 93.6256 57.5608V53.7882C93.6256 53.5966 93.61 53.4569 93.579 53.369C93.5479 53.2759 93.4858 53.2138 93.3927 53.1827C93.3048 53.1464 93.1728 53.1258 92.9968 53.1206V52.9654C93.0849 52.9706 93.1936 52.9756 93.3228 52.9809C93.4575 52.9861 93.5895 52.9886 93.7187 52.9886C93.8326 52.9886 93.9413 52.9861 94.0448 52.9809C94.1484 52.9756 94.2415 52.9706 94.3242 52.9654L97.0644 57.1882V53.8658C97.0644 53.6743 97.0463 53.5268 97.01 53.4233C96.979 53.3199 96.9118 53.2448 96.8082 53.1982C96.71 53.1517 96.5598 53.1258 96.358 53.1206V52.9654C96.4511 52.9706 96.5728 52.9756 96.7228 52.9809C96.8781 52.9861 97.0205 52.9886 97.1498 52.9886C97.2845 52.9886 97.4164 52.9861 97.5457 52.9809C97.6803 52.9756 97.789 52.9706 97.8717 52.9654ZM101.25 52.8567C101.592 52.8567 101.871 52.9085 102.089 53.0119C102.311 53.1103 102.508 53.2268 102.678 53.3612C102.782 53.4389 102.86 53.4492 102.911 53.3923C102.968 53.3302 103.007 53.1879 103.028 52.9654H103.206C103.196 53.1569 103.188 53.3898 103.183 53.664C103.178 53.9382 103.175 54.3005 103.175 54.7507H102.997C102.96 54.5282 102.927 54.3523 102.896 54.2229C102.865 54.0884 102.826 53.9745 102.779 53.8813C102.738 53.7882 102.681 53.695 102.609 53.6019C102.448 53.3898 102.246 53.237 102.003 53.1439C101.76 53.0455 101.504 52.9964 101.235 52.9964C100.981 52.9964 100.751 53.061 100.544 53.1905C100.342 53.3147 100.166 53.4957 100.016 53.7339C99.8709 53.972 99.7572 54.2592 99.6744 54.5955C99.5967 54.9318 99.5579 55.3096 99.5579 55.7288C99.5579 56.1635 99.602 56.5491 99.6899 56.8854C99.7778 57.2167 99.8995 57.4962 100.055 57.7238C100.215 57.9514 100.402 58.1249 100.614 58.2439C100.831 58.3578 101.064 58.4147 101.312 58.4147C101.545 58.4147 101.788 58.3681 102.042 58.2749C102.296 58.1818 102.495 58.0318 102.64 57.8247C102.754 57.6747 102.831 57.5117 102.873 57.3357C102.919 57.1597 102.96 56.914 102.997 56.5982H103.175C103.175 57.0692 103.178 57.4496 103.183 57.7393C103.188 58.024 103.196 58.2647 103.206 58.4612H103.028C103.007 58.2387 102.971 58.0989 102.919 58.0421C102.873 57.9852 102.792 57.993 102.678 58.0654C102.487 58.1998 102.283 58.319 102.065 58.4224C101.853 58.5208 101.579 58.5699 101.242 58.5699C100.751 58.5699 100.319 58.4587 99.946 58.2361C99.5787 58.0135 99.2915 57.6928 99.0844 57.2736C98.8826 56.8544 98.7817 56.3498 98.7817 55.7599C98.7817 55.1802 98.8878 54.6731 99.0999 54.2384C99.312 53.8037 99.602 53.4647 99.9693 53.2215C100.342 52.9784 100.769 52.8567 101.25 52.8567ZM108.186 52.9654C108.165 53.1464 108.15 53.3224 108.139 53.4932C108.134 53.664 108.131 53.7934 108.131 53.8813C108.131 53.9745 108.134 54.0651 108.139 54.153C108.144 54.2359 108.15 54.3058 108.155 54.3626H107.976C107.945 54.0574 107.901 53.8167 107.844 53.6407C107.787 53.4596 107.689 53.3327 107.549 53.2603C107.415 53.1827 107.21 53.1439 106.936 53.1439H106.292C106.116 53.1439 105.981 53.1594 105.888 53.1905C105.8 53.2163 105.741 53.2759 105.71 53.369C105.679 53.4569 105.663 53.5966 105.663 53.7882V57.6384C105.663 57.8247 105.679 57.9644 105.71 58.0576C105.741 58.1507 105.8 58.2128 105.888 58.2439C105.981 58.2697 106.116 58.2827 106.292 58.2827H106.858C107.184 58.2827 107.43 58.2387 107.596 58.1507C107.767 58.0628 107.888 57.9204 107.961 57.7238C108.038 57.522 108.095 57.2503 108.131 56.9087H108.31C108.294 57.0485 108.287 57.2348 108.287 57.4676C108.287 57.566 108.289 57.7083 108.294 57.8946C108.305 58.0756 108.32 58.2647 108.341 58.4612C108.077 58.451 107.78 58.4457 107.448 58.4457C107.117 58.4405 106.822 58.438 106.563 58.438C106.45 58.438 106.302 58.438 106.121 58.438C105.945 58.438 105.754 58.4405 105.547 58.4457C105.339 58.4457 105.13 58.4482 104.918 58.4535C104.706 58.4535 104.504 58.456 104.312 58.4612V58.306C104.488 58.2957 104.62 58.2749 104.708 58.2439C104.801 58.2128 104.863 58.1507 104.894 58.0576C104.926 57.9644 104.941 57.8247 104.941 57.6384V53.7882C104.941 53.5966 104.926 53.4569 104.894 53.369C104.863 53.2759 104.801 53.2138 104.708 53.1827C104.62 53.1464 104.488 53.1258 104.312 53.1206V52.9654C104.504 52.9706 104.706 52.9756 104.918 52.9809C105.13 52.9809 105.339 52.9834 105.547 52.9886C105.754 52.9886 105.945 52.9886 106.121 52.9886C106.302 52.9886 106.45 52.9886 106.563 52.9886C106.802 52.9886 107.071 52.9886 107.371 52.9886C107.676 52.9834 107.948 52.9756 108.186 52.9654ZM106.851 55.6201C106.851 55.6201 106.851 55.646 106.851 55.6978C106.851 55.7496 106.851 55.7754 106.851 55.7754H105.43C105.43 55.7754 105.43 55.7496 105.43 55.6978C105.43 55.646 105.43 55.6201 105.43 55.6201H106.851ZM107.076 54.5955C107.055 54.8905 107.045 55.1156 107.045 55.2708C107.05 55.4261 107.052 55.5683 107.052 55.6978C107.052 55.8272 107.055 55.9695 107.06 56.1247C107.065 56.28 107.078 56.5051 107.099 56.8001H106.921C106.9 56.6345 106.874 56.474 106.843 56.3188C106.817 56.1583 106.755 56.029 106.657 55.9306C106.563 55.8272 106.403 55.7754 106.175 55.7754V55.6201C106.346 55.6201 106.476 55.5866 106.563 55.5192C106.657 55.4468 106.724 55.3562 106.765 55.2475C106.807 55.1389 106.835 55.0277 106.851 54.9138C106.866 54.7948 106.882 54.6886 106.897 54.5955H107.076ZM78.4884 63.2507C78.4678 63.4473 78.4523 63.6389 78.4418 63.8252C78.4368 64.0062 78.434 64.146 78.434 64.2443C78.434 64.3685 78.4368 64.485 78.4418 64.5937C78.4471 64.7023 78.4523 64.798 78.4573 64.8809H78.2788C78.2427 64.5186 78.1934 64.2341 78.1313 64.027C78.0692 63.8149 77.9605 63.6622 77.8053 63.569C77.65 63.4759 77.4094 63.4293 77.0834 63.4293H76.5943C76.4185 63.4293 76.2838 63.4448 76.1907 63.4759C76.1028 63.5017 76.0432 63.5612 76.0121 63.6544C75.9811 63.7423 75.9656 63.882 75.9656 64.0736V67.9238C75.9656 68.1101 75.9838 68.2498 76.0199 68.343C76.0614 68.4361 76.1391 68.4982 76.2528 68.5293C76.3667 68.5603 76.5322 68.5811 76.7496 68.5914V68.7466C76.6151 68.7363 76.4443 68.7311 76.2373 68.7311C76.0304 68.7259 75.8208 68.7233 75.6085 68.7233C75.4067 68.7233 75.2178 68.7259 75.0418 68.7311C74.866 68.7311 74.7235 68.7363 74.6149 68.7466V68.5914C74.7909 68.5811 74.9229 68.5603 75.0108 68.5293C75.1039 68.4982 75.166 68.4361 75.1971 68.343C75.2281 68.2498 75.2436 68.1101 75.2436 67.9238V64.0736C75.2436 63.882 75.2281 63.7423 75.1971 63.6544C75.166 63.5612 75.1039 63.4991 75.0108 63.4681C74.9229 63.4318 74.7909 63.4112 74.6149 63.406V63.2507C74.8064 63.256 75.0082 63.261 75.2204 63.2663C75.4327 63.2663 75.6423 63.2688 75.8491 63.274C76.0562 63.274 76.2477 63.274 76.4236 63.274C76.6048 63.274 76.7523 63.274 76.866 63.274C77.1041 63.274 77.3733 63.274 77.6733 63.274C77.9788 63.2688 78.2505 63.261 78.4884 63.2507ZM77.2852 65.9832C77.2852 65.9832 77.2852 66.009 77.2852 66.0608C77.2852 66.1126 77.2852 66.1384 77.2852 66.1384H75.7327C75.7327 66.1384 75.7327 66.1126 75.7327 66.0608C75.7327 66.009 75.7327 65.9832 75.7327 65.9832H77.2852ZM77.4327 64.9585C77.4121 65.2535 77.4016 65.4786 77.4016 65.6338C77.4069 65.7891 77.4094 65.9313 77.4094 66.0608C77.4094 66.1902 77.4121 66.3325 77.4172 66.4877C77.4224 66.643 77.4354 66.8681 77.456 67.1631H77.2774C77.2569 66.9975 77.2309 66.837 77.1998 66.6818C77.174 66.5213 77.1119 66.3921 77.0135 66.2937C76.9204 66.1902 76.7601 66.1384 76.5322 66.1384V65.9832C76.703 65.9832 76.8324 65.9496 76.9204 65.8822C77.0135 65.8099 77.0808 65.7192 77.1222 65.6106C77.1637 65.5019 77.192 65.3907 77.2076 65.2768C77.2231 65.1578 77.2386 65.0517 77.2541 64.9585H77.4327ZM84.0646 63.2507V63.406C83.8886 63.4112 83.7541 63.437 83.661 63.4836C83.5729 63.5302 83.5135 63.6053 83.4824 63.7087C83.4514 63.8122 83.4359 63.9597 83.4359 64.1512V66.4877C83.4359 66.85 83.4126 67.1656 83.366 67.4348C83.3194 67.7039 83.2366 67.9368 83.1176 68.1334C82.9881 68.3507 82.7993 68.5268 82.5509 68.6612C82.3025 68.7907 82.0178 68.8553 81.697 68.8553C81.4486 68.8553 81.2105 68.8243 80.9829 68.7622C80.7603 68.7053 80.5637 68.5966 80.3929 68.4361C80.2427 68.2912 80.1238 68.1386 80.0359 67.9781C79.953 67.8176 79.8961 67.6211 79.8651 67.3882C79.834 67.1553 79.8185 66.8629 79.8185 66.511V64.0736C79.8185 63.882 79.803 63.7423 79.7719 63.6544C79.7409 63.5612 79.6788 63.4991 79.5856 63.4681C79.4975 63.4318 79.3656 63.4112 79.1897 63.406V63.2507C79.2984 63.256 79.4407 63.261 79.6167 63.2663C79.7925 63.2715 79.9815 63.274 80.1833 63.274C80.3644 63.274 80.5429 63.2715 80.719 63.2663C80.9 63.261 81.05 63.256 81.1692 63.2507V63.406C80.9932 63.4112 80.8587 63.4318 80.7655 63.4681C80.6774 63.4991 80.6181 63.5612 80.587 63.6544C80.556 63.7423 80.5404 63.882 80.5404 64.0736V66.643C80.5404 66.9069 80.5532 67.1578 80.5792 67.396C80.605 67.6288 80.6569 67.8359 80.7345 68.017C80.8172 68.193 80.9414 68.3327 81.1071 68.4361C81.2726 68.5345 81.4925 68.5836 81.7669 68.5836C82.1601 68.5836 82.4628 68.4982 82.6751 68.3275C82.8925 68.1514 83.0425 67.9108 83.1254 67.6055C83.2133 67.3003 83.2573 66.956 83.2573 66.5731V64.1512C83.2573 63.9597 83.234 63.8122 83.1875 63.7087C83.1459 63.6053 83.0735 63.5302 82.9701 63.4836C82.8665 63.437 82.7267 63.4112 82.5509 63.406V63.2507C82.6441 63.256 82.7656 63.261 82.9158 63.2663C83.071 63.2715 83.2133 63.274 83.3427 63.274C83.4772 63.274 83.6092 63.2715 83.7386 63.2663C83.8731 63.261 83.9818 63.256 84.0646 63.2507ZM89.7439 63.2507V63.406C89.5681 63.4112 89.4334 63.437 89.3403 63.4836C89.2523 63.5302 89.1928 63.6053 89.1617 63.7087C89.1307 63.8122 89.1151 63.9597 89.1151 64.1512V68.7854C89.0841 68.7854 89.053 68.7854 89.022 68.7854C88.9962 68.7854 88.9676 68.7854 88.9366 68.7854L85.6763 63.7475V67.8462C85.6763 68.0325 85.6919 68.18 85.7229 68.2886C85.7592 68.3921 85.8265 68.4672 85.9247 68.5138C86.0284 68.5551 86.1809 68.5811 86.3827 68.5914V68.7466C86.2896 68.7363 86.1681 68.7311 86.0179 68.7311C85.8679 68.7259 85.7256 68.7233 85.5909 68.7233C85.4617 68.7233 85.3297 68.7259 85.195 68.7311C85.0658 68.7311 84.9571 68.7363 84.869 68.7466V68.5914C85.045 68.5811 85.177 68.5551 85.2649 68.5138C85.3581 68.4672 85.4202 68.3921 85.4512 68.2886C85.4823 68.18 85.4978 68.0325 85.4978 67.8462V64.0736C85.4978 63.882 85.4823 63.7423 85.4512 63.6544C85.4202 63.5612 85.3581 63.4991 85.2649 63.4681C85.177 63.4318 85.045 63.4112 84.869 63.406V63.2507C84.9571 63.256 85.0658 63.261 85.195 63.2663C85.3297 63.2715 85.4617 63.274 85.5909 63.274C85.7049 63.274 85.8135 63.2715 85.917 63.2663C86.0206 63.261 86.1137 63.256 86.1964 63.2507L88.9366 67.4736V64.1512C88.9366 63.9597 88.9186 63.8122 88.8823 63.7087C88.8512 63.6053 88.7841 63.5302 88.6804 63.4836C88.5822 63.437 88.432 63.4112 88.2302 63.406V63.2507C88.3234 63.256 88.445 63.261 88.595 63.2663C88.7503 63.2715 88.8927 63.274 89.022 63.274C89.1567 63.274 89.2886 63.2715 89.4179 63.2663C89.5526 63.261 89.6612 63.256 89.7439 63.2507ZM92.7408 63.2507C93.6671 63.2507 94.3554 63.4836 94.8057 63.9494C95.2559 64.4099 95.481 65.0724 95.481 65.9366C95.481 66.5007 95.3696 66.9948 95.1472 67.4192C94.9299 67.8384 94.6116 68.1644 94.1924 68.3973C93.7733 68.6302 93.266 68.7466 92.671 68.7466C92.5933 68.7466 92.4897 68.7441 92.3605 68.7389C92.231 68.7336 92.0965 68.7311 91.9568 68.7311C91.8221 68.7259 91.6979 68.7233 91.5842 68.7233C91.403 68.7233 91.2244 68.7259 91.0486 68.7311C90.8726 68.7311 90.7303 68.7363 90.6217 68.7466V68.5914C90.7975 68.5811 90.9294 68.5603 91.0175 68.5293C91.1107 68.4982 91.1728 68.4361 91.2038 68.343C91.2349 68.2498 91.2504 68.1101 91.2504 67.9238V64.0736C91.2504 63.882 91.2349 63.7423 91.2038 63.6544C91.1728 63.5612 91.1107 63.4991 91.0175 63.4681C90.9294 63.4318 90.7975 63.4112 90.6217 63.406V63.2507C90.7303 63.256 90.8726 63.2637 91.0486 63.274C91.2244 63.2793 91.3979 63.2793 91.5687 63.274C91.7497 63.2688 91.9541 63.2637 92.1819 63.2585C92.4096 63.2533 92.5959 63.2507 92.7408 63.2507ZM92.5468 63.3905C92.3087 63.3905 92.1534 63.4345 92.081 63.5224C92.0084 63.6103 91.9723 63.7889 91.9723 64.058V67.9393C91.9723 68.2085 92.0084 68.387 92.081 68.4749C92.1586 68.5629 92.3164 68.6069 92.5545 68.6069C93.1185 68.6069 93.5559 68.506 93.8664 68.3042C94.1769 68.0971 94.3943 67.7971 94.5185 67.4037C94.6427 67.0103 94.7048 66.5318 94.7048 65.9676C94.7048 65.388 94.6349 64.9094 94.4952 64.5316C94.3605 64.1487 94.1354 63.864 93.8198 63.6777C93.5093 63.4861 93.0849 63.3905 92.5468 63.3905Z" fill="#01434C"/>
</g>
<defs>
<clipPath id="clip0_30_486">
<rect width="170" height="93" fill="white"/>
</clipPath>
</defs>
</svg>
